<svg viewBox="0 0 640 800" xmlns="http://www.w3.org/2000/svg" fill-rule="evenodd" clip-rule="evenodd" stroke-linejoin="round" stroke-miterlimit="2">
  <style>
    .foreground { fill: #24292e; }
    .background { fill: transparent; }

    @media (prefers-color-scheme: dark) {
      .foreground { fill: #0d1117; }
      .background { fill: #c9d1d9; }
    }
  </style>
  <path class="foreground" d="M280.114 629.788c6.013-30.797-39.115-34.484-58.224-23.453-3.12 1.801-6.203 3.988-8.309 6.911-5.549 7.7-1.883 15.486 4.601 20.361 1.167.877 3.956 2.987 5.727 2.702 3.628-.583 4.268-3.304 2.542-6.272-9.23-15.864 17.501-23.204 28.294-20.155 5.598 1.581 10.831 5.636 10.422 12.106-.215 3.391-.824 6.835-2.148 9.965-1.494 3.53-3.51 6.945-6.173 9.702-5.641 5.843-12.533 9.159-20.551 9.878 6.562-12.39 12.778-23.556 18.633-33.468 4.858-6.911-1.18-9.323-7.074-6.714-3.972 1.759-7.107 5.59-9.331 9.199 0 0-1.873 3.01-2.79 4.528-2.853 4.72-5.711 9.437-8.52 14.184a2258.293 2258.293 0 00-11.679 19.952c-.855 1.457-21.126 37.36-22.586 43.154 0 0-.457 1.397-.457 2.12 0 4.929 5.803 4.196 8.508 2.473 9.574-6.101 15.824-16.634 20.71-26.513 5.583-11.216 8.981-18.007 10.195-20.373 13.189-.127 28.481-4.104 38.41-13.276l-18.017 32.066-2.294 4.17c-2.548 4.632-6.356 12.13-7.159 17.68-.351 2.425 2.569 4.498 4.682 3.531l1.631-.747c4.771-2.08 17.6-17.895 18.446-18.971 2.354-2.994 13.504-16.419 19.21-21.69-5.352 9.032-17.988 23.212-17.714 35.236.163 7.17 7.627 4.711 11.242 2.279a112.31 112.31 0 0014.928-12.043c.733-.701 1.483-1.428 2.249-2.181-1.583 12.715 6.224 21.142 19.387 15.972 14.292-5.613 25.794-21.339 30.863-35.152l1.431-1.925c1.988-1.841 4.174-3.459 6.172-5.289l-10.981 19.109-2.435 4.321c-1.312 2.396-6.941 12.533-7.537 16.292-.37 2.338 2.579 3.666 4.276 3.507 6.3-.591 9.952-4.471 13.304-9.321-1.578 2.265 3.457-4.305 5.155-6.482 4.977-6.378 15.004-17.761 21.859-23.852-2.18 3.67-9.37 14.197-10.573 17.549-2.667 4.883-7.251 11.379-6.879 17.216.339 5.316 5.849 5.754 9.567 3.222 5.675-3.864 11.116-8.116 16.143-12.792-1.251 3.054-2.441 6.249-2.626 9.57-.131 2.366 1.662 5.026 4.276 4.764 5.828-.586 11.587-6.259 15.136-9.588-1.173-.415 1.87-1.643 2.772-2.5 2.568-2.436 5.137-4.872 7.638-7.376-3.635 6.971-6.629 12.585-8.983 16.843-11.322 9.291-23.34 20.962-31.124 33.65-5.92 9.65-9.123 17.981-9.628 29.227-.128 2.852.551 5.722 1.384 8.453.965 3.167 4.954 3.101 7.184 1.77 4.648-2.775 8.122-7.66 10.991-12.126 6.19-9.002 17.477-28.428 33.838-58.268l3.048-5.58c6.536-5.051 13.208-10.043 18.895-16.035 3.274-3.449 6.681-6.784 9.74-10.425 1.445-1.72 2.108-4.048 2.489-6.262.581-3.38-3.756-3.476-5.257-1.786-4.933 5.555-9.243 10.244-12.929 14.068-.717.642-1.475 1.308-2.273 2 1.364-2.366 2.289-4.003 2.777-4.909 2.413-4.383 13.322-22.176 14.946-26.003 0 0 1.214-2.173 1.214-3.366 0-1.872-1.607-3.774-3.642-3.506-5.061.667-9.995 2.801-12.886 7.314-3.347 5.225-7.277 10.065-11.235 14.845-5.988 7.232-11.512 13.098-16.578 17.589 1.933-4.048 4.122-7.968 6.246-11.918 6.142-11.418 6.94-10.664 13.186-21.875l-.031.057c1.28-2.222.948-6.59-2.927-6.012-5.415.807-10.663 4.39-13.911 8.657-2.376 3.121-5.663 8.361-9.853 15.727-3.772 4.233-7.713 8.313-11.607 12.434-1.029 1.089-3.29 3.063-3.29 3.063 2.291-4.626 5.002-9.035 7.692-13.441 1.369-2.244 10.132-16.6 10.132-21.551 0-4.625-4.729-5.234-8.031-3.632-7.383 3.582-18.457 13.864-24.917 20.113 0 0 5.78-10.06 8.917-14.937 1.75-2.428.474-6.352-2.919-6.046-8.042.725-12.98 7.209-16.941 13.494-.07-1.075-.759-2.492-3.097-3.007a2.497 2.497 0 00-.633-.057c-1.082.041-2.266.205-3.553.498 5.351-13.682-10.482-14.162-19.144-10.711-12.548 4.999-22.735 16.574-28.852 28.255-2.889 3.161-5.382 5.783-7.478 7.866l.002-.001c-1.314 1.062-3.803 3.353-3.803 3.353 2.223-4.556 5.472-9.623 7.968-13.615 2.103-3.364 10.692-16.086 10.146-21.824-.678-7.129-9.39-3.461-12.704-1.051-7.081 5.148-13.638 11.041-19.77 17.289a1111.703 1111.703 0 0010.336-17.902c9.282-16.447 19.313-32.501 27.712-49.416 1.88-3.787 3.417-7.796 4.319-11.928.421-1.926-1.619-3.542-3.261-3.506-3.135.07-6.09 4.397-7.309 6.007-7.408 9.496-17.061 24.341-28.948 44.538zm93.751 124.496c1.253-6.3 4.307-12.666 7.871-17.966l.045-.07c3.062-4.897 7.13-9.993 12.199-15.295-6.815 12.053-13.251 22.783-19.31 32.191l-.805 1.14zm-33.624-98.19c-3.63 1.61-8.766 4.927-7.902 9.681-1.133 7.253-4.281 13.695-8.438 19.669-1.873 2.693-4.164 5.079-6.446 7.435-1.371 1.417-5.655 3.748-5.179-.213.293-2.445.569-4.917 1.275-7.276 3.154-10.534 9.085-20.923 16.049-29.379.635-.772 6.712-8.544 10.362-8.132 1.152.131 1.082 2.367 1.051 2.782a38.835 38.835 0 01-.772 5.433z" fill-rule="nonzero" />
  <path class="background" d="M213.622 642.635c-2.263 3.85-4.511 7.708-6.746 11.574-.849 1.448-20.99 37.627-23.465 45.172-.183.685-.92 3.549-.92 5.107 0 14.606 15.867 16.013 23.881 10.906 11.095-7.069 18.628-19.047 24.292-30.495a6402.217 6402.217 0 017.552-15.136 80.928 80.928 0 008.399-1.201l-3.036 5.405-2.338 4.248c-3.024 5.498-7.341 14.48-8.294 21.068-.713 4.929 1.517 9.671 5.38 12.519 3.87 2.853 9.057 3.506 13.36 1.537l1.632-.747c1.814-.789 4.858-3.004 8.051-6.074 1.144 1.804 2.622 3.113 4.162 4.097 2.352 1.503 5.202 2.285 8.332 2.192 4.084-.121 8.924-2.048 12.059-4.157a114.507 114.507 0 005.785-4.156 21.003 21.003 0 003.296 3.771c5.729 5.141 14.464 7.501 25.557 3.144a44.789 44.789 0 006.859-3.419c.319.368.661.722 1.024 1.061 3.04 2.843 7.864 4.18 11.183 3.869 6.042-.567 10.633-2.897 14.478-6.393 1.406 2.056 3.282 3.555 5.346 4.61 4.877 2.494 11.909 2.098 17.304-1.575l1.872-1.298a14.57 14.57 0 001.762 1.652c-5.502 5.885-10.543 12.185-14.553 18.721-6.883 11.218-10.508 20.935-11.095 34.008-.178 3.981.646 8.005 1.808 11.817 3.014 9.892 14.91 11.599 21.875 7.442 5.904-3.524 10.543-9.509 14.201-15.185 6.292-9.178 17.741-28.84 34.271-58.988l2.051-3.754c6.399-4.94 12.818-9.928 18.377-15.785 3.413-3.595 6.953-7.08 10.143-10.875 2.564-3.052 4.013-7.072 4.688-11.001.697-4.05-.41-7.081-2.007-9.345a11.874 11.874 0 00-2.587-2.656c.556-1.033.974-1.864 1.208-2.415l-.473.966s2.482-5.372 2.482-8.241c0-7.44-6.864-14.486-14.948-13.421-4.424.584-8.721 1.994-12.442 4.355-.36-.43-.747-.833-1.16-1.209-2.439-2.222-5.877-3.855-10.792-3.122-4.48.668-8.91 2.591-12.77 5.266a12.624 12.624 0 00-.489-.539c-4.303-4.481-12.278-5.595-18.499-2.576-1.316.638-2.741 1.465-4.236 2.434-2.527-2.899-6.371-4.703-11.216-4.266-5.925.534-10.835 3.052-14.967 6.602l-.416-.605c-2.782-3.816-7.358-6.426-12.962-7.286-5.748-.883-12.684.127-17.826 2.175-3.675 1.464-7.19 3.397-10.505 5.689a13.664 13.664 0 00-2.07-2.58c-2.317-2.275-5.282-3.603-8.707-3.893l-.428-.028c6.23-10.696 12.422-21.415 17.924-32.497 2.244-4.52 4.056-9.311 5.133-14.241.988-4.526-.564-8.804-3.677-11.813-2.617-2.529-6.332-3.896-9.576-3.824-2.792.062-5.624 1.018-8.196 2.796-2.938 2.032-5.565 5.456-6.83 7.127-4.861 6.237-10.685 14.731-17.447 25.477-3.081-3.506-7.027-6.347-11.543-8.568-16.312-8.022-41.422-6.381-55.243 1.596-4.33 2.5-8.498 5.669-11.422 9.725-9.265 12.857-4.121 26.062 6.705 34.201.382.287.877.647 1.449 1.035zm202.993.655c-2.996 1.61-5.666 3.925-7.615 6.486-2.376 3.121-5.663 8.361-9.853 15.727-3.772 4.233-7.713 8.313-11.607 12.434-1.029 1.089-3.29 3.063-3.29 3.063 2.291-4.626 5.002-9.035 7.692-13.441 1.369-2.244 10.132-16.6 10.132-21.551 0-4.625-4.729-5.234-8.031-3.632-7.383 3.582-18.457 13.864-24.917 20.113 0 0 5.78-10.06 8.917-14.937 1.75-2.428.474-6.352-2.919-6.046-8.042.725-12.98 7.209-16.941 13.494-.07-1.075-.759-2.492-3.097-3.007a2.497 2.497 0 00-.633-.057c-1.082.041-2.266.205-3.553.498 5.351-13.682-10.482-14.162-19.144-10.711-12.548 4.999-22.735 16.574-28.852 28.255-2.889 3.161-5.382 5.783-7.478 7.866l.002-.001c-1.314 1.062-3.803 3.353-3.803 3.353 2.223-4.556 5.472-9.623 7.968-13.615 2.103-3.364 10.692-16.086 10.146-21.824-.678-7.129-9.39-3.461-12.704-1.051-7.081 5.148-13.638 11.041-19.77 17.289a1111.703 1111.703 0 0010.336-17.902c9.282-16.447 19.313-32.501 27.712-49.416 1.88-3.787 3.417-7.796 4.319-11.928.421-1.926-1.619-3.542-3.261-3.506-3.135.07-6.09 4.397-7.309 6.007-7.408 9.496-17.061 24.341-28.948 44.538 6.013-30.797-39.115-34.484-58.224-23.453-3.12 1.801-6.203 3.988-8.309 6.911-5.549 7.7-1.883 15.486 4.601 20.361 1.167.877 3.956 2.987 5.727 2.702 3.628-.583 4.268-3.304 2.542-6.272-9.23-15.864 17.501-23.204 28.294-20.155 5.598 1.581 10.831 5.636 10.422 12.106-.215 3.391-.824 6.835-2.148 9.965-1.494 3.53-3.51 6.945-6.173 9.702-5.641 5.843-12.533 9.159-20.551 9.878 6.562-12.39 12.778-23.556 18.633-33.468 4.858-6.911-1.18-9.323-7.074-6.714-3.972 1.759-7.107 5.59-9.331 9.199 0 0-1.873 3.01-2.79 4.528-2.853 4.72-5.711 9.437-8.52 14.184a2258.293 2258.293 0 00-11.679 19.952c-.855 1.457-21.126 37.36-22.586 43.154 0 0-.457 1.397-.457 2.12 0 4.929 5.803 4.196 8.508 2.473 9.574-6.101 15.824-16.634 20.71-26.513 5.583-11.216 8.981-18.007 10.195-20.373 13.189-.127 28.481-4.104 38.41-13.276l-18.017 32.066-2.294 4.17c-2.548 4.632-6.356 12.13-7.159 17.68-.351 2.425 2.569 4.498 4.682 3.531l1.631-.747c4.771-2.08 17.6-17.895 18.446-18.971 2.354-2.994 13.504-16.419 19.21-21.69-5.352 9.032-17.988 23.212-17.714 35.236.163 7.17 7.627 4.711 11.242 2.279a112.31 112.31 0 0014.928-12.043c.733-.701 1.483-1.428 2.249-2.181-1.583 12.715 6.224 21.142 19.387 15.972 14.292-5.613 25.794-21.339 30.863-35.152l1.431-1.925c1.988-1.841 4.174-3.459 6.172-5.289l-10.981 19.109-2.435 4.321c-1.312 2.396-6.941 12.533-7.537 16.292-.37 2.338 2.579 3.666 4.276 3.507 6.3-.591 9.952-4.471 13.304-9.321-1.578 2.265 3.457-4.305 5.155-6.482 4.977-6.378 15.004-17.761 21.859-23.852-2.18 3.67-9.37 14.197-10.573 17.549-2.667 4.883-7.251 11.379-6.879 17.216.339 5.316 5.849 5.754 9.567 3.222 5.675-3.864 11.116-8.116 16.143-12.792-1.251 3.054-2.441 6.249-2.626 9.57-.131 2.366 1.662 5.026 4.276 4.764 5.828-.586 11.587-6.259 15.136-9.588-1.173-.415 1.87-1.643 2.772-2.5 2.568-2.436 5.137-4.872 7.638-7.376-3.635 6.971-6.629 12.585-8.983 16.843-11.322 9.291-23.34 20.962-31.124 33.65-5.92 9.65-9.123 17.981-9.628 29.227-.128 2.852.551 5.722 1.384 8.453.965 3.167 4.954 3.101 7.184 1.77 4.648-2.775 8.122-7.66 10.991-12.126 6.19-9.002 17.477-28.428 33.838-58.268l3.048-5.58c6.536-5.051 13.208-10.043 18.895-16.035 3.274-3.449 6.681-6.784 9.74-10.425 1.445-1.72 2.108-4.048 2.489-6.262.581-3.38-3.756-3.476-5.257-1.786-4.933 5.555-9.243 10.244-12.929 14.068-.717.642-1.475 1.308-2.273 2 1.364-2.366 2.289-4.003 2.777-4.909 2.413-4.383 13.322-22.176 14.946-26.003 0 0 1.214-2.173 1.214-3.366 0-1.872-1.607-3.774-3.642-3.506-5.061.667-9.995 2.801-12.886 7.314-3.347 5.225-7.277 10.065-11.235 14.845-5.988 7.232-11.512 13.098-16.578 17.589 1.933-4.048 4.122-7.968 6.246-11.918 4.252-7.905 5.943-9.975 8.653-14.221.997-1.562 1.612-2.599 1.612-2.599l.813-1.364.998-1.723 1.09-1.933c1.267-2.227.925-6.566-2.938-5.99-1.613.24-3.212.727-4.744 1.409-.405.18-.605.28-.605.28l-.576.28s-.05.03-.371.202zm-42.75 110.994c1.253-6.3 4.307-12.666 7.871-17.966l.045-.07c3.062-4.897 7.13-9.993 12.199-15.295-6.815 12.053-13.251 22.783-19.31 32.191l-.805 1.14zm-33.624-98.19c-3.63 1.61-8.766 4.927-7.902 9.681-1.133 7.253-4.281 13.695-8.438 19.669-1.873 2.693-4.164 5.079-6.446 7.435-1.371 1.417-5.655 3.748-5.179-.213.293-2.445.569-4.917 1.275-7.276 3.154-10.534 9.085-20.923 16.049-29.379.635-.772 6.712-8.544 10.362-8.132 1.152.131 1.082 2.367 1.051 2.782a38.835 38.835 0 01-.772 5.433zm85.608-8.985l-.011.022.031-.057-.02.035zM238.815 476.379s-.545.947-.808 1.425a68.096 68.096 0 00-1.744 3.375 61.443 61.443 0 00-2.585 6.23c-.27.772-.428 2.516-.964 3.085-.225.239-.55-.357-.822-.542a52.903 52.903 0 01-.77-.538 30.228 30.228 0 01-3.497-2.901c-3.587-3.467-6.386-7.7-8.313-12.29-.473-1.126-1.572-3.015-1.484-4.198.01-.127.236.1.354.148a271.208 271.208 0 002.316.928c1.4.544 2.81 1.05 4.226 1.548 4.597 1.61 9.263 3.006 14.091 3.73zm285.515-210.12s-2.19 3.918-3.054 5.983a158.551 158.551 0 00-4.59 12.434c-4.05 12.52-6.674 25.466-8.413 38.5-2.399 17.983-1.163 36.299-3.798 54.172-3.766 25.554-17.686 50.71-39.495 65.124-11.888 7.857-25.66 12.816-38.167 19.646a258.92 258.92 0 00-12.236 7.15 251.733 251.733 0 00-4.038 2.553c-.836.539-2.074 2.534-2.496 1.634-.7-1.493-.24-3.29-.36-4.934-.746-10.166-1.444-20.35-2.243-30.513-2.354-29.915-7.599-63.467-.393-93.164 2.656-10.943 7.677-20.478 15.518-28.62 3.342-3.471 9.763-6.721 12.19-10.603 1.515-2.426 2.846-6.256-1.386-7.104-2.566-.515-5.586 1.969-7.632 3.264-6.376 4.034-12.392 8.567-17.695 13.95-26.559 26.966-20.928 67.195-21.555 101.538 0 .03-4.455 1.114-4.877 1.223-5.135 1.333-10.37 2.308-15.658 2.779-44.313 3.949-75.739-31.641-103.222-61.184-8.453-9.085-17.329-21.09-27.634-28.218-8.164-5.647-20.342-8.068-29.486-12.085-7.188-3.158-14.28-6.548-21.225-10.213-28.193-14.878-68.947-41.02-65.58-78.458 1.457-16.193 12.457-27.56 16.631-42.574 1.592-5.73.484-15.3 4.99-19.59 4.593-4.375 12.984-5.606 18.737-7.506 14.494-4.788 29.176-9.005 44.047-12.46 69.353-16.11 140.7-13.404 206.99 13.67a355.38 355.38 0 0115.842 6.919c1.701.793 4.693.05 5.328 1.817 1.421 3.954 1.588 8.773 2.761 12.883 2.148 7.522 5.301 14.696 8.121 21.968 1.142 2.942 3.67 10.733 7.641 10.942 5.584.293.371-9.896-.186-11.705-3.982-12.946-6.227-26.7-5.578-40.27.926-19.37 11.72-37.126 32.993-36.987 4.133.027 8.264.79 12.186 2.076 14.837 4.864 24.457 17.509 28.154 32.336 1.243 4.987.337 13.954 3.372 17.943 2.926 3.845 11.107 4.932 15.477 6.928 12.522 5.72 25.177 15.586 26.034 30.39.886 15.307-8.937 27.312-20.222 36.308-3.414 2.722-6.964 5.267-10.532 7.78-1.848 1.302-5.26 4.278-5.26 4.278zm-364.492 167.89c1.892 6.71 5.051 12.987 8.876 18.8a104.993 104.993 0 004.032 5.686c.17.225.937 1.203.936 1.203-.067.269-.532-.156-.797-.236a105.607 105.607 0 01-8.018-2.789c-7.577-3.002-14.793-7.116-21.264-12.067a90.032 90.032 0 01-5.212-4.299c-.123-.11-.503-.238-.367-.33.867-.581 3.804-.7 4.768-.897a104.44 104.44 0 009.941-2.552 98.15 98.15 0 004.516-1.524c.566-.207.878-.324 1.44-.541.384-.15 1.15-.454 1.15-.454zm43.132-31.676c-.515 2.624-.184 5.32.586 7.864.233.772.497 1.534.79 2.285.087.222.298.73.393.953.044.104.247.295.135.31-.293.045-.577-.133-.866-.202a56.225 56.225 0 01-1.886-.496 38.738 38.738 0 01-5.553-1.991 32.487 32.487 0 01-1.835-.903c-.108-.057-.387-.073-.32-.176.26-.405.706-.653 1.06-.98.545-.503 1.091-1.007 1.64-1.507a194.78 194.78 0 015.856-5.157zm18.55-14.133c-.035.138-.07.276-.1.415a21.87 21.87 0 00-.23 1.207 26.394 26.394 0 00-.28 2.806c-.099 1.917-.018 3.845.154 5.756.03.32.128 1.263.166 1.592.034.289.196.588.108.865-.037.116-.233-.072-.348-.111-.298-.101-.618-.16-.886-.325-.037-.023.085.036.13.034.053-.003-.09-.062-.136-.091-.32-.208-.643-.41-.96-.62-1.078-.713-2.109-1.493-3.178-2.22-.832-.566-1.717-1.118-2.629-1.551-.365-.173-.733-.34-1.116-.47-.142-.048-.542-.025-.432-.128 1.854-1.722 4.15-3.145 6.202-4.631a387.628 387.628 0 012.951-2.116l.584-.412zm18.501-11.806c-.012.138-.023.276-.032.415a25.554 25.554 0 00-.017 2.487c.08 1.837.29 3.658.551 5.476a99.338 99.338 0 00.555 3.333c.025.133.206.356.078.399-.16.053-.283-.188-.423-.284a20 20 0 01-.933-.68c-1.268-.993-2.32-2.306-3.478-3.42-.867-.834-1.8-1.616-2.829-2.245a10.68 10.68 0 00-1.038-.561c-.13-.062-.408-.027-.399-.172.01-.168.284-.181.426-.27a158.634 158.634 0 017.539-4.478zm119.793-176.275c21.773.705 32.173 20.37 38.832 38.66 1.757 4.828 3.553 9.66 5.007 14.592.498 1.686 1.667 4.035-.07 5.422-3.465 2.763-5.843-4.685-6.887-6.508-3.917-6.838-9.744-15.848-18.307-16.948-8.209-1.054-15.835 3.932-24.063 2.44-9.447-1.712-16.058-9.848-25.45-12.065-3.827-.902-17.285.384-18.615-4.006-1.216-4.015 4.467-6.171 7.193-7.75 9.302-5.388 19.19-9.867 29.697-12.294 2.663-.615 5.333-1.073 8.056-1.32 1.531-.137 4.607-.223 4.607-.223zm39.733 57.164c.002.01.008.04.008.03 0-.012-.005-.024-.008-.035v.005zm-44.5-42.797s-1.08.009-1.62.03c-1.252.05-2.502.078-3.752.166-3.914.278-7.764.954-11.597 1.776-1.564.336-3.122.683-4.67 1.083-.394.102-1.123-.09-1.178.312 0 .007 1.256.292 1.333.312a37.17 37.17 0 013.015.886c2.803.959 5.443 2.3 7.998 3.79 4.06 2.366 9.287 6.177 13.638 6.328 6.235.217 12.256-2.046 18.56-1.43a23.65 23.65 0 018.003 2.223c.706.34 2.411 1.895 3.091 1.895.517 0-.608-.835-.917-1.25-.36-.481-.73-.956-1.104-1.427-1.468-1.855-3.043-3.635-4.744-5.28-4.517-4.363-10.11-7.875-16.445-8.648-2.034-.248-4.04-.507-6.088-.65-1.173-.08-3.524-.116-3.524-.116zm93.904-2.316c.023.023.047.047.074.066.092.06.088.064.178.129.025.018-.098-.078-.069-.065.045.02.073.067.118.086.037.016-.12-.046-.094-.076.027-.031.067.087.103.066.034-.02-.066-.044-.096-.07-.014-.012.062.039.047.027-.027-.021-.058-.036-.085-.058-.029-.023-.03-.018-.062-.04-.01-.008.052.024.04.017-.052-.03-.053-.027-.103-.06a.258.258 0 00-.05-.022zm-221.576-9.627s-.702 1.032-1.226 1.329c-.802.454-1.61.897-2.436 1.307-3.19 1.584-6.492 2.909-9.93 3.85-10.37 2.842-19.513.958-28.61-4.638-2.473-1.521-4.892-3.13-7.336-4.698-.225-.144-3.736-1.847-3.362-2.693.421-.955 3.76.562 4.251.698 4.1 1.129 8.253 1.8 12.456 2.4 7.865 1.127 16.122 3.423 24.047 3.644 2.724.076 5.432-.07 8.101-.647.858-.186 2.35-.911 3.228-.852.29.019.561.164.817.3zM432.95 82.16s-1.235 1.335-1.847 2.007a354.96 354.96 0 00-2.962 3.283 324.763 324.763 0 00-9.62 11.307c-6.683 8.242-12.928 16.862-18.358 25.985-1.918 3.222-3.194 7.188-5.159 10.227-.373.578-1.303-.437-1.956-.654a342.044 342.044 0 00-7.2-2.293 362.272 362.272 0 00-8.308-2.437c-.507-.142-1.568.105-1.524-.42.58-6.857 4.08-14.593 6.7-20.865 8.06-19.303 20.123-36.958 34.288-52.288 4.645-5.026 9.512-9.852 14.748-14.263.77-.647 3.787-3.776 4.734-3.652.136.018.203 2.596.21 2.72.135 2.527.106 5.066.015 7.593-.406 11.318-1.917 22.587-3.76 33.75zm76.338 43.568s-2.65-2.024-4.045-2.94a54.335 54.335 0 00-7.954-4.31c-9.086-3.995-19.382-5.784-29.252-4.365-6.337.91-12.45 3.008-17.884 6.423-1.782 1.119-3.455 2.389-5.05 3.759-.757.65-2.149 3.042-2.19 2.045-.056-1.347 1.75-3.524 2.395-4.763a237.472 237.472 0 018.46-14.863c10.157-16.477 22.042-32.064 35.341-46.132 3.46-3.66 7.01-7.253 10.79-10.583 1.02-.898 3.224-3.437 4.611-3.806.166-.045 1.254 3.84 1.394 4.368 1.353 5.095 2.117 10.318 2.67 15.553 1.394 13.23 1.618 26.62 1.434 39.91-.057 4.1-.199 8.202-.367 12.3-.029.693-.153 3.5-.186 4.2a878.5 878.5 0 01-.167 3.204zm-6.104-82.244c.003.003.006.007.011.008.002 0 0-.005-.002-.007a.026.026 0 00-.01-.007c-.003 0 0 .004.001.006zm-.006-.004c0-.001 0-.002-.002-.003-.016-.01-.06-.043-.049-.028.012.016.033.024.051.03zm-.003-.015l.01.008c-.01-.024-.018-.053-.04-.07-.018-.011.017.043.03.062zm-.009-.004c0-.006-.004-.013-.009-.016-.045-.028-.167-.123-.14-.077.03.05.094.073.15.093zm-.492-.546c-.026-.061-.082-.187-.135-.147-.053.04.167.098.13.152-.039.054-.128-.206-.138-.141-.01.068.145.088.135.156-.01.063-.16-.196-.138-.136.027.067.127.089.146.158.017.06-.162-.188-.138-.13.03.068.126.092.151.16.008.023.017.017.028.038.028.055-.178-.17-.143-.12.045.067.13.1.174.166.02.027.023.023.043.05.024.032.03.026.055.056.038.044-.184-.145-.142-.104.063.062.147.1.206.167.04.043-.189-.138-.145-.1.07.062.155.103.222.167.041.04-.19-.13-.147-.093.072.062.16.102.231.164.043.039-.193-.124-.147-.09.075.057.164.218.235.157.07-.06-.093-.158-.147-.232-.025-.035.087.146.061.112-.068-.085-.12-.183-.186-.27-.028-.037.102.156.071.12-.066-.076-.114-.168-.18-.245-.033-.038.115.162.08.127-.043-.041-.037-.046-.084-.08-.032-.024-.024-.034-.06-.051-.062-.028-.07-.127-.132-.155-.056-.025.171.163.112.147-.066-.018-.068-.144-.135-.153-.063-.01.07.108.117.15zm-66.826-8.019l.003.001c-.004-.012 0-.033-.013-.035-.012 0 .004.024.01.034zm-.01-.02c-.006-.034-.013-.072-.039-.093-.025-.02.025.061.037.091l.005.01.002.003c-.008-.023-.015-.047-.025-.069-.009-.018.013.038.02.057zm-.009-.015a1.4 1.4 0 00-.058-.106c.018.04.02.11.063.116.04.006-.03-.077-.049-.114-.016-.034.063.137.044.104-.022-.038-.035-.08-.053-.12-.018-.037.09.116.05.111-.043-.007-.077-.15-.059-.113.02.042.041.082.062.122z" />
  <path class="foreground" d="M443.994 70.732s1.42-1.412 2.132-2.113A391.644 391.644 0 01459.94 55.66a357.265 357.265 0 019.404-8.113 282.914 282.914 0 017.923-6.363c9.991-7.722 29.703-24.58 40.12-8.602 5.492 8.424 5.453 20.088 5.77 29.757.558 17.128-.748 34.28-2.28 51.327-.636 7.077-2.449 14.584-2.352 21.66.015 1.108 2.716 3.944 3.35 4.995 2.251 3.73 4.06 7.726 5.514 11.828 1.518 4.28 2.621 8.71 3.354 13.192.184 1.128-.013 4.81.708 5.594 2.193 2.385 9.063 3.73 12.168 5.403 8.712 4.694 17.002 10.84 22.578 19.142 3.965 5.903 6.576 12.758 6.924 19.9.13 2.638-1.46 7.513-.69 9.789.91 2.688 3.974 5.646 5.533 8.072a183.499 183.499 0 019.801 17.252c9.626 19.275 16.144 40.072 19.78 61.29 13.631 79.569-13.454 159.92-61.215 223.337-9.587 12.73-19.939 24.87-30.94 36.399-4.244 4.445-8.615 10.253-13.643 13.723-2.275 1.57-.976-2.365-.76-2.762 1.75-3.223 3.37-6.516 4.92-9.84 3.891-8.344 7.128-16.998 9.862-25.787 6.753-21.71 10.367-44.435 11.373-67.13.25-5.633.345-11.281.191-16.92-.05-1.831.458-5.225-.324-6.933-.512-1.118-.583 2.39-.897 3.58a160.832 160.832 0 01-2.43 8.3c-2.593 8.057-5.82 15.893-9.579 23.474-10.563 21.31-25.393 38.626-45.324 51.745-4.805 3.163-9.782 6.152-15.018 8.552-1.403.642-3.793 2.127-5.412 1.69-2.379-.64.544-4.088 1.124-4.938 2.815-4.12 5.721-8.175 8.511-12.312 6.933-10.28 13.445-20.907 17.98-32.485 1.46-3.728 2.787-7.51 3.92-11.35.38-1.285.743-2.574 1.083-3.871.01-.035.444-1.706.432-1.704-3.038.6-8.116 6.928-10.732 8.818-6.977 5.04-14.809 8.629-22.998 11.226-2.147.682-9.314 3.866-11.326 1.827-1.765-1.788 2.184-5.505 3.1-6.684 5.16-6.651 10.168-13.406 13.906-20.977 1.17-2.37 2.267-4.773 3.186-7.251.425-1.144 2.334-3.486 1.113-3.488-3.234-.005-9.957 5.02-12.893 6.579-11.2 5.95-22.279 12.282-32.553 19.743-6.07 4.408-13.368 11.569-20.649 4.48-5.07-4.935-3.723-15.771-4.037-21.732-.163-3.09-.322-6.18-.484-9.27l-1.04-19.832-.46-8.836c-.037-.708.572-1.933-.11-2.124-2.696-.751-9.457 2.15-12.414 2.614-3 .47-10.155-.277-12.576 1.229-18.262 11.356-24.944 34.696-37.172 50.94-13.963 18.552-35.41 10.792-55.407 14.964-8.55 1.783-19.27 8.69-28.08 5.16a12.552 12.552 0 01-6.313-5.64c-.46-.852-.887-3.355-1.504-3.918-2.586-2.364-6.045-3.897-8.695-6.323-6.919-6.335-11.579-14.53-14.31-23.455-1.252-4.09-4.855-13.894-.185-16.961 3.425-2.25 8.178 1.162 11.513 2.326 8.348 2.912 17.986 5.109 26.716 4.84.752-.022 3.9-4.368 4.461-4.948 4.473-4.625 9.403-8.778 14.632-12.522 8.045-5.761 16.483-11.212 23.915-17.786 1.918-1.697 5.54-4.176 6.68-6.56.023-.047-4.844-3.483-5.2-3.751-4.523-3.4-8.874-7.032-13.083-10.813-6.752-6.065-13.174-12.484-19.448-19.04-2.373-2.48-5.62-7.597-8.556-9.076-.527-.265-.113 1.174-.145 1.763a44.479 44.479 0 00-.047 3.387c.08 3.576 2.525 10.653-.953 13.104-5.634 3.97-13.095-3.884-18.05-4.742-.125-.022-.578 3.337-.6 3.553-.33 3 .963 8.279-1.066 10.71-2.372 2.844-8.896 2.452-12.108 1.708-.783-.182-3.417-1.574-4.035-1.38-.225.072.698 3.338.828 3.77.905 3.018 4.037 6.852 1.244 9.714-1.72 1.763-3.976 1.134-6.145 1.034-5.619-.257-11.282-.99-16.69-2.565-.978-.285-6.022-2.905-6.637-2.63-3.43 1.54-6.845 5.622-10.028 7.784-1.226.834-3.948 1.85-4.795 3.054-.922 1.309 1.52 7.215 1.99 8.58 2.864 8.323 7.855 16.034 13.533 22.715 2.543 2.99 8.294 8.007 2.857 11.526-3.225 2.086-9.444-.162-12.875-.957-11.705-2.711-22.946-6.902-33.399-12.858-5.213-2.97-10.19-6.326-14.838-10.126-1.815-1.484-4.055-4.587-6.15-5.455-1.988-.823-6.775.38-9.023.364-6.342-.045-12.709-.83-18.777-2.721-12.392-3.861-17.29-12.522-27.12-19.776-3.52-2.597-7.774-3.947-11.484-6.254-6.494-4.038-12.426-9.21-17.265-15.136-2.909-3.561-5.418-7.465-7.196-11.715-1.384-3.308-2.252-6.817-2.457-10.4-1.484-25.897 29.458-27.028 46.672-34.423 12.88-5.533 25.373-12.4 37.478-19.442 6.816-3.967 13.386-8.473 20.446-12.003.701-.35 5.69-2.323 5.73-2.752.027-.3-2.423-1.853-2.73-2.094a168.398 168.398 0 01-7.626-6.337c-9.264-8.176-17.642-17.563-23.776-28.335-10.764-18.9-12.65-40.792-5.189-61.248 3.148-8.63 8.862-15.944 12.085-24.412 4.213-11.071 2.397-23.091 11.725-31.888 10.898-10.278 29.443-13.34 43.181-17.43 38.145-11.354 77.734-18.424 117.6-18.72 16-.118 32.011.863 47.87 3 4.032.545 8.057 1.158 12.066 1.855 1.13.197 2.671 1.502 3.383.604 6.074-7.65 10.248-17.26 16.111-25.207 13.79-18.692 29.746-36.081 46.668-51.974 5.968-5.607 12.172-11.199 19.015-15.738 2.743-1.82 6.123-4.022 9.58-3.792 10.667.707 7.537 20.74 6.993 26.923a229.363 229.363 0 01-.749 7.122 274.385 274.385 0 01-.915 6.822 455.04 455.04 0 01-.589 3.84zM238.815 476.379s-.545.947-.808 1.425a68.096 68.096 0 00-1.744 3.375 61.443 61.443 0 00-2.585 6.23c-.27.772-.428 2.516-.964 3.085-.225.239-.55-.357-.822-.542a52.903 52.903 0 01-.77-.538 30.228 30.228 0 01-3.497-2.901c-3.587-3.467-6.386-7.7-8.313-12.29-.473-1.126-1.572-3.015-1.484-4.198.01-.127.236.1.354.148a271.208 271.208 0 002.316.928c1.4.544 2.81 1.05 4.226 1.548 4.597 1.61 9.263 3.006 14.091 3.73zm269.041-330.901s1.837 2.8 2.64 4.267a51.923 51.923 0 013.9 9.18c1.395 4.394 2.361 8.943 2.768 13.537.284 3.214-.124 6.555 2.457 8.988 3.368 3.176 10.423 4.104 14.69 6.053 13.098 5.984 26.311 16.618 26.08 32.31-.207 13.927-8.509 24.695-18.808 33.206-5.194 4.292-11.594 7.548-16.486 12.096-2.616 2.43-3.786 6.956-5.068 10.199-8.487 21.476-12.067 44.628-13.71 67.552-1.262 17.603-.277 34.624-5.897 51.558-6.329 19.068-18.555 36.887-35.442 48.048-9.06 5.988-19.378 9.907-29.025 14.832-6.218 3.175-12.348 6.5-18.33 10.102a267.22 267.22 0 00-6.079 3.768c-1.174.75-2.91 3.542-3.503 2.28-.7-1.492-.24-3.29-.36-4.933-.746-10.166-1.444-20.35-2.243-30.513-2.354-29.915-7.599-63.467-.393-93.164 2.656-10.943 7.677-20.478 15.518-28.62 3.342-3.471 9.763-6.721 12.19-10.603 1.515-2.426 2.846-6.256-1.386-7.104-2.566-.515-5.586 1.969-7.632 3.264-6.376 4.034-12.392 8.567-17.695 13.95-26.559 26.966-20.928 67.195-21.555 101.538-.025 1.404-2.73.653-4.088 1.016-4.465 1.196-9.004 2.11-13.593 2.68-20.342 2.529-39.633-3.27-56.558-14.554-20.566-13.714-37.04-32.97-53.774-50.892-7.185-7.694-14.669-17.625-23.378-23.65-3.297-2.28-7.694-3.198-11.372-4.617a422.559 422.559 0 01-19.958-8.288 324.394 324.394 0 01-19.38-9.393c-25.129-13.26-56.623-33.02-64.28-62.741-3.137-12.172-.86-24.671 4.478-35.871 3.337-7.003 7.71-12.847 10.18-20.202 2.112-6.291.706-17.674 5.964-22.076 3.87-3.24 9.802-4.328 14.412-5.888 10.842-3.671 21.787-7.055 32.85-10.001 69.766-18.58 142.572-19.794 210.872 5.458a364.086 364.086 0 0125.328 10.466c.767.35 7.074 2.38 7.18 2.673 1.421 3.954 1.588 8.773 2.761 12.883 2.148 7.522 5.301 14.696 8.121 21.968 1.142 2.942 3.67 10.733 7.641 10.942 3.666.192 2.406-3.91 1.762-5.775-2.103-6.094-3.916-12.28-5.172-18.607-3.168-15.958-5.224-35.91 3.825-50.413 8.61-13.8 25.863-16.925 40.436-11.594a40.309 40.309 0 0113.7 8.398 38.523 38.523 0 013.734 4.044c.585.728 1.678 2.243 1.678 2.243zm-348.018 288.67c1.892 6.712 5.051 12.988 8.876 18.802a104.993 104.993 0 004.032 5.685c.17.225.937 1.203.936 1.203-.067.269-.532-.156-.797-.236a105.607 105.607 0 01-8.018-2.789c-7.577-3.002-14.793-7.116-21.264-12.067a90.032 90.032 0 01-5.212-4.299c-.123-.11-.503-.238-.367-.33.867-.581 3.804-.7 4.768-.897a104.44 104.44 0 009.941-2.552 98.15 98.15 0 004.516-1.524c.566-.207.878-.324 1.44-.541.384-.15 1.15-.454 1.15-.454zm43.132-31.675c-.515 2.624-.184 5.32.586 7.864.233.772.497 1.534.79 2.285.087.222.298.73.393.953.044.104.247.295.135.31-.293.045-.577-.133-.866-.202a56.225 56.225 0 01-1.886-.496 38.738 38.738 0 01-5.553-1.991 32.487 32.487 0 01-1.835-.903c-.108-.057-.387-.073-.32-.176.26-.405.706-.653 1.06-.98.545-.503 1.091-1.007 1.64-1.507a194.78 194.78 0 015.856-5.157zm18.55-14.133c-.035.138-.07.276-.1.415a21.87 21.87 0 00-.23 1.207 26.394 26.394 0 00-.28 2.806c-.099 1.917-.018 3.845.154 5.756.03.32.128 1.263.166 1.592.034.289.196.588.108.865-.037.116-.233-.072-.348-.111-.298-.101-.618-.16-.886-.325-.037-.023.085.036.13.034.053-.003-.09-.062-.136-.091-.32-.208-.643-.41-.96-.62-1.078-.713-2.109-1.493-3.178-2.22-.832-.566-1.717-1.118-2.629-1.551-.365-.173-.733-.34-1.116-.47-.142-.048-.542-.025-.432-.128 1.854-1.722 4.15-3.145 6.202-4.631a387.628 387.628 0 012.951-2.116l.584-.412zm18.501-11.806c-.012.138-.023.276-.032.415a25.554 25.554 0 00-.017 2.487c.08 1.837.29 3.658.551 5.476a99.338 99.338 0 00.555 3.333c.025.133.206.356.078.399-.16.053-.283-.188-.423-.284a20 20 0 01-.933-.68c-1.268-.993-2.32-2.306-3.478-3.42-.867-.834-1.8-1.616-2.829-2.245a10.68 10.68 0 00-1.038-.561c-.13-.062-.408-.027-.399-.172.01-.168.284-.181.426-.27a158.634 158.634 0 017.539-4.478zm119.793-176.275c21.773.705 32.173 20.37 38.832 38.66 1.757 4.828 3.553 9.66 5.007 14.592.498 1.686 1.667 4.035-.07 5.422-3.465 2.763-5.843-4.685-6.887-6.508-3.917-6.838-9.744-15.848-18.307-16.948-8.209-1.054-15.835 3.932-24.063 2.44-9.447-1.712-16.058-9.848-25.45-12.065-3.827-.902-17.285.384-18.615-4.006-1.216-4.015 4.467-6.171 7.193-7.75 9.302-5.388 19.19-9.867 29.697-12.294 2.663-.615 5.333-1.073 8.056-1.32 1.531-.137 4.607-.223 4.607-.223zm-4.768 14.367s-1.08.009-1.62.03c-1.25.05-2.5.078-3.75.166-3.915.278-7.765.954-11.598 1.776-1.564.336-3.122.683-4.67 1.083-.394.102-1.123-.09-1.178.312 0 .007 1.256.292 1.333.312a37.17 37.17 0 013.015.886c2.803.959 5.443 2.3 7.998 3.79 4.06 2.366 9.287 6.177 13.638 6.328 6.235.217 12.256-2.046 18.56-1.43a23.65 23.65 0 018.003 2.223c.706.34 2.411 1.895 3.091 1.895.517 0-.608-.835-.917-1.25-.36-.481-.73-.956-1.104-1.427-1.468-1.855-3.043-3.635-4.744-5.28-4.517-4.363-10.11-7.875-16.445-8.648-2.034-.248-4.04-.507-6.088-.65-1.173-.08-3.524-.116-3.524-.116zm-127.67-11.943s-.703 1.032-1.227 1.329c-.802.454-1.61.897-2.436 1.307-3.19 1.584-6.492 2.909-9.93 3.85-10.37 2.842-19.513.958-28.61-4.638-2.473-1.521-4.892-3.13-7.336-4.698-.225-.144-3.736-1.847-3.362-2.693.421-.955 3.76.562 4.251.698 4.1 1.129 8.253 1.8 12.456 2.4 7.865 1.127 16.122 3.423 24.047 3.644 2.724.076 5.432-.07 8.101-.647.858-.186 2.35-.911 3.228-.852.29.019.561.164.817.3zM432.948 82.16s-1.235 1.335-1.847 2.007a354.96 354.96 0 00-2.962 3.283 324.763 324.763 0 00-9.62 11.307c-6.683 8.242-12.928 16.862-18.358 25.985-1.918 3.222-3.194 7.188-5.159 10.227-.373.578-1.303-.437-1.956-.654a342.044 342.044 0 00-7.2-2.293 362.272 362.272 0 00-8.308-2.437c-.507-.142-1.568.105-1.524-.42.58-6.857 4.08-14.593 6.7-20.865 8.06-19.303 20.123-36.958 34.288-52.288 4.645-5.026 9.512-9.852 14.748-14.263.77-.647 3.787-3.776 4.734-3.652.136.018.203 2.596.21 2.72.161 3.022.092 6.06-.042 9.08-.309 6.966-1.046 13.916-1.975 20.825a370.88 370.88 0 01-1.09 7.489c-.205 1.318-.639 3.949-.639 3.949zm76.338 43.568s-2.65-2.024-4.045-2.94a54.397 54.397 0 00-8.822-4.68c-9.324-3.91-19.793-5.505-29.806-3.777-5.985 1.032-11.756 3.162-16.869 6.463-1.632 1.054-3.17 2.236-4.643 3.5-.757.652-2.607 2.953-2.19 2.046 10.524-22.91 26.483-44.06 43.331-62.663 4.158-4.593 8.506-9.03 13.103-13.184 1.157-1.046 3.56-3.874 5.163-4.3.166-.045 1.254 3.84 1.394 4.368 1.353 5.095 2.117 10.318 2.67 15.553 1.394 13.23 1.618 26.62 1.434 39.91-.057 4.1-.199 8.202-.367 12.3-.029.693-.153 3.5-.186 4.2a878.5 878.5 0 01-.167 3.204z" />
  <path class="background" d="M456.84 45.067c.234-5.913.012-12.988-2.032-17.914-2.68-6.466-7.49-10.616-14.893-11.106-5.596-.37-11.327 2.491-15.769 5.437-7.309 4.848-13.959 10.794-20.333 16.781-17.36 16.306-33.723 34.15-47.87 53.328-4.643 6.294-8.198 13.653-12.519 20.218a330.97 330.97 0 00-9.657-1.443c-16.325-2.202-32.809-3.212-49.28-3.09-40.806.302-81.334 7.513-120.379 19.136-15.09 4.492-35.218 8.448-47.189 19.738-6.268 5.91-9.01 12.79-10.674 20.165-1.137 5.039-1.602 10.359-3.536 15.44-3.239 8.512-8.969 15.87-12.133 24.543-8.483 23.253-6.342 48.14 5.893 69.624 6.446 11.318 15.13 21.263 24.798 29.94-4.42 2.62-8.753 5.412-13.182 7.989-11.757 6.84-23.885 13.522-36.396 18.897-8.67 3.725-20.79 5.893-30.564 10.37-13.453 6.162-23.172 15.859-22.144 33.812.27 4.716 1.395 9.336 3.216 13.689 2.15 5.138 5.158 9.874 8.676 14.18 5.531 6.773 12.307 12.687 19.73 17.303 3.486 2.168 7.518 3.368 10.825 5.808 4.652 3.432 8.11 7.227 11.897 10.59 5 4.442 10.447 8.276 18.188 10.688 7.007 2.183 14.355 3.12 21.68 3.173 1.095.008 3.736-.266 5.475-.464 1.056 1.076 2.595 2.607 3.438 3.296 5.081 4.154 10.52 7.827 16.22 11.074 11.296 6.437 23.44 10.98 36.091 13.91 2.98.69 7.685 2.085 11.592 2.079 3.435-.005 6.511-.875 8.972-2.467 1.724-1.116 3.028-2.328 4.006-3.59l.402 1.327c3.254 10.634 8.875 20.355 17.12 27.903 2.154 1.973 4.841 3.356 7.161 5.073.34.979.751 2.1.99 2.543 2.47 4.574 6.571 8.24 11.392 10.172 5.428 2.176 11.318 2.099 17.287.663 5.711-1.374 11.513-4.264 16.556-5.316 9.626-2.008 19.607-1.055 28.857-1.922 12.33-1.155 23.538-4.913 32.498-16.817 6.328-8.407 11.27-18.622 16.944-28.233 4.446-7.531 9.31-14.735 16.496-19.565 1.737-.037 7.87-.193 9.864-.505a20.02 20.02 0 001.488-.312l1.004 19.133c.162 3.09.321 6.182.484 9.274.202 3.839-.172 9.56.62 14.67.845 5.457 2.94 10.306 6.427 13.7 7.296 7.103 14.601 7.054 21.6 4.138 4.178-1.741 8.27-5.055 11.901-7.692 4.393-3.19 8.941-6.163 13.584-8.983l-.12.156c-1 1.29-3.977 4.765-4.935 7.547-1.628 4.726-.66 8.969 2.62 12.292 1.924 1.95 4.648 3.36 8.157 3.609 4.04.285 10.945-2.178 13.31-2.93a103.907 103.907 0 0010.097-3.77c-3.339 6.207-7.154 12.166-11.097 18.013-2.78 4.12-5.675 8.16-8.478 12.264-.908 1.329-3.585 5.893-3.764 8.77-.168 2.715.57 5.105 1.987 7.115 1.27 1.799 3.166 3.504 6.31 4.35 1.975.532 4.235.58 6.581.009 1.967-.478 4.163-1.608 5.597-2.265 5.697-2.611 11.122-5.848 16.351-9.29 16.138-10.623 29.18-23.794 39.49-39.438-1.8 10.828-4.293 21.537-7.548 31.999-2.6 8.36-5.674 16.594-9.376 24.53-1.464 3.14-2.994 6.252-4.647 9.296-.303.558-1.493 3.52-1.716 5.907-.27 2.893.536 5.36 1.476 6.93 1.304 2.18 3.155 3.663 5.477 4.477 1.96.688 5.44 1.592 9.994-1.551 5.556-3.835 10.506-10.136 15.195-15.05 11.27-11.808 21.874-24.245 31.695-37.286 49.396-65.586 77.181-148.75 63.082-231.041-3.8-22.182-10.625-43.92-20.688-64.07a193.842 193.842 0 00-10.335-18.191c-.89-1.385-2.966-4.08-3.992-5.396.281-1.946.805-5.887.725-7.545-.437-8.96-3.638-17.584-8.61-24.988-6.482-9.65-16.013-16.915-26.137-22.37-1.54-.83-5.158-2.201-7.677-3.115a10.12 10.12 0 00-.074-.693c-.829-5.07-2.08-10.077-3.798-14.92-1.679-4.736-3.778-9.345-6.376-13.652-.266-.44-1.137-1.6-1.864-2.547.295-5.965 1.734-12.16 2.263-18.046 1.57-17.453 2.886-35.014 2.313-52.55-.37-11.376-.924-24.98-7.386-34.892-7.014-10.758-16.496-12.765-26.469-10.357-10.186 2.46-21.272 11.198-28.144 16.51a294.495 294.495 0 00-8.202 6.585 340.36 340.36 0 00-6.11 5.209zm-12.846 25.665s1.42-1.412 2.132-2.113A391.644 391.644 0 01459.94 55.66a357.265 357.265 0 019.404-8.113 282.914 282.914 0 017.923-6.363c9.991-7.722 29.703-24.58 40.12-8.602 5.492 8.424 5.453 20.088 5.77 29.757.558 17.128-.748 34.28-2.28 51.327-.636 7.077-2.449 14.584-2.352 21.66.015 1.108 2.716 3.944 3.35 4.995 2.251 3.73 4.06 7.726 5.514 11.828 1.518 4.28 2.621 8.71 3.354 13.192.184 1.128-.013 4.81.708 5.594 2.193 2.385 9.063 3.73 12.168 5.403 8.712 4.694 17.002 10.84 22.578 19.142 3.965 5.903 6.576 12.758 6.924 19.9.13 2.638-1.46 7.513-.69 9.789.91 2.688 3.974 5.646 5.533 8.072a183.499 183.499 0 019.801 17.252c9.626 19.275 16.144 40.072 19.78 61.29 13.631 79.569-13.454 159.92-61.215 223.337-9.587 12.73-19.939 24.87-30.94 36.399-4.244 4.445-8.615 10.253-13.643 13.723-2.275 1.57-.976-2.365-.76-2.762 1.75-3.223 3.37-6.516 4.92-9.84 3.891-8.344 7.128-16.998 9.862-25.787 6.753-21.71 10.367-44.435 11.373-67.13.25-5.633.345-11.281.191-16.92-.05-1.831.458-5.225-.324-6.933-.512-1.118-.583 2.39-.897 3.58a160.832 160.832 0 01-2.43 8.3c-2.593 8.057-5.82 15.893-9.579 23.474-10.563 21.31-25.393 38.626-45.324 51.745-4.805 3.163-9.782 6.152-15.018 8.552-1.403.642-3.793 2.127-5.412 1.69-2.379-.64.544-4.088 1.124-4.938 2.815-4.12 5.721-8.175 8.511-12.312 6.933-10.28 13.445-20.907 17.98-32.485 1.46-3.728 2.787-7.51 3.92-11.35.38-1.285.743-2.574 1.083-3.871.01-.035.444-1.706.432-1.704-3.038.6-8.116 6.928-10.732 8.818-6.977 5.04-14.809 8.629-22.998 11.226-2.147.682-9.314 3.866-11.326 1.827-1.765-1.788 2.184-5.505 3.1-6.684 5.16-6.651 10.168-13.406 13.906-20.977 1.17-2.37 2.267-4.773 3.186-7.251.425-1.144 2.334-3.486 1.113-3.488-3.234-.005-9.957 5.02-12.893 6.579-11.2 5.95-22.279 12.282-32.553 19.743-6.07 4.408-13.368 11.569-20.649 4.48-5.07-4.935-3.723-15.771-4.037-21.732-.163-3.09-.322-6.18-.484-9.27l-1.04-19.832-.46-8.836c-.037-.708.572-1.933-.11-2.124-2.696-.751-9.457 2.15-12.414 2.614-3 .47-10.155-.277-12.576 1.229-18.262 11.356-24.944 34.696-37.172 50.94-13.963 18.552-35.41 10.792-55.407 14.964-8.55 1.783-19.27 8.69-28.08 5.16a12.552 12.552 0 01-6.313-5.64c-.46-.852-.887-3.355-1.504-3.918-2.586-2.364-6.045-3.897-8.695-6.323-6.919-6.335-11.579-14.53-14.31-23.455-1.252-4.09-4.855-13.894-.185-16.961 3.425-2.25 8.178 1.162 11.513 2.326 8.348 2.912 17.986 5.109 26.716 4.84.752-.022 3.9-4.368 4.461-4.948 4.473-4.625 9.403-8.778 14.632-12.522 8.045-5.761 16.483-11.212 23.915-17.786 1.918-1.697 5.54-4.176 6.68-6.56.023-.047-4.844-3.483-5.2-3.751-4.523-3.4-8.874-7.032-13.083-10.813-6.752-6.065-13.174-12.484-19.448-19.04-2.373-2.48-5.62-7.597-8.556-9.076-.527-.265-.113 1.174-.145 1.763a44.479 44.479 0 00-.047 3.387c.08 3.576 2.525 10.653-.953 13.104-5.634 3.97-13.095-3.884-18.05-4.742-.125-.022-.578 3.337-.6 3.553-.33 3 .963 8.279-1.066 10.71-2.372 2.844-8.896 2.452-12.108 1.708-.783-.182-3.417-1.574-4.035-1.38-.225.072.698 3.338.828 3.77.905 3.018 4.037 6.852 1.244 9.714-1.72 1.763-3.976 1.134-6.145 1.034-5.619-.257-11.282-.99-16.69-2.565-.978-.285-6.022-2.905-6.637-2.63-3.43 1.54-6.845 5.622-10.028 7.784-1.226.834-3.948 1.85-4.795 3.054-.922 1.309 1.52 7.215 1.99 8.58 2.864 8.323 7.855 16.034 13.533 22.715 2.543 2.99 8.294 8.007 2.857 11.526-3.225 2.086-9.444-.162-12.875-.957-11.705-2.711-22.946-6.902-33.399-12.858-5.213-2.97-10.19-6.326-14.838-10.126-1.815-1.484-4.055-4.587-6.15-5.455-1.988-.823-6.775.38-9.023.364-6.342-.045-12.709-.83-18.777-2.721-12.392-3.861-17.29-12.522-27.12-19.776-3.52-2.597-7.774-3.947-11.484-6.254-6.494-4.038-12.426-9.21-17.265-15.136-2.909-3.561-5.418-7.465-7.196-11.715-1.384-3.308-2.252-6.817-2.457-10.4-1.484-25.897 29.458-27.028 46.672-34.423 12.88-5.533 25.373-12.4 37.478-19.442 6.816-3.967 13.386-8.473 20.446-12.003.701-.35 5.69-2.323 5.73-2.752.027-.3-2.423-1.853-2.73-2.094a168.398 168.398 0 01-7.626-6.337c-9.264-8.176-17.642-17.563-23.776-28.335-10.764-18.9-12.65-40.792-5.189-61.248 3.148-8.63 8.862-15.944 12.085-24.412 4.213-11.071 2.397-23.091 11.725-31.888 10.898-10.278 29.443-13.34 43.181-17.43 38.145-11.354 77.734-18.424 117.6-18.72 16-.118 32.011.863 47.87 3 4.032.545 8.057 1.158 12.066 1.855 1.13.197 2.671 1.502 3.383.604 6.074-7.65 10.248-17.26 16.111-25.207 13.79-18.692 29.746-36.081 46.668-51.974 5.968-5.607 12.172-11.199 19.015-15.738 2.743-1.82 6.123-4.022 9.58-3.792 10.667.707 7.537 20.74 6.993 26.923a229.363 229.363 0 01-.749 7.122 274.385 274.385 0 01-.915 6.822 455.04 455.04 0 01-.589 3.84zM238.815 476.379s-.545.947-.808 1.425a68.096 68.096 0 00-1.744 3.375 61.443 61.443 0 00-2.585 6.23c-.27.772-.428 2.516-.964 3.085-.225.239-.55-.357-.822-.542a52.903 52.903 0 01-.77-.538 30.228 30.228 0 01-3.497-2.901c-3.587-3.467-6.386-7.7-8.313-12.29-.473-1.126-1.572-3.015-1.484-4.198.01-.127.236.1.354.148a271.208 271.208 0 002.316.928c1.4.544 2.81 1.05 4.226 1.548 4.597 1.61 9.263 3.006 14.091 3.73zm269.041-330.901s1.837 2.8 2.64 4.267a51.923 51.923 0 013.9 9.18c1.395 4.394 2.361 8.943 2.768 13.537.284 3.214-.124 6.555 2.457 8.988 3.368 3.176 10.423 4.104 14.69 6.053 13.098 5.984 26.311 16.618 26.08 32.31-.207 13.927-8.509 24.695-18.808 33.206-5.194 4.292-11.594 7.548-16.486 12.096-2.616 2.43-3.786 6.956-5.068 10.199-8.487 21.476-12.067 44.628-13.71 67.552-1.262 17.603-.277 34.624-5.897 51.558-6.329 19.068-18.555 36.887-35.442 48.048-9.06 5.988-19.378 9.907-29.025 14.832-6.218 3.175-12.348 6.5-18.33 10.102a267.22 267.22 0 00-6.079 3.768c-1.174.75-2.91 3.542-3.503 2.28-.7-1.492-.24-3.29-.36-4.933-.746-10.166-1.444-20.35-2.243-30.513-2.354-29.915-7.599-63.467-.393-93.164 2.656-10.943 7.677-20.478 15.518-28.62 3.342-3.471 9.763-6.721 12.19-10.603 1.515-2.426 2.846-6.256-1.386-7.104-2.566-.515-5.586 1.969-7.632 3.264-6.376 4.034-12.392 8.567-17.695 13.95-26.559 26.966-20.928 67.195-21.555 101.538-.025 1.404-2.73.653-4.088 1.016-4.465 1.196-9.004 2.11-13.593 2.68-20.342 2.529-39.633-3.27-56.558-14.554-20.566-13.714-37.04-32.97-53.774-50.892-7.185-7.694-14.669-17.625-23.378-23.65-3.297-2.28-7.694-3.198-11.372-4.617a422.559 422.559 0 01-19.958-8.288 324.394 324.394 0 01-19.38-9.393c-25.129-13.26-56.623-33.02-64.28-62.741-3.137-12.172-.86-24.671 4.478-35.871 3.337-7.003 7.71-12.847 10.18-20.202 2.112-6.291.706-17.674 5.964-22.076 3.87-3.24 9.802-4.328 14.412-5.888 10.842-3.671 21.787-7.055 32.85-10.001 69.766-18.58 142.572-19.794 210.872 5.458a364.086 364.086 0 0125.328 10.466c.767.35 7.074 2.38 7.18 2.673 1.421 3.954 1.588 8.773 2.761 12.883 2.148 7.522 5.301 14.696 8.121 21.968 1.142 2.942 3.67 10.733 7.641 10.942 3.666.192 2.406-3.91 1.762-5.775-2.103-6.094-3.916-12.28-5.172-18.607-3.168-15.958-5.224-35.91 3.825-50.413 8.61-13.8 25.863-16.925 40.436-11.594a40.309 40.309 0 0113.7 8.398 38.523 38.523 0 013.734 4.044c.585.728 1.678 2.243 1.678 2.243zm-348.018 288.67c1.892 6.712 5.051 12.988 8.876 18.802a104.993 104.993 0 004.032 5.685c.17.225.937 1.203.936 1.203-.067.269-.532-.156-.797-.236a105.607 105.607 0 01-8.018-2.789c-7.577-3.002-14.793-7.116-21.264-12.067a90.032 90.032 0 01-5.212-4.299c-.123-.11-.503-.238-.367-.33.867-.581 3.804-.7 4.768-.897a104.44 104.44 0 009.941-2.552 98.15 98.15 0 004.516-1.524c.566-.207.878-.324 1.44-.541.384-.15 1.15-.454 1.15-.454zm98.64-30.924a13.627 13.627 0 01-3.466 3.514c-4.61 3.249-9.717 3.65-14.934 2.06-.577 2.2-1.555 4.125-2.865 5.695-1.914 2.293-4.68 4.056-8.062 4.993-.808.224-1.662.395-2.539.518-.127 3.132-1.302 6.12-3.992 8.877-3.959 4.057-8.767 4.268-13.759 4.04-6.407-.294-12.86-1.158-19.029-2.954-.325-.094-1.343-.516-2.457-.995l-.825.768c-1.404 1.258-2.804 2.478-4.164 3.48l.228.68c2.463 7.156 6.816 13.748 11.698 19.493.875 1.029 2.001 2.27 3.075 3.612 1.07-3.23 3.05-5.858 5.89-7.723 3.761-2.471 8.044-2.944 12.49-1.83 2.72.68 5.565 2.29 7.805 3.072 5.986 2.088 12.724 3.817 19.158 4.214.696-.85 1.36-1.648 1.538-1.832 4.892-5.058 10.28-9.606 15.998-13.701 6.996-5.01 14.316-9.753 20.94-15.286a212.29 212.29 0 01-9.489-8.054c-4.54-4.08-8.937-8.313-13.239-12.641zm158.347 53.053c-.457-6.353-.917-12.707-1.416-19.053-2.274-28.907-7.607-61.326-.644-90.022 2.23-9.187 6.42-17.205 13.003-24.041 1.724-1.791 4.456-3.442 6.772-5.254 2.797-2.19 5.183-4.568 6.694-6.987 2.993-4.79 3.827-11.762 1.107-16.19-1.573-2.557-4.179-5.05-9.006-6.018-2.419-.485-4.98-.3-7.535.556-2.648.887-5.409 2.796-7.409 4.062-7.023 4.443-13.633 9.455-19.473 15.385-14.942 15.17-21.076 33.964-23.315 53.903-1.733 15.428-1.083 31.543-1.06 46.822a87.595 87.595 0 01-8.97 1.603c-17.915 2.226-34.87-3.014-49.777-12.952-19.926-13.287-35.8-32.034-52.013-49.397-7.646-8.187-15.73-18.638-24.999-25.05-3.929-2.717-9.078-4.03-13.46-5.721a412.82 412.82 0 01-19.487-8.093 315.078 315.078 0 01-18.785-9.103c-22.885-12.077-52.289-29.324-59.263-56.392-2.545-9.874-.508-19.99 3.822-29.074 3.515-7.376 8.032-13.575 10.633-21.322 1.038-3.091 1.502-7.165 1.957-11.31.181-1.644.371-3.303.718-4.836.12-.53.423-1.375.541-1.693 2.973-2.262 7.478-2.682 10.886-3.836 10.634-3.6 21.367-6.92 32.217-9.81 67.767-18.047 138.49-19.352 204.831 5.176a354.09 354.09 0 0124.632 10.178c.28.128 1.58.603 2.976 1.104.493 2.712.785 5.555 1.513 8.105 2.232 7.817 5.483 15.283 8.414 22.84 1.064 2.743 3.276 8.529 6.176 11.922 2.917 3.413 6.541 5.193 10.264 5.389 3.443.18 5.88-.797 7.68-1.984 2.806-1.85 4.555-4.573 5.146-7.971.498-2.863-.293-6.768-1.087-9.068-1.955-5.664-3.649-11.412-4.816-17.292-2.71-13.65-5.24-30.768 2.5-43.173 6.035-9.673 18.302-11.232 28.517-7.496a30.354 30.354 0 0110.312 6.319 28.379 28.379 0 012.762 2.996c.362.45.96 1.27 1.226 1.64l.012.017c.383.584 1.543 2.367 2.101 3.387a41.894 41.894 0 013.143 7.409c1.174 3.698 1.995 7.525 2.338 11.392.5 5.64 1.028 11.11 5.558 15.382 2.24 2.112 5.358 3.81 8.871 5.075 2.901 1.044 6.18 1.728 8.524 2.798 9.68 4.422 20.407 11.47 20.235 23.067-.16 10.875-7.136 18.999-15.178 25.645-5.34 4.414-11.894 7.803-16.925 12.48-3.623 3.368-5.784 9.355-7.559 13.848-8.86 22.42-12.669 46.579-14.384 70.512-1.202 16.764-.062 32.996-5.414 49.123-5.636 16.98-16.427 32.917-31.464 42.855-8.75 5.783-18.743 9.513-28.059 14.269-4.925 2.514-9.795 5.122-14.583 7.879zM202.97 402.473c-.515 2.624-.184 5.32.586 7.864.233.772.497 1.534.79 2.285.087.222.298.73.393.953.044.104.247.295.135.31-.293.045-.577-.133-.866-.202a56.225 56.225 0 01-1.886-.496 38.738 38.738 0 01-5.553-1.991 32.487 32.487 0 01-1.835-.903c-.108-.057-.387-.073-.32-.176.26-.405.706-.653 1.06-.98.545-.503 1.091-1.007 1.64-1.507a194.78 194.78 0 015.856-5.157zm-1.948 2.17a7.947 7.947 0 00-.518.235l1.391.82-.406-.505-.467-.55zm19.914-12.312l-.027.437c-.098 1.917-.017 3.845.155 5.756.03.32.128 1.263.166 1.592.034.289.196.588.108.865-.037.116-.233-.072-.348-.111-.298-.101-.618-.16-.886-.325-.037-.023.085.036.13.034.053-.003-.09-.062-.136-.091-.32-.208-.643-.41-.96-.62-1.078-.713-2.109-1.493-3.178-2.22-.832-.566-1.717-1.118-2.629-1.551a13.067 13.067 0 00-.592-.267l1.841-.816 2.21-.948 4.146-1.735zm-8.234 3.485l-.487-.19c-.142-.047-.542-.024-.432-.127 1.854-1.722 4.15-3.145 6.202-4.631a387.628 387.628 0 012.951-2.116l.584-.412c-.035.138-.07.276-.1.415a21.138 21.138 0 00-.377 2.326 3.265 3.265 0 00-.52-.026l.27.297c.105.15.095.128.186.298l.006.018-.033.396-.005.088-1.427-.984c.296-.05.596-.085.9-.111l.103-.002-.058-.064-.413-.385-.406-.01c-.29.017-.57.044-.835.082l.71.49c-2.83.43-5.263 1.746-6.819 4.648zm27.482-13.592c.094.898.21 1.794.34 2.688a99.338 99.338 0 00.554 3.333c.025.133.206.356.078.399-.16.053-.283-.188-.423-.284a20 20 0 01-.933-.68c-1.268-.993-2.32-2.306-3.478-3.42-.867-.834-1.8-1.616-2.829-2.245a10.68 10.68 0 00-1.038-.561c-.13-.062-.408-.027-.399-.172.01-.168.284-.181.426-.27a158.634 158.634 0 017.539-4.478c-.012.138-.023.276-.032.415a22.432 22.432 0 00-.028 2c-.718-.041-1.39.015-1.968.208a10.83 10.83 0 00-1.556.649l3.747 2.418zm119.954-191.96a9.419 9.419 0 00-.606-.001s-3.487.104-5.223.26c-3.18.288-6.299.817-9.408 1.535-11.478 2.65-22.299 7.5-32.46 13.386-2.238 1.296-5.799 3.087-8.038 5.332-3.762 3.77-5.39 8.428-3.712 13.97 1.02 3.367 3.41 6.34 7.483 8.207 2.565 1.175 6.29 1.918 10.182 2.214 3.255.248 6.676.053 8.222.418 4.61 1.088 8.28 4.152 12.245 6.545 4.273 2.58 8.722 4.72 13.72 5.627 4.604.835 9.082.368 13.523-.576 3.668-.78 7.255-2.272 11.05-1.785 1.976.254 3.453 1.715 4.845 3.212 2.485 2.673 4.444 5.97 6.058 8.787.563.984 1.517 3.434 2.754 5.34 1.252 1.93 2.761 3.508 4.286 4.568 2.247 1.56 4.694 2.28 7.217 2.236 2.355-.043 4.937-.711 7.541-2.79 3.434-2.737 4.714-6.171 4.684-9.917-.016-2.04-.722-4.338-1.256-6.151-1.514-5.13-3.374-10.16-5.203-15.183-8.006-21.99-21.724-44.385-47.904-45.234zm-.324 9.995c21.773.705 32.173 20.37 38.832 38.66 1.757 4.828 3.553 9.66 5.007 14.592.498 1.686 1.667 4.035-.07 5.422-3.465 2.763-5.843-4.685-6.887-6.508-3.917-6.838-9.744-15.848-18.307-16.948-8.209-1.054-15.835 3.932-24.063 2.44-9.447-1.712-16.058-9.848-25.45-12.065-3.827-.902-17.285.384-18.615-4.006-1.216-4.015 4.467-6.171 7.193-7.75 9.302-5.388 19.19-9.867 29.697-12.294 2.663-.615 5.333-1.073 8.056-1.32 1.531-.137 4.607-.223 4.607-.223zm-4.768 14.367s-1.08.009-1.62.03c-1.25.05-2.5.078-3.75.166-3.915.278-7.765.954-11.598 1.776-1.564.336-3.122.683-4.67 1.083-.394.102-1.123-.09-1.178.312 0 .007 1.256.292 1.333.312a37.17 37.17 0 013.015.886c2.803.959 5.443 2.3 7.998 3.79 4.06 2.366 9.287 6.177 13.638 6.328 6.235.217 12.256-2.046 18.56-1.43a23.65 23.65 0 018.003 2.223c.706.34 2.411 1.895 3.091 1.895.517 0-.608-.835-.917-1.25-.36-.481-.73-.956-1.104-1.427-1.468-1.855-3.043-3.635-4.744-5.28-4.517-4.363-10.11-7.875-16.445-8.648-2.034-.248-4.04-.507-6.088-.65-1.173-.08-3.524-.116-3.524-.116zm-182.525-6.322c2.47 1.584 4.914 3.207 7.412 4.744 11.595 7.134 23.273 9.388 36.492 5.767 4.061-1.113 7.964-2.668 11.734-4.54.99-.49 1.96-1.02 2.92-1.563 1.84-1.042 4.563-4.401 4.563-4.401a10 10 0 00-3.563-14.452c-1.49-.795-3.169-1.341-4.854-1.454-1.386-.093-4.86.758-6.038 1.06-1.87.404-3.77.474-5.679.42-7.554-.21-15.413-2.472-22.91-3.545-3.783-.541-7.525-1.126-11.214-2.143.137.038.598.189.598.189s-5.694-1.703-7.83-1.514c-4.615.407-7.395 2.987-8.826 6.23-1.009 2.286-1.235 4.796-.34 7.48.45 1.349 1.331 3.016 2.92 4.55 1.075 1.038 3.573 2.558 4.615 3.172zm54.854-5.621s-.702 1.032-1.226 1.329c-.802.454-1.61.897-2.436 1.307-3.19 1.584-6.492 2.909-9.93 3.85-10.37 2.842-19.513.958-28.61-4.638-2.473-1.521-4.892-3.13-7.336-4.698-.225-.144-3.736-1.847-3.362-2.693.421-.955 3.76.562 4.251.698 4.1 1.129 8.253 1.8 12.456 2.4 7.865 1.127 16.122 3.423 24.047 3.644 2.724.076 5.432-.07 8.101-.647.858-.186 2.35-.911 3.228-.852.29.019.561.164.817.3zM432.95 82.16s-1.235 1.335-1.847 2.007a354.96 354.96 0 00-2.962 3.283 324.763 324.763 0 00-9.62 11.307c-6.683 8.242-12.928 16.862-18.358 25.985-1.918 3.222-3.194 7.188-5.159 10.227-.373.578-1.303-.437-1.956-.654a342.044 342.044 0 00-7.2-2.293 362.272 362.272 0 00-8.308-2.437c-.507-.142-1.568.105-1.524-.42.58-6.857 4.08-14.593 6.7-20.865 8.06-19.303 20.123-36.958 34.288-52.288 4.645-5.026 9.512-9.852 14.748-14.263.77-.647 3.787-3.776 4.734-3.652.136.018.203 2.596.21 2.72.161 3.022.092 6.06-.042 9.08-.309 6.966-1.046 13.916-1.975 20.825a370.88 370.88 0 01-1.09 7.489c-.205 1.318-.639 3.949-.639 3.949zm76.338 43.568s-2.65-2.024-4.045-2.94a54.397 54.397 0 00-8.822-4.68c-9.324-3.91-19.793-5.505-29.806-3.777-5.985 1.032-11.756 3.162-16.869 6.463-1.632 1.054-3.17 2.236-4.643 3.5-.757.652-2.607 2.953-2.19 2.046 10.524-22.91 26.483-44.06 43.331-62.663 4.158-4.593 8.506-9.03 13.103-13.184 1.157-1.046 3.56-3.874 5.163-4.3.166-.045 1.254 3.84 1.394 4.368 1.353 5.095 2.117 10.318 2.67 15.553 1.394 13.23 1.618 26.62 1.434 39.91-.057 4.1-.199 8.202-.367 12.3-.029.693-.153 3.5-.186 4.2a878.5 878.5 0 01-.167 3.204zm-83.542-64.425a280.368 280.368 0 01-.978 8.086 365.272 365.272 0 01-1.06 7.288l-.15.923a335.504 335.504 0 00-12.806 14.859c-6.985 8.616-13.506 17.632-19.182 27.168-.599 1.006-1.13 2.089-1.636 3.195l-1.15-.36-.946-.286c1.226-3.496 2.822-6.952 4.104-10.022 7.613-18.227 19.031-34.88 32.407-49.355l1.397-1.496zm72.676 3.998c.072.62.141 1.24.206 1.862 1.354 12.836 1.56 25.829 1.381 38.723l-.054 2.864c-10.355-4.282-21.889-6.094-33.034-4.581 8.033-11.996 17.247-23.302 26.735-33.78a200.64 200.64 0 014.766-5.088z" />
</svg>
