<svg viewBox="0 0 600 600" xmlns="http://www.w3.org/2000/svg" fill-rule="evenodd" clip-rule="evenodd" stroke-linejoin="round" stroke-miterlimit="1.414"><path d="M419.253 21.025l.362.032.39.057.407.086.41.116.397.14.37.166.36.183.34.198.31.212.29.224.27.22.25.23.23.23.21.24.19.24.18.23.16.24.15.23.14.23.13.23.03.06.08.16.11.23.11.23.1.22.09.23.09.22.08.22.08.23.07.22.07.22.07.23.06.23.12.46.05.23.05.23.04.24.04.24.04.24.04.25.07.48.06.5.07.51.06.53.05.53.05.55.03.56.03.57.02.59.02.6.02.62v1.92l-.01.67-.01.68-.02.69-.03.71-.02.72-.03.73-.04.74-.04.76-.05.77-.05.79-.06.8-.06.81-.07.82-.07.84-.08.85-.08.86-.09.87-.09.88-.1.89-.1.91-.11.91-.11.93-.11.94-.12.95-.13.96-.13.97-.13.98-.15.99-.14 1-.15 1.01-.16 1.02-.16 1.04-.17 1.05-.17 1.05-.18 1.07-.18 1.08-.19 1.08-.19 1.09-.19 1.11-.2 1.11-.21 1.12-.21 1.13-.21 1.14-.22 1.15-.22 1.15-.23 1.15-.02.09-.21 1.08-.24 1.18-.24 1.18-.25 1.19-.25 1.2-.26 1.21-.26 1.21-.27 1.22-.27 1.23-.27 1.23-.28 1.23-.29 1.25-.29 1.25-.3 1.25-.3 1.26-.3 1.26-.31 1.27-.31 1.27-.32 1.28-.32 1.29-.33 1.29-.34 1.29-.34 1.3-.35 1.3-.35 1.3-.36 1.31-.36 1.31-.37 1.31-.37 1.32-.38 1.32-.38 1.32-.39 1.32-.39 1.33-.4 1.33-.4 1.33-.41 1.33-.42 1.34-.42 1.34-.42 1.34-.43 1.34-.43 1.34-.44 1.35-.45 1.34-.45 1.34-.46 1.35-.46 1.34-.47 1.35-.47 1.34-.08.22-.39 1.12-1.25 3.54-3.52-1.21-3.52-1.21 1.19-3.57.37-1.11.07-.22.43-1.33.43-1.33.42-1.33.42-1.33.41-1.33.41-1.33.4-1.32.4-1.33.4-1.32.38-1.33.38-1.32.38-1.32.38-1.32.37-1.32.36-1.31.36-1.31.35-1.31.35-1.31.35-1.3.34-1.3.33-1.3.33-1.3.33-1.29.32-1.29.31-1.28.31-1.28.3-1.28.3-1.27.29-1.27.29-1.26.29-1.25.28-1.26.27-1.25.27-1.24.27-1.24.26-1.23.25-1.22.25-1.22.25-1.21.24-1.21.24-1.2.23-1.19.23-1.19.22-1.17.22-1.18.21-1.16.21-1.16.19-1.07.02-.09.19-1.14.19-1.14.19-1.12.18-1.11.18-1.11.17-1.09.16-1.09.16-1.08.15-1.07.15-1.06.15-1.05.14-1.04.13-1.03.14-1.02.13-1.01.12-1 .11-.99.11-.98.11-.97.1-.95.1-.94.09-.94.09-.92.09-.91.08-.9.08-.89.07-.88.07-.86.06-.84.05-.84.05-.82.05-.81.05-.79.04-.78.04-.76.03-.75.03-.74.02-.72.02-.71.01-.69.01-.68v-1.3l-.01-.63-.01-.61-.01-.59-.01-.58-.02-.56-.02-.54-.03-.52-.03-.5-.04-.48-.04-.47-.04-.44-.03-.31-.37.25-.37.27-.39.29-.41.3-.42.32-.43.33-.45.35-.46.36-.46.38-.48.39-.49.4-.49.42-.51.43-.52.45-.53.46-.54.47-.55.49-.55.5-.56.51-.57.52-.58.54-.59.54-.5.48-.09.08-.59.58-.6.59-.61.6-.62.61-.62.62-.63.63-.63.65-.64.66-.65.67-.64.68-.65.69-.65.7-.66.71-.66.72-.67.73-.66.74-.67.75-.67.76-.65.74-.03.02-.67.79-.67.8-.67.8-.67.81-.68.82-.68.83-.68.83-.68.85-.68.85-.68.86-.68.87-.07.09-.6.79-.67.89-.66.9-.66.9-.67.91-.66.92-.66.92-.66.93-.65.94-.66.95-.47.69-.17.26-.63.97-.63.97-.63.98-.62.99-.62.99-.61 1-.61 1-.61 1-.6 1-.6 1.01-.6 1.01-.58 1.02-.58 1.02-.58 1.02-.57 1.03-.56 1.03-.55 1.03-.55 1.04-.54 1.04-.08.16-.43.88-.5 1.05-.5 1.06-.49 1.06-.48 1.06-.47 1.06-.47 1.06-.45 1.06-.45 1.07-.22.52-.21.53-.21.53-.21.53-.21.53-.21.53-.21.53-.2.53-.2.53-.19.52-.19.53-.19.53-.19.53-.18.53-.18.52-.18.53-.18.53-.18.52-.17.53-.17.52-.16.52-.16.52-.16.52-.16.53-.15.52-.16.52-.15.52-.14.52-.15.51-.14.52-.14.51-.13.51-.09.35-.04.17-.13.54-3.22 13.18-14.32-5.98-14.13-5.9 6.91-11.64.31-.53.11-.18.22-.37.33-.56.33-.56.33-.55.33-.56.33-.55.34-.55.34-.55.34-.54.34-.54.34-.54.34-.54.34-.54.35-.54.35-.54.35-.54.36-.54.36-.53.35-.54.36-.53.36-.53.36-.53.37-.53.36-.53.37-.53.37-.52.37-.52.37-.53.37-.52.37-.52.37-.52.38-.52.39-.52.76-1.02.77-1.03.78-1.02.78-1.02.79-1.01.79-1 .79-1 .8-1 .68-.83.12-.16.79-1 .79-.99.79-.99.8-.98.79-.98.81-.97.8-.97.81-.96.81-.96.82-.95.81-.95.82-.94.82-.93.83-.93.82-.92.82-.92.83-.91.83-.9.83-.9.22-.24.59-.66.81-.9.81-.89.82-.88.81-.88.81-.87.81-.86.81-.86.81-.85.81-.85.72-.74.08-.09.8-.84.79-.83.79-.82.79-.82.79-.81.78-.8.78-.79.78-.78.77-.77.78-.76.77-.76.02-.02.73-.73.75-.75.74-.74.74-.73.74-.72.74-.71.73-.7.73-.69.72-.68.72-.67.71-.66.7-.65.7-.64.69-.63.69-.62.69-.61.68-.59.67-.58.66-.58.1-.08.56-.48.65-.56.64-.54.63-.54.62-.53.62-.51.61-.51.6-.48.59-.48.59-.46.58-.45.57-.44.56-.43.55-.42.55-.41.54-.39.53-.38.52-.37.5-.35.5-.34.5-.33.49-.32.48-.3.46-.3.46-.28.45-.27.44-.25.44-.24.44-.23.42-.21.23-.11.22-.1.21-.1.21-.09.22-.1.22-.09.22-.08.22-.09.22-.08.23-.08.23-.07.24-.07.24-.07.25-.06.25-.06.26-.05.27-.05.28-.03.3-.02.31-.02h.32l.35.02zm-3.4 8.886v.01zm-.005 0h.003zm0 0l-.022-.03.022.03zm0 0v.01zm-.002 0h.003l-.02-.03.01.04zm-.002 0v-.01.01zm-.003 0l-.04-.06.05.07zm0 0l.01.01-.02-.07.03.07zm0 0h.02zm0 0v-.01l-.05-.09.06.1zm0 0v.01l-.04-.09.04.09zm-.01-.02l-.06-.11.07.13-.04-.07-.02-.03.07.12-.05-.11.05.11-.05-.12.05.11-.06-.11.06.12z"/><path d="M486.457 20.733l.55.04.577.07.557.1.54.123.49.136.48.15.48.17.47.184.45.2.44.21.43.23.42.234.4.25.39.26.38.264.36.274.35.28.34.29.32.292.31.296.3.3.28.303.27.3.26.31.25.31.24.31.23.31.22.31.22.32.2.32.2.32.19.32.18.32.18.32.17.32.16.33.16.32.15.33.15.33.14.33.14.33.14.33.13.33.12.33.12.34.12.34.11.34.11.34.11.34.11.35.2.7.1.35.09.35.09.36.09.36.09.36.17.73.08.37.08.37.08.37.07.38.07.38.13.76.06.39.12.78.12.79.11.8.1.81.1.82.09.83.09.84.08.85.08.86.07.87.06.88.05.89.05.89.04.91.04.91.04.93v.02l.04.91.04.94.03.95.03.96.03.97.02.97.02.98.01.99.01 1 .01 1v2.03l-.01 1.02-.01 1.03-.02 1.04-.02 1.04-.02 1.05-.02 1.05-.03 1.06-.04 1.06-.03 1.07-.04 1.07-.04 1.08-.04 1.08-.05 1.08-.05 1.09-.05 1.09-.05 1.1-.06 1.09-.06 1.1-.06 1.1-.14 2.21-.07 1.11-.07 1.11-.07 1.11-.08 1.11-.16 2.22-.09 1.11-.09 1.11-.09 1.1-.09 1.11-.09 1.1-.06.63-.03.47-.09 1.1-.09 1.1-.19 2.2-.19 2.18-.1 1.09-.1 1.09-.11 1.09-.21 2.15-.22 2.13-.22 2.12-.23 2.1-.23 2.08-.23 2.05-.24 2.02-.24 1.99-.24 1.95-.25 1.92-.25 1.89-.26 1.85-.09.62-.81 5.84-4.55-.51-4.55-.51.4-4.69.1-1.17.06-.62.14-1.82.14-1.86.14-1.9.13-1.93.13-1.96.12-2 .12-2.02.11-2.05.1-2.06.1-2.09.09-2.11.09-2.13.04-1.06.03-1.08.04-1.08.04-1.08.03-1.08.03-1.08.03-1.08.03-1.08.03-1.08.01-.47v-.62l.01-1.09.01-1.09.01-1.09v-4.3l-.01-1.09-.01-1.08-.01-1.08-.01-1.08-.01-1.08-.02-1.08-.02-1.07-.02-1.07-.03-1.07-.03-1.06-.03-1.06-.04-1.06-.04-1.05-.04-1.04-.05-1.03-.05-1.04-.05-1.03-.05-1.03-.06-1.02-.06-1-.06-1-.07-1-.07-.98-.07-.98-.07-.97-.07-.96-.08-.95-.08-.94-.08-.93-.09-.92-.09-.91-.1-.9-.1-.89-.1-.88-.1-.87-.11-.86-.11-.82v-.02l-.13-.83-.13-.82-.13-.8-.14-.79-.14-.77-.14-.77-.15-.74-.15-.73-.15-.72-.15-.7-.16-.68-.15-.67-.16-.64-.16-.63-.17-.61-.17-.6-.08-.28-.08-.28-.08-.28-.09-.27-.08-.27-.09-.26-.09-.25-.09-.25-.09-.24-.09-.24-.08-.23-.09-.22-.03-.08-.26.2-.42.32-.43.35-.46.36-.47.38-.48.4-.5.42-.51.44-.52.46-.54.48-.55.49-.57.51-.58.53-.58.54-.6.56-.61.58-.62.6-.63.61-.64.63-.65.64-.66.65-.66.68-.67.68-.68.7-.69.71-.69.73-.71.74-.7.75-.72.77-.72.78-.72.79-.73.81-.74.82-.74.83-.74.84-.75.85-.75.86-.75.87-.76.89-.76.9-.76.91-.77.92-.77.93-.78.93-.77.95-.77.96-.78.96-.78.97-.78.99-.78.99-.77 1-.78 1.01-.77 1.02-.78 1.03-.78 1.03-.77 1.04-.77 1.05-.77 1.05-.77 1.06-.29.4-.47.66-.76 1.08-.76 1.08-.75 1.09-.75 1.09-.75 1.1-.74 1.11-.74 1.1-.73 1.11-.73 1.11-.72 1.12-.72 1.12-.72 1.13-.7 1.13-.7 1.13-.69 1.14-.69 1.14-.68 1.14-.68 1.14-.66 1.15-.66 1.14-.65 1.15-.64 1.14-.63 1.14-.63 1.14-.62 1.14-.61 1.16-.29.56-.3.58-.29.57-.3.57-.29.58-.29.57-.28.57-.28.57-.28.57-.28.57-.27.57-.28.57-.27.57-.27.56-.27.56-.27.57-.26.57-.26.56-.25.56-.25.56-.25.56-.24.56-.25.56-.24.56-.24.56-.23.55-.23.55-.23.55-.22.55-.22.55-.22.55-.21.55-.21.55-.21.54-.2.54-.21.54-.2.54-.2.53-.19.54-.19.53-.18.53-.18.53-.18.53-.17.52-.06.17-.11.35-.19.56-8.38 18.58-37.27-16.8 8.38-18.58.34-.6.24-.43.12-.21.36-.63.36-.63.37-.64.37-.63.38-.63.38-.63.38-.63.38-.63.38-.62.39-.62.39-.62.39-.63.39-.62.4-.62.4-.61.41-.62.41-.62.41-.62.41-.62.42-.61.42-.62.42-.61.42-.61.42-.61.43-.6.43-.61.43-.6.43-.6.43-.6.44-.61.44-.6.44-.6.44-.6.45-.6.45-.6.45-.59.45-.59.45-.59.45-.6.45-.59.46-.59.46-.58.46-.59.47-.59.92-1.15.93-1.15.94-1.16.94-1.15.95-1.14.96-1.14.96-1.14.97-1.13.97-1.12.97-1.11.98-1.11.98-1.11.98-1.1.99-1.1.98-1.09 1-1.09.99-1.08 1-1.07 1-1.07 1-1.06 1-1.05 1-1.05 1.01-1.03 1.01-1.03 1-1.02 1-1.02.63-.63.37-.38 1-1 1-1 1-.99 1-.98 1-.97 1-.97.99-.96 1-.95.99-.94.99-.93.99-.92.98-.91.98-.9.98-.9.97-.89.97-.87.97-.86.97-.85.96-.85.96-.84.95-.82.95-.82.94-.81.94-.8.92-.79.92-.78.91-.76.91-.75.9-.75.9-.74.89-.71.88-.7.88-.69.86-.69.86-.67.85-.66.84-.65.83-.63.83-.62.82-.61.81-.6.79-.58.79-.58.78-.56.77-.55.76-.53.75-.52.74-.5.73-.49.72-.48.71-.47.7-.46.69-.44.68-.42.68-.41.66-.4.66-.38.65-.37.64-.35.61-.34.33-.17.31-.16.31-.16.31-.16.31-.16.3-.15.3-.15.31-.15.31-.14.31-.14.31-.13.3-.13.31-.13.31-.12.31-.12.32-.12.32-.11.32-.11.33-.11.33-.11.33-.1.34-.1.35-.09.36-.09.37-.08.38-.08.4-.06.42-.06.43-.05.45-.03.47-.02.49-.01.52.02zm-3.275 17.752l.01.007v-.006l-.012-.008.002.007zm-.005-.004h-.003l-.05-.03.053.03zm-.004-.01l.01.01-.04-.07.03.06zm-.008 0l-.01-.01-.14-.07.15.09zm-.492-.54l-.136-.15.13.16-.137-.14.134.16-.137-.13.146.16-.138-.13.15.17-.138-.12.166.16-.143-.11.175.17-.14-.11.183.16-.14-.11.194.17-.142-.1.207.17-.146-.1.23.17-.14-.1.23.16-.14-.09.24.16-.05-.08-.09-.14.06.12-.09-.14-.1-.13.08.12-.09-.13-.09-.12.08.13-.09-.11-.08-.11.09.14-.08-.1-.08-.1.1.14-.13-.16.11.15-.13-.15.12.15zM144.796 412.29l4.455 1.94 1.81 4.51v.022l-.01.234-.01.202-.01.207v1.256l.01.42.01.2.02.44.02.43.03.43.04.43.04.43.05.43.06.44.06.43.07.44.07.43.08.44.08.44.09.44.1.44.1.44.1.44.11.44.11.44.13.44.13.44.14.44.13.44.14.44.14.44.15.44.31.88.17.44.17.44.17.44.18.43.18.44.18.43.18.43.19.43.2.43.2.43.09.19.12.23.21.42.21.42.21.42.22.42.21.41.44.82.45.82.23.4.23.4.46.79.23.39.47.77.23.38.23.38.24.37.24.37.24.37.23.36.24.37.24.36.24.35.23.35.24.34.23.34.48.67.47.65.46.63.46.62.45.6.44.58.44.56.24.3.18.23.42.51.4.49.39.47.38.45.36.42.34.39.33.37.31.35.29.32.26.29.25.27.22.24.37.4.27.28.16.16.05.05.52.59.42.67.3.73.18.77.06.79-.07.79-.21.76-.33.72-.44.66-.54.58-.62.49-.69.37-.75.26-.78.13h-.78l-.13-.02-.36-.04-.56-.07-.36-.05-.29-.04-.11-.01-.45-.06-.49-.07-.53-.08-.57-.09-.62-.11-.66-.11-.7-.13-.74-.14-.77-.16-.81-.17-.83-.18-.43-.1-.44-.1-.45-.11-.19-.05-.27-.06-.47-.11-.48-.11-.48-.11-.49-.12-.5-.12-.51-.12-.51-.13-.52-.13-.52-.14-.53-.14-.54-.15-.55-.15-.55-.16-.56-.17-.57-.17-.57-.17-.58-.18-.59-.19-.59-.19-.6-.19-.6-.2-.61-.2-.61-.21-.62-.22-.62-.23-.62-.23-.63-.24-.63-.24-.48-.18-.16-.06-.65-.25-.65-.25-.65-.26-.66-.26-.66-.27-.67-.28-.67-.28-.68-.3-.68-.3-.68-.31-.68-.31-.69-.32-.69-.33-.69-.33-.69-.34-.7-.35-.7-.36-.7-.36-.71-.38-.71-.38-.71-.39-.71-.4-.71-.41-.41-.23-.31-.17-.72-.42-.72-.42-.72-.43-.73-.44-.72-.44-.73-.46-.72-.46-.73-.48-.73-.48-.73-.49-.73-.5-.73-.51-.72-.52-.73-.52-.73-.54-.72-.54-.37-.28-.36-.27-.36-.29-.36-.29-.36-.29-.36-.29-.36-.29-.36-.29-.36-.3-.36-.3-.37-.3-.36-.3-.36-.3-.36-.31-.36-.31-.36-.31-.36-.32-.36-.32-.36-.33-.35-.32-.36-.33-.35-.33-.35-.34-.35-.34-.35-.34-.36-.34-.35-.34-.35-.35-.35-.34-.35-.35-.36-.36-.34-.36-.28-.29-.07-.07-.34-.35-.02-.02-1.59-4.59 2.09-4.39.04-.04 4.59-1.59 4.39 2.09.01.02.29.35.06.08.22.26.29.34.28.33.28.33.29.33.28.33.29.33.57.65.29.32.29.32.29.31.3.31.29.31.29.31.29.3.59.6.29.29.59.59.59.58.3.29.61.57.6.56.3.28.3.27.3.27.3.27.3.26.61.54.61.52.61.52.61.51.62.5.62.49.61.48.62.47.62.47.62.46.62.46.62.44.62.44.62.43.62.42.62.42.27.18.36.23.62.4.63.38.62.38.62.38.62.37.62.36.62.35.61.35.62.34.61.34.61.33.61.32.6.31.61.31.6.3.6.29.59.29.6.28.6.28.59.27.59.26.58.26.58.25.15.06.43.18.58.23.57.23.57.22.56.22.56.21.56.2.55.2.54.19.54.19.54.19.53.18.53.18.52.17.52.17.51.16.5.15.5.15.49.15.31.09-.08-.1-.29-.37-.29-.36-.29-.37-.28-.38-.29-.38-.29-.39-.29-.39-.28-.39-.29-.4-.29-.41-.28-.41-.29-.41-.29-.42-.29-.42-.29-.42-.29-.44-.28-.43-.29-.44-.28-.44-.28-.45-.28-.45-.28-.45-.28-.46-.28-.46-.27-.47-.28-.47-.27-.48-.27-.48-.15-.27-.12-.21-.27-.49-.27-.49-.26-.49-.26-.5-.25-.5-.26-.5-.25-.51-.24-.51-.24-.51-.24-.51-.23-.52-.23-.53-.22-.52-.22-.53-.22-.53-.21-.53-.21-.54-.2-.54-.19-.55-.19-.54-.19-.55-.18-.55-.17-.56-.17-.57-.17-.57-.15-.57-.15-.57-.14-.58-.13-.58-.13-.58-.12-.59-.12-.59-.1-.59-.1-.6-.08-.6-.08-.6-.07-.6-.04-.32-.03-.3-.02-.3-.02-.31-.02-.3-.02-.31-.01-.3-.01-.31-.02-.31-.01-.31v-.31l-.01-.28v-.02l1.95-4.45 4.52-1.81.05.01z"/><path d="M225.268 357.586c-12.915 5.662-30.09 17.996-45.516 30.756-20.023 16.566-29.13 34.777-70.278 40.05-11.52 1.474-26.757 3.096-40.71-4.33-9-4.79-11.722-13.99-23.437-18.955-11.692-4.955-33.635-24.255-27.433-41.105 4.648-12.62 29.826-13.977 42.197-19.594 13.31-6.04 22.72-10.62 32.84-16.1 6.25-3.383 12.77-7.108 20.65-11.73 7.39-4.335 15.55-6.13 21.76-12.437"/><path d="M142.538 296.9l.037.038 2.964 7.206-2.96 7.206-.02.017-.36.345-.42.392-.42.382-.42.375-.43.37-.43.36-.43.35-.43.34-.43.33-.43.32-.44.31-.43.3-.43.3-.44.29-.43.28-.43.27-.43.26-.43.26-.43.25-.42.24-.42.24-.42.23-.42.22-.42.22-.42.21-.41.21-.41.21-.41.2-.4.2-.42.19-.78.36-.78.35-.77.34-.75.32-.74.32-1.43.62-.69.3-.68.3-.66.29-.66.3-.31.15-.31.14-.31.15-.3.15-.3.14-.3.15-.29.15-.29.15-.29.15-.28.15-.28.15-.3.16-1.47.82-1.46.82-1.43.8-1.4.78-1.38.77-1.36.75-1.34.73-1.32.72-1.3.7-1.28.69-1.27.68-1.25.67-1.24.66-1.23.65-1.21.64-1.21.63-.98.51-.97.5-.97.5-.97.49-.97.49-.97.48-.97.48-.97.48-.98.48-.98.48-.99.48-.99.48-.99.47-1 .48-1.01.47-1.01.48-1.02.48-1.03.48-1.04.48-1.06.48-1.07.49-1.07.49-1.1.5-.33.15-.78.35-1.13.51-1.14.51-1.15.52-1.17.52-2.4 1.06-2.5 1.1-.36.15-.38.16-.37.15-.38.15-.38.15-.38.14-.38.15-.39.14-.38.13-.39.13-.39.13-.39.13-.39.13-.4.12-.78.24-.79.24-.79.23-.8.23-.8.22-.8.21-.81.21-.8.21-.81.2-1.61.4-1.62.4-1.61.4-1.6.4-.79.2-.79.2-.78.21-.78.21-.76.21-.75.21-.75.21-.74.21-.73.21-.72.23-.34.11-.35.11-.34.11-.34.12-.34.11-.33.12-.33.12-.32.11-.32.12-.32.12-.31.12-.31.12-.3.12-.3.12-.29.13-.29.12-.28.12-.28.12-.27.13-.26.12-.26.13-.25.13-.25.12-.25.13-.23.13-.23.12-.22.13-.22.13-.21.12-.2.12-.2.13-.19.13-.18.12-.18.13-.17.12-.16.12-.16.12-.15.12-.14.11-.13.12-.13.11-.12.11-.12.11-.11.11-.1.11-.1.1-.09.11-.09.1-.08.1-.07.1-.08.11-.02.03-.03.05-.03.05-.03.04-.03.05-.03.04-.03.05-.03.05-.03.04-.03.04-.02.05-.02.04-.02.05-.02.05-.03.05-.02.05-.02.05-.02.05-.04.11-.04.11-.04.11-.04.11-.04.11-.04.1-.04.11-.03.1-.03.11-.03.11-.02.1-.02.11-.03.11-.03.11-.02.11-.02.11-.02.11-.02.11-.01.12-.02.11-.02.12-.01.11-.01.11-.01.11-.01.11-.01.12-.01.11-.01.11-.01.11v.13l-.01.1v.83l.01.12v.12l.01.13.04.38.04.25.02.13.01.11.04.28.05.26.06.27.06.27.07.28.07.27.08.28.09.28.09.28.09.29.1.29.11.29.11.29.12.29.12.3.13.3.13.3.14.3.15.3.15.3.16.3.16.31.16.3.17.31.17.31.18.31.19.31.19.31.4.62.21.31.21.31.22.31.22.31.22.31.22.31.47.61.24.31.24.31.25.3.25.3.26.3.26.3.26.3.26.3.26.3.27.3.27.29.27.29.56.58.28.28.28.29.57.56.57.56.29.27.29.27.3.26.29.27.23.2.07.06.3.26.6.5.3.25.29.25.3.25.3.24.59.47.3.23.3.23.3.22.3.22.29.21.29.21.29.2.29.2.29.2.28.19.29.19.28.19.28.18.28.18.27.17.27.17.27.16.27.16.26.15.26.15.25.15.26.14.25.13.25.13.23.13.23.12.23.11.22.11.21.1.21.1.21.09.24.1.3.13.33.15.33.15.65.3.32.15.31.16.31.16.31.16.6.33.3.17.3.17.29.17.29.17.28.17.28.17.56.35.54.36.26.18.26.18.26.18.26.18.25.18.25.19.25.2.47.37.47.37.46.38.45.38.44.38.43.38.42.38.4.38.16.15.25.22.39.38.38.37.38.37.36.37.36.36.35.36.34.36.66.7.63.68.61.66.6.63.58.62.55.58.28.28.27.28.27.27.27.26.26.25.26.25.26.24.26.23.26.23.26.22.26.21.25.21.26.2.27.2.24.18.13.09.12.09.26.18.4.25.14.08.13.08.14.08.14.07.14.08.14.07.14.08.26.14.27.14.28.14.27.13.55.26.27.12.55.24.28.11.28.11.27.11.55.22.56.21.83.3.28.09.28.09.28.09.28.09.28.08.56.16.56.16.28.08.28.07.29.07.57.13.28.06.29.07.29.06.28.06.29.06.28.06.29.05.29.05.29.05.28.04.58.09.57.08.57.08.29.04.29.03.27.03.6.06.57.05.58.04.58.04.58.04.58.03.58.02.58.01.58.01h1.76l.58-.01.58-.02.58-.02.58-.02.57-.03.57-.03.58-.03.57-.03.57-.04.57-.05.57-.05.57-.05.37-.04.2-.02.57-.06.56-.06.56-.07.56-.07.55-.07 1.11-.14 1.09-.14 1.08-.15 1.06-.15.91-.13.89-.13.88-.14.87-.15.86-.15.84-.15.83-.16.83-.17.81-.16.8-.16.79-.17.78-.17.77-.18.76-.18.74-.18.74-.19.73-.19.71-.19.71-.2.7-.2.68-.2.68-.21.67-.21.66-.21.65-.22.64-.22.63-.23.62-.22.61-.23.6-.23.59-.23.59-.24.58-.24.57-.24.57-.24.55-.24.55-.25.54-.25.54-.26.53-.26.52-.25.52-.26.51-.27.51-.26.49-.26.49-.27.48-.28.48-.28.48-.27.47-.28.46-.28.46-.28.45-.28.46-.29.45-.29.44-.29.44-.29.44-.3.43-.3.43-.31.42-.31.42-.31.42-.31.42-.31.41-.31.06-.05.35-.27.4-.32.4-.32.4-.33.4-.33.4-.33.39-.34.39-.33.39-.34.4-.33.39-.35.39-.34.39-.35.39-.35.39-.36.38-.36.38-.35.38-.36.38-.36.77-.73.77-.74.77-.75.78-.76.77-.76.78-.77 1.59-1.57 1.6-1.59.82-.8.83-.81.84-.82.85-.83.86-.83.87-.83.45-.42.45-.42.46-.42.46-.42.46-.43.47-.43.47-.42.48-.42.48-.43.49-.42.49-.42.49-.43.73-.63.73-.63.73-.62.74-.62.74-.62.74-.62.75-.62.74-.62.75-.61.74-.61.75-.61.75-.61.75-.6.76-.61.76-.6.52-.42.23-.18.76-.6.75-.6.76-.6.76-.59.75-.59.75-.58.76-.58.76-.57.76-.57.76-.57.76-.57.76-.56.76-.56.76-.55.75-.54.75-.54.76-.54.75-.53.75-.52.75-.53.75-.52.74-.51.74-.51.74-.5.74-.49.74-.49.74-.48.74-.48.73-.47.73-.46.73-.46.73-.45.73-.44.72-.43.72-.43.72-.42.72-.41.71-.4.71-.4.71-.39.71-.38.71-.37.7-.37.7-.35.7-.35.21-.11.49-.24.69-.33.65-.3.02-.01 7.79-.18 5.67 5.36.02.04.18 7.79-5.36 5.66-.02.01-.57.24-.54.23-.38.17-.16.08-.55.25-.56.26-.58.27-.58.28-.6.29-.6.29-.6.31-.61.31-.62.32-.63.33-.63.34-.64.35-.65.36-.65.37-.65.38-.66.38-.67.39-.67.39-.68.4-.68.41-.69.42-.69.43-.7.43-.7.44-.7.44-.71.45-.71.45-.71.46-.71.47-.71.47-.72.47-.73.48-.73.49-.73.5-.73.49-.73.5-.74.5-.73.51-.73.52-.74.52-.73.53-.73.53-.74.53-.74.53-.74.53-.22.16-.51.38-.74.54-.73.55-.74.55-.73.55-.74.55-.73.56-.73.56-.73.56-.73.56-.73.57-.73.57-.73.57-.73.57-.72.58-.72.57-.45.36-.43.35-.44.36-.43.35-.43.36-.43.36-.42.36-.42.36-.42.36-.42.36-.42.36-.41.36-.84.74-.83.74-.83.74-.83.74-.82.75-.82.75-1.65 1.53-1.65 1.53-.84.77-.84.77-.85.77-.85.77-.87.78-.87.76-.45.39-.44.39-.44.39-.45.38-.45.39-.46.39-.46.39-.46.38-.47.38-.47.39-.47.38-.48.38-.49.38-.49.38-.49.37-.49.38-.5.37-.51.38-.43.31-.09.06-.51.37-.52.37-.52.37-.53.37-.54.36-.53.36-.55.36-.55.35-.56.36-.56.35-.57.35-.58.34-.58.35-.59.34-.59.34-.6.33-.6.33-.61.33-.62.32-.62.32-.63.33-.64.31-.65.31-.65.31-.66.31-.67.3-.67.3-.68.3-.69.28-.7.29-.7.28-.71.28-.72.27-.72.27-.74.26-.74.26-.75.25-.76.25-.76.25-.77.24-.78.23-.79.24-.8.23-.8.22-.81.23-.83.21-.83.21-.84.2-.86.2-.86.2-.87.19-.88.19-.89.18-.89.18-.91.17-.92.17-.93.16-.93.16-.95.15-.96.15-.97.15-.98.14-.99.13-1 .12-1 .12-1.13.13-1.15.13-1.17.13-1.19.12-.62.06-.61.06-.63.05-.63.06-.63.05-.22.02-.41.03-.65.05-.65.05-.66.04-.67.04-.67.04-.67.04-.68.03-.69.03-.69.02-.7.01-.7.01h-1.4l-.72-.01-.72-.01-.72-.02-.73-.03-.73-.04-.73-.04-.74-.05-.74-.06-.75-.07-.75-.07-.74-.08-.39-.05-.38-.05-.38-.05-.38-.05-.37-.06-.38-.06-.38-.06-.38-.06-.38-.06-.38-.06-.38-.07-.39-.08-.39-.07-.39-.08-.39-.08-.39-.08-.38-.09-.38-.09-.39-.09-.38-.09-.38-.1-.38-.1-.39-.11-.38-.1-.39-.11-.39-.11-.38-.113-.39-.12-.39-.12-.39-.12-.39-.13-.38-.13-.39-.13-.39-.14-.39-.14-.39-.14-.39-.15-.39-.15-.39-.16-.39-.16-.39-.16-.38-.17-.39-.17-.39-.17-.38-.18-.38-.19-.38-.18-.38-.19-.39-.19-.39-.2-.38-.2-.39-.2-.28-.15-.27-.15-.27-.15-.27-.16-.26-.16-.26-.16-.26-.16-.26-.17-.25-.16-.25-.16-.25-.17-.24-.17-.24-.17-.24-.17-.24-.175-.24-.18-.45-.34-.44-.355-.43-.36-.42-.36-.41-.36-.41-.36-.39-.36-.38-.36-.38-.36-.36-.36-.36-.35-.35-.355-.34-.36-.34-.35-.33-.356-.33-.36-.62-.68-.61-.66-.59-.66-.58-.64-.58-.63-.28-.3-.28-.3-.28-.3-.28-.28-.28-.28-.29-.28-.28-.27-.18-.17-.11-.11-.29-.26-.29-.26-.29-.25-.29-.25-.3-.24-.3-.24-.31-.24-.32-.24-.15-.11-.15-.11-.16-.11-.16-.11-.16-.12-.16-.11-.16-.11-.17-.11-.16-.103-.17-.11-.17-.1-.17-.1-.17-.11-.17-.1-.18-.1-.18-.1-.18-.1-.18-.1-.18-.1-.19-.1-.19-.09-.19-.1-.2-.1-.2-.09-.2-.1-.2-.09-.21-.09-.24-.1-.31-.14-.36-.15-.35-.16-.35-.17-.36-.17-.35-.18-.36-.18-.36-.18-.36-.19-.36-.19-.36-.2-.36-.2-.37-.21-.36-.21-.37-.22-.37-.22-.37-.22-.37-.23-.37-.23-.37-.24-.37-.24-.37-.25-.38-.25-.37-.25-.38-.26-.37-.26-.38-.27-.37-.27-.38-.27-.38-.28-.38-.29-.38-.29-.38-.29-.38-.3-.38-.3-.38-.3-.38-.31-.37-.31-.37-.32-.38-.32-.37-.32-.09-.08-.29-.24-.38-.33-.37-.32-.37-.34-.37-.34-.37-.34-.38-.34-.37-.35-.36-.35-.36-.36-.36-.36-.36-.37-.36-.37-.36-.37-.36-.38-.35-.372-.35-.39-.35-.38-.34-.39-.34-.39-.35-.39-.34-.39-.34-.4-.33-.4-.33-.41-.33-.41-.32-.42-.32-.41-.31-.42-.31-.42-.31-.43-.31-.43-.3-.44-.3-.44-.3-.44-.29-.44-.28-.44-.28-.45-.27-.45-.27-.46-.26-.46-.26-.46-.25-.47-.25-.47-.25-.48-.24-.48-.23-.48-.22-.49-.22-.49-.21-.49-.21-.5-.19-.51-.19-.51-.18-.51-.18-.52-.17-.52-.15-.52-.16-.52-.14-.52-.13-.54-.12-.54-.12-.54-.1-.52-.05-.29-.05-.28-.05-.28-.04-.28-.04-.28-.04-.28-.03-.27-.03-.28-.03-.28-.02-.28-.02-.29-.02-.28-.01-.29-.01-.29-.01-.28v-.28l-.01-.29v-.3l.01-.03v-.28l.01-.29v-.29l.01-.29.01-.28.02-.29.02-.29.02-.29.02-.29.03-.29.03-.29.03-.29.04-.29.05-.29.04-.29.05-.29.06-.29.06-.29.06-.29.06-.29.07-.29.07-.29.08-.29.08-.29.09-.29.09-.29.09-.29.09-.29.1-.29.1-.29.09-.25.1-.24.1-.24.1-.24.1-.24.1-.23.11-.24.11-.23.11-.23.12-.23.12-.22.12-.22.13-.23.13-.23.13-.22.13-.22.13-.21.16-.24.27-.4.29-.41.29-.41.31-.4.31-.38.32-.38.32-.37.33-.36.34-.35.34-.34.35-.33.35-.33.36-.31.36-.31.36-.3.37-.29.37-.28.37-.28.38-.27.37-.27.38-.27.39-.25.38-.24.39-.25.39-.24.4-.23.39-.23.4-.22.4-.22.4-.21.4-.21.4-.21.4-.2.41-.19.41-.19.41-.19.41-.18.41-.19.42-.18.42-.17.42-.17.41-.18.42-.17.42-.17.42-.16.42-.16.43-.15.42-.16.42-.15.43-.15.43-.15.84-.29.85-.28.85-.28.85-.27.85-.25.85-.25.84-.25.84-.25.84-.24.84-.24 1.64-.45 1.61-.45 1.58-.44 1.55-.43.75-.21.74-.22.72-.21.7-.22.69-.21.68-.21.65-.21.636-.21.63-.21.29-.1.29-.11.28-.1.28-.11.27-.1.26-.1.26-.103.25-.11.24-.1.24-.1.23-.1.23-.1.22-.1.23-.11 2.39-1.12 2.34-1.12 1.13-.54 1.12-.54 1.09-.53 1.08-.53.74-.36.32-.15 1.04-.52 1.03-.51 1.02-.51 1-.51.98-.5.98-.5.97-.5.96-.49.95-.49.94-.49.93-.49.93-.49.92-.49.92-.49.91-.5.91-.49.91-.5.91-.49.9-.5.91-.51.91-.51.91-.52.92-.52 1.14-.65 1.15-.66 1.15-.66 1.17-.68 1.19-.69 1.19-.7 1.21-.71 1.23-.73 1.25-.75 1.27-.77 1.3-.78 1.32-.8 1.35-.81 1.38-.84 1.41-.853 1.45-.89.4-.24.42-.25.42-.24.41-.234.41-.23.42-.22.41-.22.4-.21.41-.22.4-.21.4-.2.4-.2.77-.38.76-.37.75-.36.74-.35 1.42-.67.68-.32.66-.31.64-.32.63-.31.62-.32.28-.15.29-.15.29-.16.28-.16.28-.15.27-.15.262-.15.26-.15.25-.16.25-.15.25-.15.24-.15.24-.15.24-.16.23-.16.22-.16.22-.16.21-.16.21-.16.2-.16.2-.16.2-.16.19-.17.19-.17.19-.17.18-.17.18-.18.17-.18.18-.18.23-.24.02-.02 7.2-2.96 7.21 2.97z"/><path d="M169.636 401.605l.324.325.31.29.326.29.17.146.168.142.35.284.366.277.19.13.19.13.192.13.196.13.196.13.405.26.2.13.21.13.21.12.21.12.21.12.44.24.22.12.22.12.22.12.23.12.46.22.23.11.46.21.47.21.23.1.48.21.48.19.15.06.33.13.49.17.48.17.48.16.48.15.48.15.49.14.48.14.47.13.48.13.47.12.46.11.46.1.41.1-.14-.31-.2-.47-.2-.48-.19-.48-.05-.14-.05-.13-.1-.25-.09-.26-.09-.25-.09-.26-.08-.26-.08-.26-.08-.27-.08-.27-.07-.27-.07-.28-.07-.27-.06-.28-.06-.28-.06-.29-.05-.29-.05-.29-.05-.29-.04-.3-.04-.3-.03-.3-.03-.31-.01-.31-.02-.31-.01-.31v-.64l.01-.32.03-.32.03-.33.03-.21.02-.12.05-.33.06-.34.07-.34.09-.34.09-.34.11-.34.11-.34.13-.34.15-.34.15-.34.17-.34.18-.34.2-.33.21-.33.22-.32.24-.32.25-.31.26-.3.36-.38.44-.37.55-.37.53-.28.51-.21.48-.15.54-.12.66-.08.63-.01.51.04.43.06.37.07.24.06.08.03.28.09.26.09.24.1.22.09.2.09.2.09.21.1.35.19.36.2.35.21.35.21.35.22.35.22.31.2.37.26.67.48.66.47.31.22.3.22.3.21.28.19.27.18.25.16.33.21.18.11.15.09.05.03.04.03.03.02.07.03-.13-.04.08.03.15.06.34.13.16.06.16.06.16.05.15.05.04.01-.01-.11-.05-.38-.05-.38-.05-.39-.04-.4-.04-.4-.04-.41-.04-.42-.04-.42-.03-.43-.03-.44-.02-.43-.02-.44-.01-.4v-.05l-.01-.45v-1.37l.01-.46.02-.46.03-.47.03-.47.04-.47.05-.47.06-.48.07-.46.05-.25.04-.24.04-.24.05-.24.05-.24.05-.24.06-.24.06-.24.04-.15.02-.09.07-.24.08-.24.08-.24.08-.24.09-.24.1-.24.1-.24.11-.24.11-.25.12-.24.13-.24.13-.24.14-.25.15-.24.15-.24.16-.24.17-.24.18-.23.19-.24.19-.23.22-.24.2-.2.23-.21.24-.2.25-.19.27-.18.27-.16.28-.15.29-.14.29-.13.3-.11.3-.1.3-.08.29-.07.29-.06.28-.04.27-.03h.01l.27-.01h.31l.45.03.47.05.43.08.4.1.37.11.34.12.32.12.3.13.28.14.27.14.25.14.24.14.23.14.22.15.21.15.21.14.2.15.19.14.2.16.35.29.35.3.18.16.15.15.32.31.31.3.3.3.58.59.56.57.26.26.25.25.24.24.22.22.22.21.09.08.09.09.1.1.07.06.08.07.07.07.18.14.19.14.19.14.19.13.18.13.19.12.18.12.05.03-.08-.4-.08-.46-.08-.47-.08-.48-.08-.48-.08-.48-.08-.49-.07-.49-.07-.49-.07-.49v-.03l-.06-.47-.07-.49-.06-.5-.05-.5-.05-.5-.04-.5-.04-.5-.03-.5-.02-.5-.02-.5v-.5l.01-.49.01-.48.01-.27.01-.25.02-.25.02-.25.02-.25.02-.25.03-.25.03-.25.04-.25.04-.26.05-.26.05-.26.06-.26.07-.26.07-.27.07-.26.09-.27.09-.27.1-.27.11-.27.12-.28.13-.28.15-.28.16-.29.18-.29.19-.29.21-.28.14-.19.02-.02 3.9-1.96 4.16 1.33.02.02.02.01 1.97 3.9-1.19 3.71-.01.01-.02.02-.03.03-.03.04-.02.05-.03.06-.03.07-.04.08-.03.09-.03.1-.03.1-.03.11-.03.11-.03.12-.03.12-.04.13-.03.13-.06.3-.06.31-.06.33-.05.34-.04.35-.04.37-.04.37-.03.39-.03.4-.02.41-.02.41-.01.41-.01.4v1.75l.01.43.01.43.03.85.02.42.02.41.02.41.05.81.05.77.05.74.03.25.05.44.08.64.07.59.07.53.06.46.05.38.08.54.03.18.08.68-.03.69-.15.68-.26.64-.36.58-.45.53-.53.45-.59.35-.65.25-.68.14-.68.03-.1-.01-.24-.02-.32-.04-.21-.02-.22-.04-.25-.04-.26-.05-.04-.01-.26-.02-.31-.04-.33-.05-.35-.06-.36-.06-.38-.07-.4-.09-.42-.09-.44-.11-.45-.12-.47-.12-.37-.11-.1-.03-.26-.07-.25-.07-.26-.07-.26-.08-.26-.08-.27-.09-.27-.09-.28-.1-.27-.1-.28-.1-.28-.11-.28-.11-.29-.11-.29-.12-.3-.12-.29-.13-.3-.13-.3-.14-.31-.14-.31-.15-.22-.12-.22-.12-.17-.1-.04-.02-.21-.12-.21-.12-.22-.14-.39-.24-.4-.25-.39-.25-.38-.25-.38-.26-.35-.23-.05.21-.07.31-.07.31-.06.32-.06.33-.06.34-.05.33-.01.04-.04.31-.04.34-.05.35-.04.35-.04.35-.03.34-.03.34-.03.34-.02.34-.02.33-.02.33-.01.33-.01.32-.02.63-.01.59v.04l.02 1.03.02.46.02.42.01.36.01.3.03.42.01.14.03.71-.08.7-.2.68-.31.63-.41.58-.5.5-.57.41-.63.31-.09.04-.23.07-.27.07-.18.05-.19.05-.2.04-.04.01-.16.04-.23.06-.25.06-.26.05-.27.05-.29.05-.3.05-.31.04-.33.04-.35.03-.36.02-.38.02-.4.01-.41.01-.06-.01-.36.01h-.43l-.45.01-.25-.01-.24-.01-.24-.02-.24-.02-.25-.02-.25-.02-.26-.02-.26-.03-.27-.03-.27-.03-.27-.04-.3-.04-.24-.05-.26-.06-.24-.06-.24-.06-.23-.06-.23-.07-.23-.07-.23-.07-.22-.08-.1-.04-.13-.04-.42-.15-.43-.16-.43-.16-.42-.16-.42-.17-.08-.03.01.1.02.18.03.17.03.18.03.18.01.08.01.09.07.37.08.36.09.36.09.36.09.36.1.36.1.36.08.25.08.26.07.25.16.49.08.23.17.47.17.43.16.41.03.09.12.29.15.34.14.32.13.27.12.24.09.19.14.27.05.09.3.62.19.66.09.68-.02.69-.14.68-.24.64-.35.6-.43.53-.52.45-.58.36-.64.26-.67.15-.68.05-.21-.01-.27-.02-.36-.03-.44-.03-.52-.05-.6-.07h-.01l-.65-.03-.36-.02-.37-.02-.39-.02-.41-.03-.42-.03-.43-.03-.45-.04-.46-.04-.47-.05-.48-.05-.49-.05-.5-.06-.06-.01-.46-.05-.53-.06-.54-.06-.55-.07-.55-.07-.57-.08-.57-.09-.57-.09-.59-.1-.6-.11-.6-.11-.6-.12-.61-.13-.61-.14-.42-.1-.19-.05-.62-.14-.62-.16-.32-.09-.32-.08-.32-.09-.32-.08-.32-.09-.31-.09-.32-.1-.31-.1-.31-.1-.32-.11-.31-.11-.32-.11-.32-.11-.32-.12-.32-.12-.32-.12-.32-.13-.32-.13-.31-.13-.32-.14-.32-.14-.31-.15-.31-.15-.31-.15-.31-.16-.32-.16-.31-.16-.31-.17-.31-.17-.31-.18-.31-.18-.3-.18-.3-.19-.3-.19-.31-.2-.3-.2-.12-.08-.18-.13-.27-.19-.02-.01-2.06-3.86 1.24-4.2.03-.04 3.86-2.06 4.2 1.24.02.01zm19.182-.02h-.02l-.01.007.134.037-.02-.01.254.06-.08-.02.16.02h-.003l-.206-.08-.182-.06-.044-.01-.04-.01h-.02v.01l-.04-.01.14.05zm4.958-1.54h-.013l-.017.002-.017.013-.02.017-.02.024-.03.03-.02.04-.03.05-.03.05-.01.02-.02.04-.03.07-.03.07v.01l.04-.03-.02.02.33-.3-.15.13.15-.15-.07.06-.07.06.13-.16-.07.06-.06.06.12-.16-.06.07-.06.07.1-.17-.06.07-.06.08.09-.16-.05.08zm10.986-3.62l.084-.035-.098.034-.017.027h.03l.04-.01.03-.01.05-.02-.1.03.14-.05-.14.05zm3.738-9.34l-.014-.007-.115-.02.13.026zm-.473-.19l-.044-.01-.044-.007.18.075-.02.003-.02.003.24.07-.12-.03.27.06-.01-.01-.1-.05-.09-.05-.09-.04-.08-.04-.07-.03-.05-.02-.04-.01h-.03l-.01.01-.07-.02.15.06zm4.532-1.183l-.01-.003h-.02l-.02.01-.02.01-.03.02-.03.02-.03.03-.03.03-.04.04-.04.05-.04.05-.04.06-.01.01.12-.1-.04.03.18-.18-.04.03.14-.15-.11.1.1-.12-.05.04-.05.05.1-.12-.06.05zm14.44.237h.04l-.04-.01zm4.14-13.61l.02-.02-.12.17.01-.01h.01l-.05.05-.01.03-.02.02-.09.08.11-.14.02-.05v-.01l.12-.36.01-.01.01-.01.04-.06-.06.14.03-.06.04-.05-.08.15.03-.03.03-.03-.1.16.02-.02zm105.26 57.29c-26.1 21.63-29.62 44.11-41.5 57.87-.92 1.06-2.15 1.95-3.38 2.98-11.77 9.87-25.41-1.93-62.06 11.67-19.39 7.19-14.23-29.3 21.04-53.34 18.94-12.91 24.59-16.05 35.79-28.18"/><path d="M343.294 423.928l2.012 6.513-3.143 6.05-.02.02-.6.47-.26.21-.305.25-.557.46-.55.45-.54.46-.53.45-.53.45-.52.46-.51.45-.5.45-.5.46-.49.46-.49.46-.47.45-.47.45-.47.46-.46.45-.45.46-.45.45-.44.46-.43.46-.43.45-.43.45-.42.46-.41.46-.41.45-.4.45-.39.46-.39.45-.38.45-.38.45-.38.45-.37.46-.37.45-.36.46-.36.45-.25.33-.09.13-.35.45-.34.45-.34.45-.33.45-.33.46-.32.46-.32.45-.32.45-.31.45-.31.45-.31.45-.3.45-.3.45-.3.45-.3.45-.29.45-.29.45-.28.45-.28.45-.28.45-.28.44-.27.45-.27.45-.54.9-.53.89-.52.89-.52.89-.5.89-.51.89-.5.88-.49.88-.98 1.76-.97 1.74-.95 1.73-.48.87-.48.85-.49.86-.49.85-.44.76-.05.09-.49.84-.49.84-.26.43-.25.42-.26.42-.25.42-.26.41-.26.41-.26.41-.26.41-.27.41-.27.41-.27.41-.27.41-.28.4-.29.4-.29.4-.29.4-.29.39-.3.39-.3.4-.31.39-.31.39-.31.39-.31.39-.32.38-.33.38-.34.39-.16.17-.18.2-.3.31-.31.31-.31.3-.31.28-.29.26-.29.24-.27.23-.27.22-.26.21-.47.37-.45.35-.2.16-.23.18-.35.27-.38.3-.39.29-.39.28-.4.27-.39.27-.4.25-.4.24-.41.24-.41.22-.41.22-.42.21-.42.2-.42.19-.42.19-.42.17-.42.17-.42.15-.42.14-.42.14-.43.13-.41.13-.42.12-.42.1-.42.1-.42.09-.42.09-.42.08-.42.07-.42.07-.42.06-.41.06-.41.06-.41.04-.41.05-.41.04-.41.03-.41.03-.41.02-.4.02-.41.02-.4.01-.4.01-.4.01h-.41l-.41.01h-1.61l-.82-.01h-.06l-.75-.01-.83-.01-1.67-.03-.86-.01-.87-.01-.87-.01h-1.77l-.91.01-.93.01h-.47l-.47.01-.47.02-.48.02-.49.02-.49.02-.49.02-.49.03-.5.03-.51.03-.51.04-.52.04-.52.04-.53.04-.54.05-.53.05-.55.06-.55.06-.56.07-.56.07-.56.08-.58.08-.58.09-.58.09-.6.09-.6.1-.61.1-.61.11-.62.12-.63.12-.63.12-.64.13-.65.14-.66.14-.66.15-.67.16-.68.16-.68.17-.7.17-.7.19-.08.02-.63.17-.71.21-.72.21-.73.22-.74.23-.74.24-.75.24-.76.25-.77.26-.78.27-.79.28-.8.28-.8.3-.85.32-.27.11-.3.11-.3.11-.31.1-.3.09-.3.09-.3.09-.31.08-.31.08-.31.07-.3.07-.3.06-.31.05-.31.05-.31.05-.31.04-.31.04-.31.03-.31.02-.31.01-.31.01h-.63l-.31-.01-.31-.01-.31-.02-.32-.03-.32-.03-.31-.04-.32-.04-.31-.06-.31-.06-.32-.08-.06-.02-.26-.06-.31-.08-.31-.09-.31-.11-.31-.11-.3-.12-.3-.12-.3-.13-.29-.14-.29-.15-.29-.15-.28-.17-.28-.17-.27-.18-.26-.19-.27-.19-.26-.2-.25-.21-.25-.21-.24-.22-.23-.22-.23-.23-.22-.23-.21-.24-.2-.24-.2-.25-.19-.24-.18-.26-.18-.26-.17-.26-.17-.26-.16-.26-.15-.26-.15-.26-.14-.26-.13-.27-.13-.27-.12-.27-.11-.27-.11-.28-.1-.28-.09-.28-.09-.28-.09-.28-.08-.28-.07-.28-.07-.28-.07-.28-.06-.28-.06-.28-.05-.28-.05-.29-.05-.28-.05-.28-.04-.28-.03-.29-.03-.28-.02-.28-.02-.28-.01-.29-.01-.28-.01-.28-.01-.29-.01-.29.01-.29v-.29l.01-.29v-.29l.01-.3.02-.29.02-.29.02-.3.02-.29.03-.3.03-.3.03-.29.04-.3.04-.3.05-.3.05-.3.05-.3.05-.3.05-.31.06-.3.06-.3.06-.3.07-.31.07-.31.07-.31.07-.31.08-.31.08-.31.09-.32.09-.31.09-.31.09-.32.09-.32.1-.31.1-.32.11-.32.11-.32.1-.31.11-.32.11-.32.11-.32.01-.03.11-.28.12-.33.12-.32.12-.33.13-.32.13-.33.13-.33.14-.33.27-.65.28-.66.3-.66.3-.66.32-.67.33-.67.34-.68.35-.67.36-.68.37-.68.38-.68.39-.67.2-.35.2-.34.21-.34.21-.34.21-.34.22-.35.21-.34.22-.34.22-.35.23-.34.23-.35.23-.34.24-.35.23-.34.24-.34.24-.35.24-.34.25-.35.25-.35.25-.35.26-.34.26-.35.26-.35.26-.35.27-.35.27-.34.27-.35.28-.35.28-.34.28-.35.28-.35.28-.35.29-.35.29-.35.29-.35.29-.34.3-.35.3-.35.31-.34.31-.34.31-.35.31-.34.31-.35.32-.34.31-.35.33-.34.33-.34.33-.34.33-.34.33-.35.34-.34.34-.34.34-.34.34-.34.35-.33.35-.34.36-.34.36-.33.36-.33.37-.34.37-.33.37-.34.37-.34.38-.33.37-.34.38-.33.39-.33.38-.33.39-.33.4-.32.4-.33.4-.32.4-.33.4-.33.41-.32.41-.32.41-.33.35-.27.07-.05.42-.32.42-.32.42-.32.43-.32.43-.31.43-.32.43-.32.43-.31 1.73-1.23 1.65-1.17 3.08-2.19 2.81-2 1.32-.93 1.26-.9 1.2-.86 1.15-.83 1.1-.81 1.06-.78.5-.38.5-.37.49-.37.48-.37.47-.36.46-.36.45-.35.45-.35.44-.35.43-.35.43-.35.43-.35.41-.35.41-.35.41-.35.41-.35.41-.35.4-.36.4-.36.4-.37.4-.37.4-.37.4-.38.4-.38.4-.39.4-.4.41-.4.41-.42.41-.42.42-.43.42-.44.43-.45.43-.46.44-.47.45-.49.45-.5.46-.51.47-.52.47-.53.49-.56.02-.02 6.2-2.82 6.4 2.35.04.04 2.83 6.19-2.34 6.4-.02.01-.55.56-.55.57-.55.55-.54.54-.53.53-.53.52-.53.51-.52.5-.51.5-.52.49-.51.48-.51.47-.5.47-.5.45-.5.45-.5.44-.5.44-.5.43-.5.42-.5.42-.5.42-.5.41-.5.41-.5.4-.5.4-.51.39-.51.39-.51.38-.51.39-.52.38-.52.38-.52.38-.53.38-.54.38-.54.38-.54.38-.55.39-.56.38-.56.39-.58.39-1.16.77-1.2.79-1.24.82-1.28.83-1.33.86-1.37.89-2.91 1.87-3.16 2.03-1.68 1.09-1.75 1.13-.39.26-.38.25-.38.25-.38.25-.37.25-.37.26-.37.26-.37.26-.06.04-.3.22-.36.26-.36.27-.36.26-.35.26-.35.27-.35.27-.34.27-.34.27-.34.27-.34.27-.33.27-.33.27-.33.27-.33.27-.33.28-.32.27-.32.27-.32.27-.32.28-.32.28-.31.27-.31.28-.3.28-.31.27-.3.28-.3.27-.29.27-.29.28-.29.28-.29.28-.28.28-.29.28-.28.28-.28.28-.27.28-.27.28-.27.28-.27.28-.27.28-.27.28-.26.28-.26.28-.26.28-.25.28-.25.28-.25.28-.24.28-.24.28-.24.28-.23.28-.23.28-.23.28-.23.28-.23.28-.22.28-.22.28-.22.28-.22.28-.22.28-.21.28-.21.28-.21.28-.21.28-.2.27-.2.28-.2.28-.2.27-.19.27-.19.28-.19.27-.18.28-.18.28-.18.27-.18.27-.18.27-.17.27-.17.26-.33.55-.32.53-.31.53-.3.53-.3.52-.28.52-.27.51-.26.51-.25.51-.24.5-.24.49-.22.5-.11.23-.1.24-.11.24-.1.24-.1.24-.09.23-.1.23-.08.21-.01.02-.08.23-.09.23-.09.22-.08.23-.08.22-.07.22-.08.22-.07.22-.07.21-.07.21-.06.21-.07.21-.06.21-.06.2-.05.21-.06.2-.05.2-.05.19-.04.19-.05.19-.04.2-.04.18-.04.18-.04.18-.04.18-.04.18-.02.17-.03.18-.02.17-.02.16-.02.16-.02.16-.02.155-.01.15-.01.15-.01.15-.01.14-.01.15-.01.13-.01.13v.26l-.01.13v.12l.01.11v.11l.01.11.01.11.01.1.01.1.01.09.01.09.01.08.01.08.01.08.02.07.02.07.01.06.01.04h.02l.08-.01.09-.02.09-.01.09-.02.1-.02.11-.02.11-.03.12-.03.12-.03.12-.03.13-.04.14-.04.28-.1.18-.06.87-.31.89-.31.88-.31.87-.29.86-.29.85-.28.85-.27.84-.26.83-.26.82-.24.82-.24.81-.23.8-.22.7-.19.09-.02.78-.21.78-.21.77-.19.76-.19.76-.18.75-.18.74-.17.73-.16.73-.16.72-.15.71-.14.71-.14.7-.13.69-.13.69-.12.68-.11.68-.1.67-.1.66-.1.65-.09.65-.09.64-.08.63-.07.63-.07.62-.07.61-.07.6-.06.6-.06.59-.05.59-.05.58-.04.58-.04.56-.04.56-.04.55-.03.55-.03.54-.025.53-.03.53-.03.53-.02 1.02-.03 1-.02.97-.02.95-.02.92-.01.9-.01h.87l1.66-.01h1.5l.74-.02.71-.02.69-.03.33-.02.33-.02.32-.01.31-.02.31-.03.3-.02.29-.02.29-.03.28-.03.27-.03.27-.03.26-.04.25-.04.25-.03.24-.04.24-.04.22-.05.23-.05.22-.05.21-.05.21-.05.2-.06.19-.05.19-.06.19-.06.19-.07.18-.07.17-.07.18-.07.17-.07.17-.08.17-.08.17-.08.16-.09.16-.09.16-.09.16-.093.16-.1.16-.11.16-.11.17-.12.17-.12.16-.12.17-.14.17-.14.2-.18.23-.19.26-.22.46-.4.43-.36.18-.16.17-.15.16-.14.14-.12.12-.11.1-.1.08-.08.06-.06.11-.13-.11.11.05-.06.02-.02.22-.26.22-.27.22-.28.22-.28.21-.29.22-.29.21-.3.21-.3.21-.31.22-.31.21-.31.21-.32.21-.32.21-.32.21-.33.21-.33.2-.33.21-.34.21-.34.2-.35.21-.35.21-.36.21-.36.21-.365.21-.37.2-.36.42-.76.42-.78.04-.08.37-.7.41-.8.42-.82.42-.83.43-.84.86-1.73.88-1.78.91-1.83.47-.94.48-.95.49-.95.5-.963.51-.98.53-.98.53-.99.54-1 .29-.52.28-.51.29-.51.29-.52.29-.51.3-.52.3-.52.3-.52.31-.53.32-.53.32-.53.32-.53.33-.53.34-.54.33-.53.34-.53.35-.54.35-.54.36-.54.36-.54.37-.54.37-.54.38-.55.1-.15.28-.4.39-.55.39-.55.4-.56.41-.55.42-.56.42-.56.42-.55.44-.56.44-.56.44-.56.45-.56.46-.56.46-.56.48-.56.47-.56.49-.57.49-.56.5-.57.51-.57.51-.56.52-.56.53-.57.54-.57.54-.56.55-.57.56-.56.56-.57.58-.57.58-.57.6-.568.6-.56.61-.57.62-.56.62-.57.34-.3.29-.26.62-.54.02-.02 6.51-2.01 6.04 3.15.04.04zm-118.382 72.367l-.004-.002.004.002zm-.02 0h.002l-.042-.02.04.02zm-.025-.006h.01l-.074-.03.064.02zm-.034-.01l.028.01-.09-.03.07.02z"/><path d="M191.982 451.853l.827.155.78.296.19.088.23.104.32.143.41.18.49.21.58.24.65.27.72.29.47.18.32.12.87.31.44.16.46.17.48.17.49.17.5.17.52.17.53.17.54.17.55.17.56.17.63.2.64.19.65.19.66.19.67.19.67.18.21.05.46.11.69.17.69.16.7.15.7.14.7.14.7.14.34.06 1.04.18.35.05.35.05.35.05.35.05.34.04.69.08.33.04.34.04.34.03.34.03.33.03.33.03.32.03.33.02.33.02.32.01.31.02.32.01.32.01h.91l.29-.01.29-.01.29-.01.28-.02.28-.02.28-.02.27-.03.27-.03.26-.03.22-.03h.03l.29-.04h.03l4.61 1.56 2.17 4.34v.06l-1.57 4.6-4.35 2.18h-.03l-.38.01h-.84l-.43-.01-.42-.01-.42-.02-.42-.01-.42-.03-.42-.03-.42-.03-.42-.04-.42-.04-.42-.05-.42-.06-.42-.05-.41-.06-.42-.06-.41-.07-.42-.07-.41-.07-.42-.08-.41-.08-.41-.08-.41-.09-.41-.08-.41-.09-.41-.1-.41-.09-.41-.1-.41-.1-.41-.1-.4-.1-.4-.11-.4-.11-.4-.11-.4-.12-.4-.11-.4-.12-.78-.23-.78-.24-.77-.25-.77-.25-.76-.26-.75-.26-.5-.18-.24-.08-.74-.26-.72-.25-.71-.26-.7-.26-.69-.26-.67-.25-.6-.23-.59-.23-.57-.23-.56-.22-.35-.15.01.05.09.3.09.31.1.31.1.32.1.31.1.32.02.07.09.25.11.32.12.32.13.33.13.33.27.65.28.66.15.34.15.33.15.34.16.34.16.34.4.79.13.23.38.68.19.34.2.34.2.34.21.34.22.34.21.34.22.34.23.33.23.33.24.34.25.34.25.33.25.33.26.33.26.33.27.32.27.32.28.33.28.32.29.32.29.31.3.32.3.32.31.31.32.31.25.23.07.07.33.3.34.3.34.29.34.29.35.29.36.28.37.28.37.28.37.27.38.27.39.27.4.27.19.13.2.13.21.13.2.13.42.25.42.25.21.12.22.12.21.12.22.12.22.12.44.24.68.34.23.11.23.11.23.11.47.22.24.11.24.1.49.2.25.1.24.1.27.11.02.01 3.25 3.6-.22 4.86-.02.05-3.61 3.26-4.85-.21-.03-.01-.3-.16-.31-.17-.31-.17-.3-.17-.31-.17-.31-.18-.31-.18-.3-.17-.3-.18-.29-.18-.29-.18-.29-.19-.29-.18-.29-.18-.28-.19-.28-.19-.28-.19-.28-.19-.27-.19-.27-.19-.27-.19-.27-.19-.27-.19-.26-.2-.26-.2-.26-.2-.26-.19-.25-.2-.25-.2-.26-.21-.49-.4-.48-.41-.47-.42-.46-.42-.45-.42-.45-.43-.44-.42-.43-.43-.42-.43-.41-.44-.4-.44-.4-.44-.08-.09-.3-.34-.38-.44-.38-.44-.36-.45-.36-.44-.35-.44-.34-.45-.33-.45-.32-.45-.32-.45-.31-.45-.31-.45-.3-.45-.29-.45-.29-.45-.28-.45-.27-.46-.27-.45-.25-.45-.25-.45-.24-.45-.24-.45-.23-.44-.23-.45-.22-.45-.21-.45-.21-.44-.2-.44-.13-.3-.07-.14-.2-.43-.19-.43-.18-.43-.18-.43-.17-.43-.17-.42-.16-.43-.16-.42-.16-.41-.15-.42-.14-.41-.14-.41-.13-.4-.13-.41-.12-.4-.09-.3-.03-.08-.12-.39-.12-.39-.11-.38-.11-.38-.11-.38-.1-.37-.09-.37-.09-.36-.09-.36-.08-.35-.08-.35-.08-.34-.08-.34-.07-.34-.13-.65-.05-.25-.08-.38-.13-.61-.12-.58-.1-.56-.09-.54-.09-.51-.07-.48-.07-.45-.06-.43-.05-.4-.04-.37-.04-.33-.03-.3-.02-.28-.03-.43-.02-.3-.01-.11.04-.83.19-.83.32-.78.45-.72.57-.62.66-.52.74-.4.8-.27.83-.13.84.01zm76.098-339.585l1.17.007 1.166.01 1.166.012 1.164.017 1.163.02 1.16.025 1.16.02 1.15.03 1.15.03 1.15.04 1.15.04 1.15.04 1.15.05 1.14.05 1.14.06 1.14.06 1.14.07 1.14.07 1.14.07 1.13.07 1.13.08 1.13.09 1.13.09 1.13.09 1.13.1 1.12.1 1.13.1 1.12.11 1.12.11 1.12.12 1.12.11 1.11.12 1.12.12 1.11.13 1.11.13 1.11.14 1.11.14 1.1.14 1.11.15 1.1.16 1.11.15 1.1.16 1.1.16 1.1.16 1.1.16 1.1.17 1.09.17 1.09.18 1.09.19 1.09.18 1.08.19 1.09.19 1.08.2 1.08.19 1.08.2 1.08.2 1.07.21 1.08.21 1.07.22 1.08.22 1.07.22 1.07.23 1.07.23 1.07.23 1.07.23 1.06.24 1.06.24 1.06.25 1.06.25 1.06.25 1.06.26 1.06.26 1.05.27 1.05.27 1.05.27 1.05.28 1.05.28 1.05.28 1.04.28 1.05.29 1.04.29 1.04.29 1.04.3 1.04.3 1.04.3 1.03.3 1.03.31 1.03.31 1.03.32 1.03.32 1.03.32 1.03.33 1.03.33 1.03.33 1.03.34 1.03.33 1.02.34 1.03.35 1.02.35 1.02.34 1.02.35 1.02.36 1.02.36 1.01.36 1.01.36 1.01.37 1.01.37 1.01.37 1.01.38 1.01.38 1.01.38 1 .38 1 .39 1 .39 1 .39 1 .4 1 .4 1 .4 1 .4 1 .41 1 .41.99.42.99.41 1 .42.99.42.98.43.99.43.99.43.98.43.98.43.98.44.98.44.98.44.98.45.98.45.98.45.97.46.96.46.98.53.92.63.85.72.77.8.68.88.59.95.49 1 .38 1.05.27 1.08.15 1.11.04 1.12-.08 1.11-.2 1.1-.31 1.07-.42 1.04-.53.99-.63.93-.72.85-.81.77-.88.68-.95.59-1 .48-1.05.38-1.08.27-1.11.15-1.12.04-1.12-.08-1.1-.2-1.07-.31-1.03-.42-.94-.44-.92-.44-.92-.43-.93-.43-.93-.43-.93-.42-.93-.42-.93-.42-.93-.41-.93-.41-.93-.4-.93-.4-.93-.4-.94-.4-.93-.4-.94-.39-.94-.39-.94-.39-.94-.38-.94-.38-.94-.38-.94-.38-.94-.38-.95-.37-.95-.37-.95-.36-.94-.37-.95-.36-.94-.35-.95-.35-.95-.35-.95-.35-.95-.34-.96-.34-.95-.35-.95-.34-.96-.33-.96-.33-.96-.33-.96-.33-.96-.32-.96-.32-.96-.31-.97-.31-.96-.31-.97-.31-.96-.31-.97-.3-.97-.3-.97-.3-.97-.29-.98-.3-.97-.29-.97-.29-.98-.28-.97-.28-.98-.27-.98-.27-.98-.27-.98-.26-.99-.26-.99-.26-.98-.25-.98-.25-.98-.25-.99-.25-.99-.24-.99-.24-.99-.24-.99-.24-1-.23-1-.23-.99-.23-1-.22-1-.22-1-.22-1-.21-1.01-.21-1.01-.21-1.01-.21-1.01-.21-1.01-.2-1.01-.19-1.01-.19-1.02-.19-1.02-.18-1.02-.18-1.02-.18-1.02-.18-1.02-.17-1.02-.17-1.03-.16-1.03-.16-1.03-.16-1.03-.15-1.03-.15-1.03-.15-1.03-.15-1.03-.14-1.03-.14-1.04-.13-1.04-.13-1.04-.13-1.04-.12-1.05-.12-1.04-.12-1.05-.12-1.04-.11-1.05-.1-1.05-.11-1.06-.1-1.05-.1-1.06-.09-1.06-.09-1.05-.09-1.06-.08-1.06-.08-1.07-.08-1.07-.07-1.07-.07-1.07-.06-1.07-.06-1.07-.06-1.07-.06-1.08-.05-1.08-.05-1.08-.04-1.08-.04-1.08-.04-1.09-.04-1.08-.03-1.09-.03-1.09-.03-1.09-.02-1.09-.01-1.09-.02-1.1-.01h-3.29l-1.1.01-1.1.01-1.11.01-1.11.02-1.11.02-1.12.03-1.12.03-1.11.03-1.12.04-1.12.04-1.12.05-1.12.04-1.13.05-1.13.05-1.13.06-1.13.06-1.14.07-1.13.07-1.14.07-1.14.07-1.14.08-1.15.09-1.15.09-1.15.09-1.15.1-1.15.1-1.15.1-1.16.11-1.16.11-1.16.12-1.16.12-1.17.13-1.17.12-1.17.13-1.17.13-1.17.14-1.18.14-1.17.15-1.18.15-1.18.15-1.18.16-1.18.16-1.19.17-1.19.17-1.19.18-1.2.18-1.2.18-1.2.19-1.2.2-1.2.2-1.21.2-1.2.2-1.21.21-1.21.21-1.22.22-1.22.22-1.22.23-1.22.23-1.22.23-1.22.24-1.23.24-1.23.25-1.23.25-1.23.25-1.24.25-1.24.26-1.24.26-1.24.27-1.25.27-1.25.28-1.25.28-1.25.29-1.25.29-1.26.3-1.26.3-1.26.31-1.27.31-1.26.31-1.27.32-1.28.32-1.27.33-1.27.33-1.28.34-1.28.34-1.29.35-1.29.35-1.29.35-1.29.36-1.29.37-1.3.37-1.3.37-1.31.38-1.3.38-1.31.38-1.31.39-1.31.39-1.31.4-1.31.4-1.32.41-1.32.42-1.32.42-1.33.43-1.33.43-1.33.43-1.34.44-1.34.44-1.34.45-1.34.45-1.35.45-1.35.46-1.34.46-1.36.47-1.36.47-1.36.48-1.36.48-1.34.48-.36.13-.32.13-.31.12-.3.12-.29.12-.27.12-.26.12-.25.12-.24.12-.23.12-.22.11-.21.12-.2.11-.19.11-.18.11-.16.11-.16.1-.15.1-.14.1-.14.1-.13.1-.12.1-.11.09-.11.09-.11.09-.09.08-.08.09-.09.08-.08.08-.08.08-.07.08-.14.16-.06.08-.06.08-.12.16-.06.09-.05.08-.06.09-.05.09-.06.09-.05.09-.05.1-.05.1-.05.11-.05.11-.05.11-.05.12-.06.13-.05.13-.05.13-.05.14-.05.14-.05.15-.05.16-.05.16-.05.17-.1.36-.05.19-.05.19-.04.2-.05.21-.05.21-.05.22-.05.23-.05.22-.09.5-.09.5-.09.53-.09.56-.09.58-.09.6-.19 1.26-.1.66-.11.68-.11.71-.12.72-.13.75-.14.76-.14.76-.08.41-.08.4-.09.41-.09.41-.09.41-.1.42-.1.42-.11.42-.11.43-.12.43-.12.43-.13.43-.12.44-.14.45-.14.45-.15.45-.15.45-.16.46-.16.45-.17.46-.17.46-.18.47-.19.46-.2.47-.2.47-.21.47-.22.48-.22.47-.24.47-.21.41-.55.97-.65.91-.75.83-.83.74-.9.66-.97.56-1.02.46-1.06.34-1.09.24-1.12.12h-1.1l-1.11-.12-1.1-.23-1.06-.34-1.02-.46-.96-.56-.91-.66-.83-.74-.75-.83-.66-.91-.57-.97-.45-1.02-.34-1.06-.24-1.09-.12-1.12v-1.11l.12-1.11.23-1.1.34-1.06.46-1.02.15-.3.12-.24.11-.24.12-.24.1-.24.11-.24.11-.24.09-.24.09-.24.09-.24.09-.25.08-.24.09-.25.08-.24.08-.25.08-.25.08-.25.07-.26.07-.25.07-.26.07-.26.07-.26.06-.26.06-.27.07-.27.06-.27.06-.27.05-.28.06-.27.05-.27.11-.58.11-.57.1-.58.09-.6.09-.6.09-.62.1-.63.19-1.28.1-.66.11-.67.11-.69.12-.7.13-.71.13-.71.08-.38.08-.37.08-.38.08-.38.09-.38.09-.38.1-.39.1-.39.1-.39.11-.4.12-.4.12-.4.13-.4.13-.41.14-.41.15-.41.15-.42.17-.42.17-.42.18-.42.19-.42.19-.42.2-.42.21-.42.22-.42.24-.43.24-.42.25-.42.26-.42.27-.42.28-.41.29-.41.3-.41.31-.4.32-.4.33-.4.33-.39.35-.39.35-.38.37-.38.37-.38.38-.36.39-.36.4-.36.41-.35.42-.35.42-.34.44-.33.44-.33.45-.32.45-.31.46-.31.47-.3.48-.29.48-.29.49-.28.5-.28.5-.27.51-.26.52-.26.53-.25.54-.24.54-.24.54-.23.56-.23.56-.22.57-.22.55-.2 1.44-.51 1.41-.5 1.41-.5 1.4-.49 1.4-.48 1.4-.48 1.4-.48 1.4-.47 1.4-.47 1.39-.46 1.39-.46 1.39-.46 1.39-.45 1.38-.44 1.38-.44 1.37-.44 1.37-.43 1.37-.43 1.37-.42 1.37-.42 1.36-.41 1.36-.41 1.36-.4 1.36-.4 1.36-.39 1.35-.39 1.35-.38 1.34-.38 1.35-.37 1.34-.37 1.35-.37 1.34-.36 1.34-.35 1.34-.35 1.33-.34 1.33-.34 1.33-.34 1.32-.33 1.32-.33 1.32-.33 1.32-.32 1.32-.32 1.32-.32 1.31-.3 1.32-.3 1.31-.3 1.3-.29 1.31-.28 1.3-.29 1.3-.28 1.3-.27 1.3-.27 1.29-.26 1.29-.26 1.29-.26 1.28-.25 1.29-.25 1.29-.24 1.28-.24 1.28-.24 1.28-.23 1.28-.23 1.28-.22 1.28-.22 1.27-.22 1.27-.21 1.26-.21 1.27-.21 1.27-.19 1.26-.19 1.26-.19 1.26-.19 1.25-.18 1.25-.18 1.25-.18 1.25-.17 1.24-.16 1.24-.17 1.24-.15 1.24-.15 1.24-.15 1.24-.15 1.23-.14 1.23-.13 1.23-.13 1.22-.13 1.23-.12 1.22-.12 1.22-.12 1.22-.11 1.22-.11 1.22-.1 1.21-.1 1.22-.09 1.21-.09 1.21-.08 1.21-.08 1.21-.08 1.2-.07 1.2-.07 1.21-.06 1.2-.06 1.2-.06 1.2-.05 1.19-.05 1.19-.04 1.19-.04 1.19-.04 1.19-.03 1.19-.03 1.18-.02 1.18-.03 1.18-.01 1.18-.01 1.18-.01 1.18-.01h2.35z"/><path d="M101.475 177.045l.775.068.77.125.757.18.742.236.72.287.7.35.67.4.64.44.61.49.57.53.53.57.49.61.44.65.39.67.34.7.29.72.24.74.18.76.13.77.07.78.02.78-.04.78-.1.77-.15.77-.21.75-.27.74-.32.71-.37.69-.42.66-.51.74-.47.7-.46.7-.45.69-.44.69-.43.69-.43.69-.2.33-.21.34-.2.34-.2.34-.2.34-.2.34-.19.34-.19.34-.19.33-.18.33-.18.34-.36.67-.18.33-.17.33-.17.33-.33.66-.16.33-.16.33-.16.33-.16.33-.15.33-.31.66-.3.64-.29.65-.41.97-.27.64-.13.32-.13.32-.25.63-.12.32-.24.63-.11.32-.22.63-.11.31-.21.62-.1.31-.1.31-.19.62-.18.62-.09.31-.09.31-.08.3-.08.31-.08.3-.08.3-.08.31-.08.3-.21.9-.07.3-.07.3-.06.3-.06.3-.06.3-.06.29-.06.3-.05.29-.1.59-.1.59-.05.3-.05.29-.04.29-.04.29-.03.29-.04.29-.1.87-.03.29-.05.57-.05.57-.02.29-.05.85-.01.28-.01.28-.01.29-.02.56v1.67l.01.28.01.28.01.28.01.28.02.56.01.27.05.83.02.27.05.55.03.27.03.27.03.27.03.28.03.27.07.54.12.82.04.27.04.27.1.55.04.27.16.81.05.27.06.27.06.27.06.28.06.27.07.27.07.27.06.27.06.27.14.54.07.25.15.55.16.54.16.54.17.54.18.54.18.53.19.53.2.54.2.54.21.54.21.53.23.53.22.53.24.54.24.53.24.53.25.53.25.53.27.53.27.53.28.53.28.53.29.53.29.53.3.53.31.53.32.53.32.53.33.53.34.52.35.53.35.53.36.53.36.53.37.53.38.53.38.53.39.52.4.52.4.53.4.53.41.53.42.53.43.52.43.52.44.52.44.52.45.52.46.53.46.52.47.53.47.52.48.52.49.52.49.52.5.52.51.51.51.52.52.51.52.51.52.51.53.51.54.51.54.51.55.51.56.51.56.51.57.51.57.51.58.51.58.5.59.51.6.5.6.51.61.5.61.5.62.5.62.5.63.5.64.5.64.49.64.49.66.49.65.49.66.49.67.49.67.49.68.48.68.48.69.49.69.49.7.48.7.48.71.48.71.48.72.48.72.48.73.48.73.47.74.48.74.47.75.47.75.47.75.47.76.46.77.47.77.46.78.46.78.47.78.46.79.46.8.46.8.46.8.45.81.46.81.45.81.45.82.45.83.45.83.45.83.44.83.45.84.44.84.45.85.44.85.44.85.44.86.44.86.44.86.43.87.43.87.43.87.43.88.43.88.43.89.42.89.42.89.42.89.43.9.42.9.42.9.42.91.42.91.41.92.41.92.41.92.41.92.4.93.4.93.41.94.4.94.4.94.4.94.4.95.4.95.4.95.39.96.39.96.39.96.39.97.39.96.38.97.38.97.38.98.38.98.38.98.37.98.37.99.37.99.37.99.37.99.37 1 .37 1 .36 1.01.37.72.29.7.35.67.4.65.45.6.49.57.53.53.58.49.61.44.64.39.68.35.7.29.72.23.74.18.76.12.77.07.78.01.78-.05.78-.1.78-.16.77-.22.75-.26.73-.32.71-.37.68-.42.66-.47.62-.51.59-.55.55-.59.51-.63.46-.66.42-.69.37-.71.32-.73.26-.75.21-.76.15-.78.1-.78.04-.77-.01-.78-.07-.76-.13-.76-.19-.74-.24-1.03-.38-1.04-.38-1.04-.38-1.04-.38-1.03-.39-1.04-.39-1.03-.39-1.02-.39-1.03-.4-1.03-.4-1.02-.4-1.02-.4-1.02-.4-1.02-.4-1.01-.41-1.01-.41-1-.41-1-.41-1-.41-1-.41-.99-.42-1-.42-.99-.42-.99-.42-.99-.42-.98-.43-.98-.43-.98-.43-.97-.43-.97-.43-.97-.43-.97-.44-.97-.44-.96-.44-.96-.44-.95-.44-.95-.45-.95-.44-.94-.45-.94-.45-.94-.46-.93-.45-.93-.46-.94-.46-.93-.46-.92-.47-.92-.46-.92-.47-.92-.47-.91-.47-.91-.47-.91-.47-.9-.47-.89-.48-.9-.48-.89-.48-.88-.48-.88-.49-.87-.48-.88-.49-.87-.49-.87-.5-.86-.5-.86-.49-.85-.5-.85-.5-.85-.5-.84-.5-.84-.51-.83-.51-.83-.5-.83-.51-.83-.51-.82-.52-.81-.52-.81-.52-.81-.53-.8-.52-.8-.53-.8-.53-.79-.53-.78-.53-.78-.53-.77-.53-.77-.54-.77-.54-.77-.54-.76-.54-.76-.55-.75-.55-.75-.55-.74-.55-.74-.55-.73-.56-.73-.56-.72-.56-.72-.57-.71-.56-.71-.57-.7-.57-.7-.58-.69-.58-.69-.58-.68-.58-.68-.58-.67-.58-.67-.58-.66-.59-.66-.59-.66-.6-.65-.59-.64-.6-.64-.61-.63-.6-.63-.6-.62-.61-.62-.61-.61-.61-.61-.61-.6-.62-.59-.62-.59-.62-.58-.63-.58-.62-.57-.63-.57-.64-.56-.63-.55-.64-.54-.64-.54-.65-.54-.64-.52-.65-.53-.65-.52-.66-.51-.65-.5-.66-.49-.66-.49-.67-.48-.66-.48-.67-.47-.68-.47-.68-.46-.68-.45-.68-.44-.68-.44-.69-.43-.69-.42-.69-.42-.7-.41-.7-.41-.71-.4-.7-.39-.71-.38-.71-.38-.71-.37-.72-.36-.72-.35-.72-.35-.73-.34-.72-.33-.74-.32-.73-.31-.74-.31-.74-.3-.74-.29-.75-.28-.75-.28-.75-.27-.75-.25-.75-.25-.76-.24-.76-.23-.76-.22-.76-.21-.76-.11-.4-.1-.38-.1-.39-.1-.38-.1-.39-.09-.38-.09-.39-.09-.39-.08-.39-.09-.39-.08-.39-.08-.39-.08-.39-.08-.4-.07-.39-.07-.39-.07-.39-.07-.39-.06-.4-.06-.39-.07-.4-.05-.4-.05-.4-.05-.4-.05-.4-.05-.4-.04-.4-.04-.4-.04-.4-.04-.4-.04-.41-.03-.4-.03-.4-.03-.4-.03-.41-.02-.4-.03-.4-.02-.4-.01-.4-.01-.4-.02-.41-.01-.41-.01-.41v-1.23l.01-.41v-.8l.01-.41.01-.41.01-.41.01-.41.02-.41.03-.41.02-.41.02-.41.03-.41.03-.41.03-.41.03-.42.04-.41.05-.41.04-.41.05-.42.04-.41.05-.42.05-.41.05-.41.06-.41.07-.42.06-.41.07-.42.07-.42.07-.42.08-.41.07-.42.08-.41.08-.42.09-.42.09-.42.09-.42.09-.41.09-.41.1-.42.1-.42.1-.42.11-.42.1-.42.11-.42.11-.41.11-.42.12-.42.12-.42.12-.42.13-.42.13-.42.13-.42.13-.42.14-.41.13-.42.14-.42.14-.42.14-.42.15-.42.15-.42.15-.41.15-.41.16-.42.16-.42.16-.42.16-.42.17-.42.16-.42.17-.42.17-.42.17-.414.18-.42.18-.42.19-.42.19-.42.19-.42.19-.42.2-.42.2-.42.2-.42.2-.42.21-.42.21-.42.21-.42.21-.42.22-.42.21-.42.22-.42.22-.42.23-.41.22-.42.23-.42.23-.42.23-.42.24-.42.24-.42.24-.42.24-.42.25-.42.25-.42.25-.42.26-.43.51-.83.53-.84.54-.84.54-.85.56-.84.56-.84.55-.8.46-.63.51-.59.55-.55.59-.51.63-.46.65-.42.69-.37.71-.32.73-.27.75-.21.76-.16.77-.1.77-.04.78.01z"/><path d="M207.765 324.98l.813.09.803.15.79.216.77.273.75.33.72.38.69.44.65.49.61.54 1.14 1.08 1.15 1.1 1.14 1.11 1.14 1.11 1.13 1.12 1.13 1.12 1.12 1.12 1.12 1.13 1.12 1.13 1.1 1.14 1.1 1.14 1.1 1.14 1.1 1.14 1.09 1.15 1.09 1.14 1.09 1.14 1.08 1.14 1.08 1.15 2.14 2.29 2.14 2.28 2.12 2.28 2.11 2.27 2.11 2.26 2.1 2.25 1.04 1.13 1.05 1.11 1.05 1.11 1.05 1.1 1.05 1.1 1.05 1.1 1.05 1.09 1.04 1.09 1.04 1.08 1.05 1.07 1.04 1.06 1.05 1.06 1.04 1.05 1.04 1.04 1.05 1.04 1.05 1.03 1.05 1.02 1.04 1.01 1.05 1.01.52.49.53.49.52.49.52.49 1.04.97.53.48.52.48.53.48.53.47 1.05.95.53.46.52.46.53.46.53.45.53.46.52.45.53.45.53.45.53.44.53.44.53.43.53.43.53.43.53.42.53.42.53.42.54.42.54.42.53.41.54.41.54.4.54.4.54.4.54.39.54.39.54.39.54.39.54.38.54.38.54.37.54.37.54.36.55.36.55.36.54.35.54.35.55.35.55.34.55.34.55.33.54.34.55.32.55.33.55.32.56.31.55.31.56.31.56.31.56.3.56.29.56.29.56.28.56.28.56.28.56.28.56.27.56.26.57.26.57.25.57.25.57.25.57.24.57.24.57.23.58.23.58.23.58.22.58.22.59.21.58.21.58.2.58.2.59.19.58.19.59.19.59.18.6.17.6.17.59.16.6.16.6.16.6.15.6.15.61.14.61.14.61.13.61.13.61.12.62.12.62.12.62.11.62.1.62.09.62.09.63.08.63.08.64.07.64.07.64.06.64.06.65.05.65.04.65.04.65.04.66.03.65.03.66.02.67.01.66.01h1.35l.67-.01.68-.01.68-.02.68-.02.69-.03.69-.04.7-.04.7-.05.7-.06.7-.06.71-.07.71-.07.71-.08.71-.09.73-.09.73-.09.73-.11.73-.12.74-.12.74-.12.75-.14.75-.14.76-.15.76-.15.76-.16.77-.16.76-.17.78-.18.77-.19.78-.2.78-.2.79-.21.8-.22.8-.22.84-.24.79-.19.81-.14.82-.08h.82l.82.05.81.12.8.17.78.24.76.3.74.36.71.4.67.46.64.51.6.56.55.6.51.64.45.68.4.71.35.74.29.77.23.79.16.8.11.81.04.82-.02.82-.08.81-.15.8-.21.8-.27.77-.33.75-.38.72-.43.69-.49.66-.54.62-.59.57-.63.52-.67.47-.69.42-.73.37-.76.31-.78.26-.91.26-.95.27-.94.26-.94.25-.93.24-.94.23-.93.22-.93.21-.93.21-.93.2-.92.19-.92.19-.91.18-.91.17-.91.16-.91.15-.9.14-.9.14-.9.13-.9.12-.9.11-.89.11-.89.1-.89.09-.88.08-.88.08-.87.07-.87.06-.87.05-.87.05-.87.04-.86.03-.86.02-.86.02-.86.01h-.86l-.86-.01-.85-.01-.85-.02-.84-.03-.84-.04-.84-.04-.83-.05-.83-.05-.82-.06-.83-.07-.82-.08-.82-.08-.82-.09-.81-.1-.82-.1-.81-.11-.81-.12-.8-.12-.8-.13-.8-.14-.79-.14-.8-.15-.79-.15-.79-.16-.79-.17-.78-.17-.78-.18-.77-.19-.77-.19-.77-.2-.77-.21-.77-.21-.76-.22-.76-.23-.75-.23-.75-.24-.75-.24-.75-.25-.74-.26-.74-.26-.74-.26-.73-.26-.73-.27-.73-.28-.72-.28-.72-.29-.72-.3-.72-.29-.72-.3-.71-.31-.71-.31-.71-.32-.7-.33-.7-.33-.7-.33-.7-.34-.69-.34-.69-.35-.69-.35-.68-.36-.68-.36-.68-.36-.67-.37-.67-.37-.67-.37-.66-.38-.67-.39-.66-.39-.66-.4-.66-.4-.66-.4-.66-.41-.65-.4-.65-.41-.65-.42-.64-.42-.64-.43-.64-.43-.63-.43-.63-.43-.64-.43-.63-.44-.63-.45-.63-.44-.62-.45-.62-.45-.62-.45-.62-.46-.61-.46-.61-.47-.62-.47-.61-.47-.61-.47-.61-.48-.61-.47-.6-.48-.6-.48-.6-.49-.59-.49-.6-.49-.59-.49-.59-.49-.59-.5-.59-.5-.59-.5-.59-.51-.58-.5-.58-.51-.58-.51-.58-.52-.58-.52-.57-.52-.58-.52-.57-.52-.57-.52-.57-.53-.57-.53-.57-.53-.57-.53-.56-.53-.57-.54-.56-.54-1.12-1.07-1.12-1.08-1.11-1.08-1.11-1.09-1.11-1.1-1.1-1.11-1.09-1.11-1.09-1.11-1.09-1.11-1.09-1.12-1.08-1.13-1.08-1.12-1.08-1.13-1.07-1.13-1.08-1.13-1.07-1.13-1.06-1.13-1.06-1.14-1.07-1.14-2.12-2.28-2.12-2.28-2.12-2.27-2.11-2.27-2.11-2.27-2.11-2.26-1.06-1.13-1.06-1.11-1.06-1.12-1.06-1.11-1.05-1.11-1.06-1.11-1.06-1.1-1.06-1.09-1.06-1.09-1.06-1.08-1.06-1.08-1.07-1.07-1.06-1.07-1.07-1.06-1.07-1.05-1.07-1.04-1.07-1.04-1.09-1.04-.57-.59-.52-.63-.48-.67-.42-.7-.37-.73-.31-.76-.25-.78-.19-.79-.12-.81-.07-.81V335l.06-.82.12-.81.18-.8.24-.78.31-.75.36-.73.41-.7.47-.68.52-.63.56-.59.61-.55.65-.5.68-.45.72-.39.75-.34.77-.28.79-.22.8-.16.81-.09.81-.03.81.03z"/><path d="M508.85 259.775l2.053 2.126.07 3.07-.276.77-.26.74-.258.74-.26.74-.25.74-.24.75-.24.74-.24.75-.23.75-.22.75-.23.75-.22.75-.21.75-.21.75-.21.76-.2.75-.39 1.51-.18.76-.19.76-.18.76-.17.76-.17.76-.17.76-.17.77-.16.77-.15.76-.15.77-.15.77-.15.77-.14.77-.14.77-.13.77-.13.77-.13.77-.12.77-.12.77-.12.77-.11.78-.11.78-.11.77-.1.78-.07.54-.03.23-.1.78-.1.77-.18 1.56-.09.78-.16 1.55-.15 1.55-.07.78-.07.78-.07.78-.07.78-.05.78-.06.78-.06.78-.06.78-.05.77-.05.78-.09 1.55-.08 1.55-.03.77-.06 1.54-.03.77-.03.77-.02.77-.04 1.54-.03 1.53-.01.77-.01.58-.01.17-.03 1.53-.02 1.53-.02 1.52-.01 1.52v3.02l.01 1.51.02 1.5.03 1.5.02 1.49.04 1.48.04 1.48.04 1.47.05 1.46v.11l.02 1.35.02 1.45.02 1.45.03 1.44.03 1.43.04 1.42.04 1.41.04 1.41.04 1.39.09 2.77.02.45.02.47.01.47.01.47.01.93v.47l-.01.48-.01.93-.02.94-.02.94-.03.94-.04.93-.05.93-.06.94-.06.94-.07.94-.08.94-.09.94-.1.93-.11.94-.12.93-.12.94-.13.93-.14.94-.1.61-.05.32-.16.94-.16.93-.17.93-.18.93-.19.93-.2.93-.2.92-.21.93-.22.92-.23.92-.24.93-.25.92-.25.92-.26.92-.27.92-.27.91-.28.91-.28.91-.3.91-.3.91-.31.9-.32.9-.32.9-.33.89-.34.89-.34.89-.36.89-.36.89-.36.88-.38.87-.38.88-.39.87-.4.87-.4.87-.41.87-.42.86-.42.86-.43.85-.44.85-.45.85-.45.85-.46.84-.47.84-.48.83-.48.83-.31.53-.18.3-.5.82-.51.82-.52.81-.52.8-.53.81-.54.8-.53.79-.55.79-.55.79-.56.78-.57.78-.58.77-.58.77-.58.75-.3.39-.3.37-.6.75-.3.37-.31.37-.31.37-.31.37-.31.37-.31.37-.31.37-.63.73-.64.72-.32.36-.33.35-.32.36-.33.35-.33.35-.33.35-.33.35-.33.35-.34.34-.34.35-.34.34-.34.34-.34.34-.35.34-.34.34-.35.33-.34.33-.35.34-.36.33-.35.33-.35.33-.36.33-.36.32-.36.33-.36.32-.36.32-.37.32-.37.32-.36.31-.37.31-.37.31-.37.31-.37.31-.38.3-.38.3-.38.3-.38.3-.38.3-.38.29-.39.29-.39.29-.39.29-.39.29-.39.29-.4.29-.39.28-.4.28-.4.28-.4.27-.4.28-.4.28-.4.27-.41.27-.4.27-.41.26-.11.07-.3.19-.41.26-.41.25-.41.25-.41.25-.42.25-.42.25-.42.25-.43.25-.43.24-.43.24-.43.24-.43.23-.43.23-.44.23-.44.22-.44.22-.44.22-.44.22-.44.22-.44.21-.42.19-1.77.85-1.77.86-1.8.88-1.81.9-1.84.91-.92.46-.93.46-.93.47-.93.47-.94.48-.94.48-.94.48-.95.49-.94.49-.95.5-.95.5-.95.51-.95.51-.95.51-.96.52-.95.52-.96.53-.95.53-.95.53-.95.54-.94.54-.01.01-.96.54-.96.54-.95.55-.96.55-.95.55-.95.55-.95.56-.94.57-.94.56-.94.57-.93.57-.94.58-.93.58-.92.59-.92.59-.91.59-.91.6-.9.6-.9.6-.89.6-.89.61-.88.61-.87.61-.87.62-.86.62-.86.62-.84.63-.84.64-.41.31-.42.32-.41.32-.41.32-.41.32-.41.31-.4.32-.4.32-.4.32-.41.34-1.4.97-1.54.73-1.64.48-1.69.2-1.71-.07-1.67-.35-1.6-.61-1.47-.86-1.32-1.09-1.12-1.29-.9-1.45-.66-1.57-.39-1.66-.06-.35-.05-.48-.04-.49-.09-1.48-.14-2.28-.19-2.99-.01-.2-.4-7.5-.48-9.27-1.04-19.84-.46-8.84-.1-1.88-.24-5.09-.17-3.76-.17-3.68-.08-1.81-.08-1.8-.07-1.78-.07-1.76-.07-1.74-.06-1.72-.06-1.7-.05-1.68-.05-1.67-.05-1.65-.04-1.63-.05-1.61-.04-1.6-.03-1.59-.03-1.56-.03-1.55-.02-1.53-.01-1.52-.01-1.5-.01-.97V389l.01-1.47.01-1.46.02-1.44.02-1.42.02-1.41.03-1.394.03-1.38.04-1.37.05-1.36.05-1.34.05-1.32.06-1.31.07-1.3.08-1.29.07-1.27.09-1.26.09-1.25.09-1.23.11-1.22.11-1.21.11-1.2.12-1.19.13-1.17.07-.59.07-.58.07-.58.07-.57.08-.57.07-.57.08-.56.08-.56.08-.56.08-.56.09-.55.06-.39.03-.17.11-.55.11-.55.11-.54.12-.54.11-.54.12-.54.11-.53.12-.53.12-.53.12-.53.12-.52.12-.52.13-.52.13-.51.13-.51.13-.51.13-.51.14-.5.14-.5.14-.5.15-.5.14-.49.14-.49.15-.49.15-.49.15-.48.15-.48.15-.48.16-.48.16-.475.16-.47.17-.47.17-.47.17-.46.16-.44.01-.03.18-.46.18-.45.19-.46.19-.46.19-.45.19-.45.2-.44.2-.44.2-.44.2-.44.21-.44.21-.44.21-.43.21-.43.21-.43.21-.43.22-.42.23-.42.23-.42.23-.41.23-.41.23-.41.23-.41.23-.41.24-.4.24-.41.25-.4.24-.4.25-.4.25-.39.25-.4.25-.39.26-.39.26-.38.26-.38.26-.39.27-.38.27-.38.28-.37.28-.38.28-.37.28-.37.28-.36.29-.37.29-.36.29-.37.29-.36.29-.36.3-.36.3-.35.1-.12.2-.23.31-.35.31-.34.31-.35.32-.35.31-.34.32-.34.32-.34.33-.34.33-.34.33-.33.33-.33.34-.33.34-.33.34-.33.34-.32.35-.32.35-.32.35-.31.35-.32.36-.31.36-.32.36-.31.36-.32.37-.31.37-.31.36-.31.38-.3.38-.3.38-.31.38-.3.38-.3.38-.3.39-.3.39-.3.39-.29.4-.29.4-.29.4-.3.41-.29.4-.29.41-.29.41-.29.42-.29.42-.29.42-.29.42-.29.43-.28.43-.29.43-.28.43-.28.44-.28.44-.28.44-.28.45-.28.45-.28.45-.28.45-.28.46-.27.46-.27.46-.28.93-.55.09-.05.84-.49.02-.01 3.02-.48 2.46 1.58.03.04.51 2.88-1.62 2.6-.02.02-.76.57-.08.06-.81.63-.4.31-.4.31-.4.31-.39.31-.39.31-.38.31-.38.31-.38.31-.37.31-.37.31-.36.31-.37.31-.36.31-.36.31-.35.31-.35.31-.35.31-.34.31-.34.31-.34.31-.33.31-.33.31-.32.31-.32.31-.32.31-.32.31-.32.32-.31.31-.31.31-.3.31-.3.32-.29.31-.29.31-.3.31-.28.31-.28.31-.28.31-.55.63-.27.32-.27.31-.26.31-.52.63-.26.32-.25.32-.25.31-.24.32-.24.32-.48.63-.24.32-.23.32-.23.32-.45.64-.44.65-.21.32-.21.32-.21.32-.21.33-.2.32-.2.33-.4.65-.39.65-.37.66-.19.33-.36.67-.18.33-.17.34-.17.34-.17.34-.16.34-.16.34-.16.34-.16.34-.16.34-.15.35-.15.35-.15.34-.15.35-.29.7-.14.35-.14.35-.14.36-.13.36-.13.36-.14.36-.13.36-.13.37-.12.37-.12.37-.12.37-.12.37-.12.37-.11.38-.11.37-.11.38-.21.76-.1.39-.1.39-.1.38-.1.4-.09.39-.01.03-.09.36-.19.79-.09.4-.1.4-.09.4-.09.41-.09.41-.09.41-.08.42-.08.42-.08.42-.07.42-.08.42-.07.43-.07.43-.07.44-.07.44-.07.44-.13.89-.06.45-.06.45-.06.45-.05.45-.06.46-.05.47-.05.47-.04.47-.05.47-.04.48-.04.47-.04.48-.04.49-.04.49-.01.15-.04.34-.05.49-.05.5-.04.5-.05.5-.04.51-.04.51-.04.51-.04.52-.04.52-.03.53-.03.52-.07 1.07-.06 1.08-.05 1.1-.05 1.1-.04 1.12-.03 1.14-.03 1.15-.02 1.17-.02 1.19v3.6l.01 1.25.02 1.26.02 1.28.03 1.29.03 1.31.04 1.33.04 1.35.05 1.36.06 1.38.056 1.4.06 1.41.03.5.04.94.06 1.45.07 1.47.07 1.48.07 1.5.08 1.52.083 1.54.09 1.56.09 1.57.09 1.59.1 1.61.1 1.63.11 1.65.12 1.67.12 1.69.12 1.71.13 1.73.13 1.74.13 1.76.14 1.78.28 3.63.3 3.72.41 5.07.14 1.88.65 8.83 1.46 19.81.36 4.93.5-.33 1-.65 1-.65 1-.64 1.01-.64 1.01-.64 1.01-.63 1.01-.63 1.02-.62 1.02-.61 1.02-.61 1.02-.61 1.02-.6 1.02-.59 1.02-.59 1.02-.58 1.02-.58.01-.01 1.01-.56 1.03-.56 1.02-.55 1.03-.55 1.02-.54 1.02-.54 1.02-.53 1.02-.53 1.01-.52 1.01-.52 1.01-.52 1-.51 1-.51 1-.5.99-.5.99-.49.98-.49.98-.48.98-.48.97-.47.97-.47 1.903-.92 1.89-.9 1.86-.88 1.83-.86 1.782-.83.36-.17.34-.16.34-.16.34-.17.34-.16.34-.17.34-.17.34-.17.34-.18.34-.17.33-.18.34-.18.33-.18.33-.18.33-.19.33-.18.32-.19.33-.19.32-.2.33-.19.33-.19.23-.14.09-.05.322-.2.33-.2.32-.2.33-.21.32-.2.32-.2.32-.21.32-.21.32-.21.32-.22.32-.21.31-.22.32-.22.31-.22.31-.22.31-.22.31-.23.3-.22.31-.23.31-.23.31-.23.31-.23.3-.23.31-.24.3-.23.3-.24.29-.24.3-.24.3-.24.29-.24.29-.25.29-.25.29-.25.29-.25.29-.25.28-.26.29-.25.29-.26.28-.26.29-.26.28-.26.28-.26.28-.26.28-.27.28-.27.28-.27.28-.27.27-.28.27-.27.27-.28.27-.28.27-.27.27-.28.27-.28.27-.28.27-.28.27-.28.26-.29.26-.29.26-.29.26-.29.26-.29.26-.29.26-.29.26-.3.26-.29.25-.3.26-.3.25-.3.25-.29.51-.62.49-.62.49-.62.49-.62.48-.63.48-.63.47-.63.47-.64.46-.65.46-.65.45-.66.45-.66.44-.67.44-.66.16-.25.27-.43.43-.67.43-.68.42-.68.41-.68.41-.69.4-.69.4-.7.39-.7.38-.7.38-.71.37-.71.37-.71.36-.72.36-.72.35-.72.34-.72.34-.73.33-.74.32-.73.32-.74.32-.74.31-.74.3-.74.3-.75.29-.74.29-.75.28-.76.28-.76.27-.76.26-.76.25-.76.25-.77.25-.77.24-.77.23-.77.23-.77.22-.77.21-.77.2-.78.2-.77.19-.78.18-.78.18-.78.17-.78.17-.78.06-.27.11-.52.16-.78.15-.78.14-.78.14-.79.13-.78.12-.79.12-.78.11-.78.11-.78.1-.79.09-.79.08-.78.08-.78.07-.78.06-.78.06-.79.05-.79.02-.38.02-.39.02-.39.01-.39.01-.39.01-.39.01-.39.01-.4.06-2.78.03-1.42.04-1.43.03-1.43.04-1.45.04-1.46.04-1.47.05-1.48.05-1.49.06-1.38.01-.11.08-1.5.1-1.51.1-1.52.1-1.53.11-1.54.11-1.54.12-1.55.12-1.55.13-1.57.13-1.56.15-1.57.15-1.58.16-1.58.17-1.58.02-.18.08-.61.1-.8.1-.8.1-.79.1-.8.1-.8.1-.8.11-.8.11-.8.11-.8.12-.81.12-.8.12-.8.13-.8.13-.81.13-.81.13-.81.13-.81.14-.81.14-.81.14-.81.15-.8.14-.81.15-.8.15-.81.16-.81.15-.81.16-.81.16-.81.17-.81.17-.8.18-.8.17-.81.18-.81.18-.8.06-.24.13-.57.19-.8.2-.8.2-.8.2-.8.2-.8.21-.8.21-.8.22-.8.21-.8.22-.8.23-.8.22-.79.23-.8.24-.79.24-.79.24-.79.25-.79.25-.79.25-.78.26-.79.26-.78.27-.79.27-.79.278-.79.28-.78.28-.78.28-.78.29-.78.29-.78.3-.77.3-.77.31-.77.31-.77.32-.76.32-.76.32-.77.32-.76.33-.76.33-.76.34-.75.34-.75.35-.74.02-.02 2.22-2.13 2.96-.05.04.02zm-301.475-62.092l-.325.807-.15.088-.148.087-.303.174-.31.17-.31.17-.31.17-.31.16-.31.16-.31.16-.28.14-.03.01-.31.15-.31.15-.31.15-.31.14-.31.15-.31.14-.31.15-.31.14-.31.14-.31.14-.31.13-.31.13-.31.13-.31.13-.31.13-.31.13-.31.12-.32.12-.31.13-.32.12-.32.12-.32.12-.14.05-.18.06-.42.14-.43.14-.42.13-.42.13-.43.13-.42.12-.42.13-.43.12-.43.11-.43.12-.13.03-.3.07-.43.09-.43.09-.43.09-.43.09-.43.08-.43.08-.43.08-.44.08-.43.07-.42.07-.23.03-.2.02-.43.04-.43.04-.43.04-.43.04-.43.03-.43.02-.43.03-.43.02-.43.02-.42.02-.19.01-.24-.01-.42-.01-.42-.01-.42-.02-.42-.02-.21-.01-.21-.03-.42-.05-.41-.05-.41-.05-.4-.06-.06-.01-.34-.07-.4-.09-.4-.09-.4-.09-.39-.1-.39-.1-.39-.1-.39-.1-.38-.1-.15-.04-.24-.08-.38-.14-.37-.14-.37-.14-.37-.14-.72-.28-.72-.28-.47-.19-.23-.11-.69-.32-.68-.33-.67-.33-.65-.33-.6-.3-.05-.03-.63-.35-.62-.35-.61-.35-.6-.34-.59-.35-.22-.13-.35-.23-.56-.36-.56-.35-.54-.35-.54-.35-.53-.34-.52-.33-.5-.32-.5-.32-.49-.31-.48-.3-.31-.21-.6-.4-.87-.56-1.61-1.03-.75-.46-.56-.33-.14-.09-.31-.79.79-.31.16.05.62.19.84.25 1.84.52 1 .26.68.17.36.1.54.14.55.14.56.13.57.13.58.12.59.12.6.12.61.11.62.1.63.1.39.06.24.04.64.11.65.11.65.1.67.09.66.08.05.01.61.1.67.09.67.08.68.08.69.07.24.02.45.07.68.09.69.09.34.03.35.04.35.03.35.03.21.02.13.02.35.06.35.06.34.05.35.05.35.05.35.05.35.05.35.04.3.03.05.01.35.07.34.07.35.06.35.06.18.03.17.04.35.08.35.08.35.07.35.07.2.04.15.04.36.09.36.09.36.08.36.08.36.08.36.08.36.08.36.07.36.07.37.06.17.03.2.04.37.08.37.07.38.07.37.07.38.06.38.06.38.05.38.05.38.05.38.04.27.02.11.02.39.04.39.04.39.04.39.03.4.03.4.02.4.02.4.01h.4l.41-.01h.61l.31-.01h.31l.31-.01.31-.01.32-.01.31-.01.31-.02.31-.03.31-.03.31-.03.31-.04.31-.04.31-.04.32-.04.32-.05.32-.05.32-.06.32-.06.32-.06.32-.07.32-.07.03-.01.29-.06.32-.07.32-.08.32-.08.32-.09.33-.09.32-.09.32-.1.16-.05.16-.05.82.3z"/><path d="M455.258 108.652l.485.006.487.01.486.018.488.018.486.025.488.03.49.03.488.04.49.04.487.05.49.05.487.05.49.06.49.06.488.07.49.07.49.08.49.08.487.09.49.09.487.09.49.1.49.1.485.11.49.11.488.12.484.12.48.13.48.13.48.14.48.14.48.15.48.15.48.15.48.16.48.16.48.17.45.16.45.16.45.17.45.17.44.17.44.18.44.18.43.18.43.18.42.19.43.19.42.19.42.2.41.2.41.2.41.2.41.22.4.21.39.21.4.22.39.22.39.22.38.22.38.22.38.23.38.23.37.24.37.24.36.24.36.24.37.25.35.24.35.24.35.25.34.25.35.26.34.25.34.25.33.26.33.26.33.27.32.26.32.27.32.27.31.27.31.27.31.27.3.28.3.28.6.56.29.28.29.28.28.29.28.28.28.29.28.29.27.29.27.29.54.58.27.3.26.29.26.3.26.29.25.3.25.3.25.3.24.3.24.3.24.3.47.61.24.31.22.31.23.3.22.31.22.31.22.31.21.31.21.31.21.31.2.31.2.31.2.31.4.62.19.31.38.63.19.32.19.32.35.62.36.63.34.63.33.63.32.62.31.63.31.63.3.63.29.62.28.62.27.62.27.62.25.62.25.61.24.61.23.61.22.61.22.61.21.6.2.6.2.59.19.6.19.59.17.59.17.58.16.57.16.58.15.56.14.56.14.56.13.55.13.54.13.54.12.53.11.53.11.52.1.52.1.51.09.5.09.49.08.49.08.48.07.47.07.46.07.46.06.45.06.44.06.43.05.42.05.41.05.41.04.41.08.75.04.47.58.21.78.3.42.16.42.16.42.16.44.17.38.15.06.03.46.19.46.2.47.2.48.2.48.22.49.22.5.23.51.23.51.24.52.25.52.25.53.26.53.27.53.27.54.28.55.29.55.29.55.3.56.3.56.31.57.32.56.33.57.33.57.34.57.35.58.35.57.37.58.37.58.38.58.39.57.4.58.4.58.41.57.42.57.43.58.43.57.45.57.45.56.46.56.46.28.24.28.24.28.24.28.24.28.25.28.25.27.25.27.25.28.25.54.52.27.26.26.27.53.54.06.07.2.21.26.28.26.28.26.28.25.29.51.57.25.29.25.29.24.3.24.3.25.3.24.3.24.31.24.31.23.31.24.31.23.31.23.31.23.32.23.32.22.33.22.33.22.33.22.33.21.34.21.33.21.34.2.34.2.34.2.34.2.35.19.35.19.36.19.35.18.36.18.37.17.37.17.37.17.37.17.37.16.37.16.38.15.38.15.38.15.38.14.38.14.39.14.39.13.4.13.4.13.4.12.41.12.41.11.41.1.41.1.41.1.42.1.41.09.42.09.43.09.42.08.43.07.43.07.43.06.43.06.44.06.44.05.44.01.07.03.38.04.44.02.45.02.45.02.45.01.45.01.46v.92l-.01.46-.01.46-.02.46-.02.46-.03.46-.03.47-.04.47-.05.46-.05.47-.05.47-.06.47-.07.48-.07.48-.07.48-.08.48-.09.48-.1.48-.11.55-.11.54-.12.54-.13.54-.13.53-.13.52-.14.53-.14.51-.15.52-.15.51-.16.5-.16.5-.17.5-.17.5-.18.5-.18.49-.15.39-.03.09-.2.49-.2.47-.2.47-.21.47-.21.46-.21.46-.22.46-.23.45-.23.45-.24.44-.24.44-.24.44-.25.44-.25.43-.25.43-.26.42-.26.42-.26.42-.26.41-.27.41-.27.41-.28.4-.28.4-.28.4-.29.39-.29.39-.3.38-.29.38-.31.38-.31.38-.31.37-.31.37-.31.37-.32.37-.32.36-.32.36-.33.36-.33.35-.33.35-.34.35-.34.35-.34.34-.34.35-.35.34-.35.34-.35.33-.36.33-.35.33-.36.33-.37.32-.36.32-.37.32-.37.31-.06.05-.31.27-.38.32-.37.31-.38.31-.38.31-.38.3-.39.3-.39.3-.4.31-.39.3-.39.3-.4.3-.4.3-.4.3-.4.29-.41.29-.41.29-.42.29-.82.57-.84.57-.84.57-.85.57-.86.56-.87.56-.87.56-.88.56-.88.55-.89.56-.9.55-.9.56-.91.56-.92.56-.92.56-.93.56-1.88 1.12-1.9 1.14-.02.02-3.08.51-2.5-1.66-.01-.02-.01-.02-.48-2.96 1.73-2.59.02-.02 1.82-1.26 1.78-1.24.88-.61.87-.61.86-.6.85-.61.84-.6.83-.6.83-.6.81-.6.8-.6.79-.6.78-.59.77-.59.76-.6.75-.59.73-.59.73-.6.35-.29.35-.29.36-.3.35-.3.35-.3.34-.29.34-.29.33-.29.33-.3.33-.3.32-.3.32-.3.32-.3.32-.3.31-.3.31-.3.3-.3.25-.25.05-.04.3-.3.29-.3.3-.3.29-.3.28-.3.28-.3.28-.3.28-.31.27-.31.27-.3.26-.31.26-.31.25-.31.26-.31.25-.31.25-.31.24-.31.24-.32.23-.32.23-.31.23-.32.23-.32.23-.32.22-.32.22-.32.21-.32.21-.32.2-.32.2-.32.2-.33.19-.32.2-.33.19-.33.18-.33.19-.33.17-.34.18-.33.17-.34.16-.34.17-.35.16-.34.16-.34.15-.35.15-.35.15-.35.14-.36.14-.36.14-.36.13-.36.13-.37.12-.37.12-.37.12-.37.02-.07.09-.31.11-.37.11-.38.11-.39.1-.39.1-.39.1-.39.09-.39.09-.4.08-.4.08-.41.08-.41.07-.41.07-.42.07-.42.06-.43.06-.42.04-.36.04-.36.04-.35.04-.34.03-.35.02-.35.02-.34.01-.33.01-.33.01-.33v-.9l-.01-.32-.01-.32-.01-.317-.02-.31-.02-.31-.02-.31-.03-.31-.03-.3-.03-.3-.04-.29-.04-.3-.04-.3-.04-.25-.01-.05-.04-.29-.05-.29-.05-.29-.05-.29-.06-.28-.06-.28-.06-.28-.06-.28-.07-.27-.07-.28-.07-.274-.08-.27-.08-.27-.09-.27-.08-.26-.09-.27-.09-.26-.09-.26-.1-.26-.1-.26-.1-.26-.1-.25-.1-.26-.11-.255-.11-.25-.11-.25-.11-.25-.11-.25-.12-.24-.12-.24-.12-.24-.13-.24-.12-.24-.13-.24-.13-.24-.13-.24-.14-.24-.14-.23-.14-.23-.15-.23-.15-.23-.15-.23-.16-.23-.16-.22-.16-.23-.16-.23-.17-.22-.16-.22-.17-.22-.16-.22-.17-.22-.17-.22-.18-.22-.17-.22-.18-.21-.18-.21-.18-.21-.18-.21-.19-.22-.19-.21-.19-.21-.19-.21-.19-.21-.19-.2-.2-.2-.2-.2-.2-.2-.2-.2-.15-.15-.05-.05-.2-.2-.2-.2-.2-.2-.21-.19-.21-.2-.21-.19-.21-.19-.21-.19-.22-.19-.22-.19-.22-.19-.22-.18-.22-.18-.22-.18-.21-.17-.45-.37-.45-.35-.46-.34-.45-.35-.46-.33-.46-.33-.46-.33-.47-.32-.47-.32-.47-.32-.47-.31-.48-.3-.47-.3-.48-.29-.48-.28-.48-.28-.47-.28-.48-.27-.48-.26-.47-.26-.47-.26-.47-.25-.47-.24-.47-.23-.47-.23-.46-.23-.46-.22-.45-.21-.45-.21-.45-.21-.44-.2-.44-.19-.43-.19-.43-.19-.42-.18-.42-.17-.41-.17-.41-.17-.39-.16-.39-.16-.05-.02-.33-.12-.38-.15-.37-.14-.36-.13-.34-.13-.68-.25-.64-.22-.59-.2-.55-.19-.51-.16-.46-.15-.41-.13-.35-.11-.31-.08-.24-.07-.33-.09-.1-.03-1.11-.39-1.03-.58-.92-.74-.78-.87-.63-.99-.46-1.08-.28-1.15-.09-1.17v-.51l-.01-.25-.01-.3-.02-.34-.02-.39-.02-.43-.03-.47-.04-.51-.05-.54-.05-.58-.07-.63-.04-.31-.04-.33-.05-.34-.04-.35-.05-.35-.05-.36-.05-.37-.06-.37-.06-.39-.07-.39-.07-.39-.07-.4-.08-.4-.08-.41-.08-.41-.09-.42-.09-.43-.09-.43-.1-.43-.11-.44-.11-.45-.11-.45-.12-.45-.12-.45-.13-.46-.13-.46-.14-.47-.14-.47-.14-.47-.15-.47-.15-.48-.16-.48-.16-.48-.17-.48-.17-.48-.19-.49-.19-.48-.19-.49-.2-.49-.2-.49-.21-.49-.22-.49-.22-.49-.23-.48-.24-.49-.24-.49-.25-.48-.25-.48-.26-.48-.27-.48-.27-.48-.29-.49-.14-.23-.14-.23-.15-.23-.15-.23-.15-.24-.15-.23-.15-.24-.15-.23-.16-.23-.15-.23-.16-.23-.16-.23-.16-.23-.16-.23-.17-.23-.17-.23-.17-.23-.17-.23-.17-.23-.17-.22-.17-.23-.18-.22-.18-.22-.18-.22-.18-.22-.18-.22-.19-.22-.19-.22-.19-.22-.2-.21-.19-.22-.19-.21-.2-.21-.2-.21-.21-.21-.2-.21-.21-.21-.2-.2-.21-.2-.22-.21-.21-.21-.22-.2-.22-.2-.22-.2-.21-.2-.23-.2-.22-.2-.23-.2-.23-.19-.23-.2-.23-.19-.23-.19-.24-.19-.24-.19-.24-.18-.24-.19-.25-.18-.25-.18-.25-.18-.26-.18-.26-.18-.26-.18-.26-.17-.26-.18-.26-.17-.27-.17-.28-.16-.28-.17-.28-.17-.28-.17-.28-.16-.28-.16-.28-.16-.29-.16-.29-.15-.3-.16-.3-.15-.3-.15-.3-.15-.31-.15-.31-.15-.32-.15-.32-.14-.32-.14-.32-.14-.33-.14-.33-.13-.34-.13-.33-.13-.33-.13-.34-.12-.35-.12-.36-.13-.36-.12-.36-.13-.37-.12-.36-.12-.36-.11-.37-.11-.36-.1-.37-.1-.37-.1-.36-.1-.36-.09-.36-.09-.36-.08-.36-.08-.37-.08-.36-.07-.36-.07-.36-.06-.36-.06-.36-.06-.36-.06-.35-.05-.36-.04-.36-.05-.36-.04-.36-.04-.36-.03-.36-.03-.35-.03-.36-.03-.35-.02-.35-.02-.35-.02-.35-.01-.35-.01h-1.35l-.35.01-.34.01-.35.02-.35.01-.34.02-.34.02-.34.03-.34.03-.33.03-.34.04-.33.04-.33.04-.33.05-.33.05-.33.05-.33.06-.33.06-.32.06-.32.06-.33.07-.32.07-.32.08-.32.08-.32.08-.31.08-.32.09-.31.09-.32.09-.31.1-.31.1-.3.1-.3.11-.3.11-.31.11-.3.12-.3.12-.3.13-.29.12-.29.13-.29.13-.29.13-.29.14-.28.14-.29.14-.28.15-.28.15-.28.15-.28.16-.28.16-.27.16-.27.16-.27.16-.27.17-.27.17-.26.173-.17.11-.1.07-.27.18-.26.19-.26.182-.26.19-.26.19-.26.19-.26.2-.25.2-.25.21-.25.21-.25.21-.25.21-.24.22-.24.22-.24.23-.23.23-.23.23-.23.23-.23.24-.23.24-.23.24-.22.25-.22.25-.22.26-.22.26-.21.26-.21.26-.21.27-.21.27-.2.27-.21.28-.2.28-.2.29-.2.29-.2.3-.19.3-.19.3-.19.3-.19.31-.18.31-.18.32-.17.32-.18.33-.17.33-.17.33-.17.34-.16.34-.17.35-.16.35-.16.35-.15.36-.15.36-.15.36-.15.37-.14.38-.14.37-.14.38-.13.39-.13.39-.13.4-.13.4-.12.4-.12.4-.12.41-.11.42-.02.08-.1.34-.12.42-.11.43-.11.43-.11.43-.1.44-.1.44-.09.44-.09.45-.08.45-.08.46-.07.47-.08.47-.07.48-.07.48-.06.48-.06.48-.06.49-.05.49-.05.5-.04.51-.04.51-.02.37-.02.14-.04.51-.04.52-.03.53-.03.53-.02.54-.02.54-.02.55-.01.55v.56l-.01.56.01.57.01.57.01.58.01.57.02.58.02.47v.72l.01.6.01.61.02.62.02.62.02.62.03.62.04.63.04.64.04.64.05.65.05.65.06.66.07.66.07.66.08.67.08.67.09.68.09.69.1.69.1.69.12.7.12.71.13.71.13.72.06.35.06.37.12.73.13.73.14.75.14.74.15.76.16.75.15.76.17.76.17.77.18.78.18.78.19.79.19.79.2.8.21.8.22.81.22.81.23.81.24.82.25.82.25.82.26.83.26.84.28.85.28.85.28.85.02.04.27.82.29.87.31.87.32.9.05.11.04.14.05.15.05.18.05.21.04.26.02.33-.03.45-.07.26-.11.31-.16.3-.01.02-.24.35-.3.3-.02.01-.35.25-.39.18-.02.01-.35.11-.36.05-.29.02-.48-.06-.34-.1-.26-.11-.2-.1-.15-.1-.13-.09-.13-.1-.19-.16-.18-.18-.17-.18-.17-.19-.17-.2-.18-.21-.18-.23-.18-.25-.19-.26-.19-.28-.2-.3-.2-.31-.2-.32-.21-.35-.21-.36-.22-.37-.22-.39-.22-.4-.22-.42-.23-.43-.23-.45-.22-.46-.23-.47-.23-.49-.22-.5-.23-.52-.22-.53-.22-.54-.21-.55-.22-.56-.11-.29-.11-.29-.107-.3-.1-.3-.11-.3-.1-.3-.1-.306-.1-.31-.1-.31-.1-.31-.1-.32-.1-.32-.04-.13-.15-.33-.35-.78-.35-.77-.34-.78-.34-.77-.33-.77-.33-.77-.32-.76-.31-.76-.31-.76-.3-.75-.29-.76-.29-.74-.29-.75-.145-.38-.13-.36-.25-.75-.25-.74-.24-.74-.24-.73-.23-.73-.22-.73-.22-.73-.21-.72-.21-.72-.21-.72-.2-.72-.19-.71-.19-.71-.18-.71-.17-.7-.17-.7-.16-.7-.16-.7-.15-.69-.15-.69-.14-.69-.14-.69-.13-.69-.12-.68-.12-.68-.02-.13-.07-.55-.07-.68-.07-.67-.06-.67-.06-.66-.06-.66-.05-.65-.05-.66-.034-.65-.03-.65-.03-.64-.02-.64-.02-.64-.01-.64-.01-.64v-.8l.01-.46.02-.62.03-.63.03-.62.04-.62.04-.61.04-.61.05-.61.05-.6.06-.6.07-.59.07-.59.08-.59.08-.58.09-.58.09-.58.1-.57.1-.57.11-.57.11-.57.11-.56.12-.56.1-.45.03-.1.14-.55.14-.55.15-.54.15-.54.15-.54.16-.53.16-.53.18-.52.17-.52.18-.51.18-.51.19-.51.19-.5.2-.5.2-.5.21-.49.21-.49.21-.48.23-.49.22-.48.23-.475.24-.47.24-.47.25-.46.24-.46.25-.45.26-.45.26-.44.27-.44.27-.44.27-.43.28-.43.28-.42.29-.42.29-.42.3-.41.3-.4.3-.41.31-.4.31-.39.32-.39.32-.39.32-.38.33-.38.33-.37.33-.37.34-.37.34-.36.34-.35.35-.35.35-.34.35-.34.36-.34.36-.34.36-.32.36-.33.37-.32.37-.31.38-.31.38-.31.38-.3.39-.29.39-.29.39-.29.39-.28.15-.11.24-.17.4-.26.41-.27.41-.26.41-.25.41-.25.41-.25.42-.24.42-.23.42-.23.42-.22.422-.22.43-.22.42-.21.44-.21.43-.21.44-.19.44-.19.44-.19.44-.18.45-.17.44-.17.45-.17.45-.17.45-.16.45-.16.46-.14.46-.14.46-.14.46-.13.46-.13.46-.13.47-.12.46-.11.47-.11.47-.11.47-.1.47-.1.47-.09.47-.09.47-.08.47-.07.47-.07.47-.07.47-.06.48-.06.48-.05.48-.05.48-.05.48-.04.48-.04.48-.03.49-.028.48-.02.48-.02.48-.01.48-.01h.97zM428.95 207.31l.075.065-.043-.045.118.094.102.08-.068-.065.117.08-.09-.08.11.06-.09-.07.05.02-.08-.06.05.02-.1-.07.04.02-.14-.08.04.01-.05-.03zm-89.137-12.052l.51.015.515.018.513.03.52.03.51.04.52.04.51.05.52.05.52.06.51.06.51.07.51.08.2.03.31.07.5.12.5.12.5.13.38.1.37.11.37.11.37.11.37.12.36.12.36.13.36.13.35.13.36.14.35.14.35.15.34.14.2.09.15.07.34.17.33.17.33.17.33.18.32.18.32.19.32.19.31.19.32.2.31.19.31.2.3.2.3.21.3.2.3.21.29.21.29.21.29.22.29.22.28.22.28.23.12.1.16.13.27.24.53.48.26.24.26.25.26.25.25.25.25.25.25.25.25.25.24.26.25.25.24.26.24.26.24.26.24.26.23.26.23.26.23.26.23.27.22.27.22.27.44.54.22.27.21.28.21.27.21.28.21.28.2.28.2.28.21.28.39.56.39.57.38.57.38.57.37.58.36.58.36.58.09.15.26.44.35.58.34.58.33.59.33.59.32.59.32.59.31.6.3.6.3.6.29.59.29.6.29.6.27.6.28.6.26.6.27.59.26.59.26.59.25.59.24.59.24.59.24.58.23.58.02.06.21.52.23.57.23.57.22.56.22.56.21.56.21.56.21.55.21.55.2.54.19.54.19.54.01.05.18.48.2.52.19.51.19.51.18.51.18.5.17.49.17.49.16.48.31.94.2.61.11.3.31.87.29.84.28.81.26.77.24.74.22.7.21.66.19.61.17.58.16.53.14.48.05.19.07.24.11.38.1.33.08.27.06.22.05.19.04.22.02.12.01.44-.06.43-.13.42-.19.37-.25.33-.3.29-.34.23-.38.17-.4.11-.42.03-.41-.03-.4-.09-.38-.16-.35-.22-.31-.28-.26-.32-.1-.15-.32-.64-.25-.48-.25-.47-.25-.47-.25-.47-.25-.48-.26-.47-.26-.46-.26-.46-.26-.47-.26-.46-.26-.46-.26-.46-.2-.34-.07-.12-.28-.44-.28-.45-.28-.44-.28-.43-.28-.43-.28-.43-.28-.43-.28-.42-.28-.41-.29-.41-.29-.4-.28-.4-.29-.39-.29-.39-.29-.39-.29-.38-.29-.37-.29-.37-.29-.36-.29-.36-.3-.35-.29-.34-.29-.33-.29-.33-.29-.32-.29-.31-.29-.31-.29-.3-.29-.29-.29-.29-.28-.27-.29-.26-.28-.26-.28-.25-.28-.24-.29-.23-.28-.22-.28-.22-.28-.21-.27-.19-.22-.16-.05-.03-.28-.18-.13-.08-.13-.08-.13-.08-.13-.08-.13-.07-.13-.07-.13-.07-.12-.07-.13-.06-.12-.06-.12-.06-.12-.06-.12-.05-.12-.05-.12-.05-.12-.05-.19-.08-.19-.07-.19-.07-.19-.07-.19-.06-.19-.06-.19-.06-.19-.05-.19-.05-.19-.05-.19-.05-.19-.05-.19-.04-.19-.04-.19-.04-.19-.03-.19-.03-.19-.03-.19-.03-.19-.02-.19-.03-.19-.02-.19-.02-.19-.01-.19-.01-.19-.01-.19-.01-.19-.01-.19-.01h-.95l-.19.01h-.19l-.19.01-.19.01-.39.02-.39.03-.38.04-.38.04-.39.05-.39.06-.39.06-.39.06-.38.07-.39.07-.39.07-.39.08-.39.08-.39.09-.39.08-.29.07-.1.02-.39.09-.79.19-.78.18-1.57.38-.78.19-.4.1-.39.09-.39.09-.39.08-.4.08-.4.07-.4.08-.4.07-.4.06-.41.06-.41.05h-.04l-.38.03-.42.03-.42.02-.41.01-.22.01h-.43l-.22-.01-.22-.01-.21-.01-.26-.01-.25-.02-.25-.02-.25-.03-.25-.03-.24-.03-.25-.04-.24-.03-.24-.04-.24-.04-.24-.04-.23-.04-.23-.05-.23-.05-.23-.05-.23-.05-.23-.05-.24-.06-.45-.12-.45-.13-.44-.14-.44-.15-.4-.14-.03-.01-.42-.17-.41-.17-.41-.19-.4-.18-.39-.19-.39-.2-.38-.2-.37-.2-.37-.21-.37-.2-.37-.21-.36-.21-.35-.22-.35-.21-.35-.22-.35-.21-.67-.43-.67-.44-.66-.43-.66-.43-.48-.31-.16-.11-.64-.42-.64-.42-.31-.2-.32-.2-.32-.2-.32-.2-.32-.19-.32-.19-.32-.19-.32-.18-.33-.18-.33-.18-.33-.17-.33-.17-.33-.17-.33-.16-.34-.15-.34-.16-.34-.15-.35-.15-.35-.14-.36-.14-.38-.14-.39-.14-.39-.13-.39-.13-.39-.12-.4-.12-.41-.11-.21-.06-.2-.05-.41-.1-.41-.1-.41-.1-.41-.09-.41-.09-.41-.08-.42-.08-.41-.08-.41-.07-.41-.07-.41-.06-.41-.06-.4-.07-.4-.05-.4-.06-.4-.05-.39-.05-.39-.04-.38-.04-.38-.04-.37-.03-.37-.03-.36-.03-.36-.03-.35-.02-.34-.02-.68-.04-.64-.03-.6-.02-.57-.02-.53-.01-.49-.01h-.85l-.35.01-.3.01h-.25l-.34.01h-.11l-.63-.01-.62-.11-.47-.17-.13-.04-.56-.31-.49-.4-.41-.48-.33-.54-.24-.59-.13-.62-.02-.64.08-.63.18-.61.29-.56.37-.51.46-.44.52-.35.53-.36.04-.03.52-.34.57-.37.59-.37.61-.38.62-.38.64-.38.65-.39.67-.4.68-.39.7-.4.71-.4.72-.4.73-.4.75-.4.76-.4.77-.4.78-.4.8-.41.81-.4.81-.4.83-.39.84-.39.85-.39.86-.39.86-.39.87-.38.88-.38.45-.19.45-.18.45-.18.45-.18.46-.18.07-.03.39-.14.46-.17.46-.17.47-.17.47-.16.46-.16.47-.17.47-.15.47-.16.47-.16.48-.16.48-.15.47-.15.48-.15.48-.14.48-.15.49-.15.48-.14.48-.13.49-.13.49-.13.49-.13.49-.12.5-.13.49-.11.49-.12.5-.11.49-.11.5-.11.5-.1.5-.1.5-.1.5-.09.51-.09.32-.05.19-.03.5-.07.5-.07.5-.06.51-.06.51-.05.51-.05.51-.05.51-.04.51-.04.51-.04.51-.03.52-.02.51-.02.51-.02.52-.01h.52zm39.734 57.164l.008.03-.008-.035v.005zm-44.5-42.797l-.403.003-.403.007-.4.008-.41.013-.41.018-.15.007-.26.01-.41.01-.41.02-.41.02-.42.02-.42.03-.42.03-.42.03-.42.03-.42.04-.42.04-.42.04-.43.04-.42.05-.43.05-.43.05-.43.05-.43.06-.43.06-.43.06-.43.06-.43.07-.43.07-.43.07-.43.08-.43.08-.43.08-.43.09-.43.08-.43.09-.43.09-.43.09-.43.1-.42.09-.36.08-.07.02-.43.09-.43.09-.42.1-.43.1-.42.1-.85.21-.84.21-.84.22-.83.22-.35.1.06.02.26.06.51.12.51.12.5.13.51.14.51.15.51.15.51.16.48.16.48.17.48.17.47.17.46.18.45.19.45.19.44.2.43.2.43.2.42.2.41.21.41.21.4.22.4.21.39.21.39.21.38.21.37.22.38.21.72.42.7.42.18.11.51.32.67.42.65.41.64.39.63.38.3.19.31.18.3.17.3.17.3.16.29.16.29.16.29.15.28.15.29.14.28.14.28.13.28.12.28.12.28.12.28.11.02.01.25.11.27.11.27.1.27.09.28.09.13.04.14.04.14.04.41.11.14.03.28.07.14.03.14.03.15.02.14.03.14.03.14.02.15.02.15.02.18.02-.06-.01.12.01.12.01h-.06l.22.02h.13-.05l.12.01h.71l.24-.01h.02l.27-.01.28-.01.29-.02.31-.02.31-.03.32-.03.34-.04.34-.05.35-.05.36-.05.36-.05.76-.12 1.59-.25.84-.13.85-.13.44-.06.11-.02.33-.05.45-.06.46-.05.46-.05.46-.05.47-.04.48-.04.47-.03.49-.04.49-.03.49-.02.5-.02.5-.01h.5l.51.01.51.02.26.01.26.01.26.01.26.02.26.02.26.02.26.02.27.03.26.03.26.03.26.04.27.04.27.04.53.09.27.05.27.05.26.06.27.06.27.06.27.07.27.07.27.08.27.08.27.08.27.09.27.09.27.09.26.1.27.1.27.1.27.11.27.11.27.12.27.12.27.12.27.12.26.13.2.1.19.1.19.11.19.11.38.22.19.12.18.12.19.12.18.12.18.12.19.13.18.13.18.13.18.13.02.02-.21-.28-.36-.49-.36-.48-.37-.48-.37-.48-.37-.47-.37-.47-.38-.46-.38-.46-.39-.46-.39-.45-.39-.44-.4-.44-.4-.43-.3-.32-.1-.1-.41-.42-.41-.41-.41-.41-.42-.39-.42-.39-.42-.38-.43-.38-.2-.18-.22-.18-.22-.18-.22-.18-.21-.18-.22-.17-.22-.17-.22-.17-.21-.16-.22-.16-.22-.16-.21-.16-.22-.16-.22-.16-.21-.15-.22-.15-.21-.15-.22-.14-.22-.15-.22-.14-.22-.13-.22-.13-.22-.13-.22-.13-.22-.12-.22-.12-.22-.12-.22-.12-.22-.11-.22-.11-.22-.11-.22-.1-.12-.06-.09-.04-.22-.11-.21-.1-.22-.11-.21-.1-.21-.1-.21-.09-.21-.09-.22-.09-.21-.08-.22-.08-.21-.08-.21-.07-.21-.07-.21-.07-.21-.07-.21-.06-.21-.07-.21-.06-.2-.05-.21-.05-.21-.05-.09-.02-.11-.03-.21-.06-.2-.06-.2-.05-.2-.05-.2-.05-.2-.04-.2-.04-.2-.04-.21-.04-.2-.03-.2-.04-.21-.03-.2-.02-.33-.04-.34-.04-.34-.03-.21-.02-.14-.02-.35-.06-.35-.05-.35-.05-.35-.05-.36-.04-.36-.04-.36-.04-.36-.03-.37-.04-.37-.03-.38-.03-.37-.02-.28-.01-.1-.01-.38-.03-.38-.03-.38-.02-.39-.02-.39-.02-.39-.01-.39-.01-.39-.01h-.8z"/><path d="M545.99 219.298c56.943 70.453 75.612 224.228-64.84 360.078 32.742-59.51 27.527-132.467 26.142-134.17-.43-.532-4.09 28.973-26.143 60.802-17.53 25.292-49.1 41.067-52.48 41.067-1.18 0 13.56-18.258 23.03-36.282 8.48-16.153 11.76-32.275 11.62-32.278-1.19-.018-9.19 8.99-20.15 15.103-11.13 6.212-25.22 9.525-25.89 8.856-.87-.874 10.25-12.13 16.81-25.142 5.22-10.35 6.88-16.3 6.1-28.65 0 0 29.48-12.036 36.31-31.043 7.19-20.03 19.74-22.8 17.43-82.18-.82-20.97 13.33-71.99 13.33-71.99s17.02-9.72 27.19-20.84c11.39-12.46 11.51-23.34 11.51-23.34z"/><path d="M550.258 217.26l.664.875.46.614.202.26.656.89.654.89.65.9.643.91.642.92.63.92.63.93.62.94.62.94.62.95.61.96.61.96.6.97.6.98.59.99.59.99.59 1 .58 1 .57 1.01.57 1.02.57 1.03.56 1.03.56 1.04.55 1.05.55 1.05.54 1.06.53 1.06.53 1.07.53 1.08.52 1.08.52 1.09.51 1.1.51 1.1.5 1.11.49 1.11.48 1.12.49 1.13.48 1.14.47 1.14.47 1.14.46 1.15.11.28.34.87.46 1.16.44 1.17.44 1.17.44 1.18.43 1.18.42 1.19.42 1.2.41 1.2.4 1.21.4 1.21.4 1.22.39 1.22.38 1.23.38 1.24.37 1.24.37 1.24.35 1.25.35 1.25.35 1.26.33 1.26.33 1.27.32 1.27.32 1.28.31 1.28.3 1.29.3 1.3.29 1.3.29 1.3.28 1.31.27 1.32.27 1.32.13.66.13.66.25 1.33.24 1.33.11.66.12.67.12.67.22 1.34.11.67.11.68.11.68.1.67.1.68.1.68.1.68.1.68.09.69.09.68.09.68.18 1.37.08.69.17 1.38.08.69.08.69.08.69.07.69.07.69.07.7.07.69.07.7.07.69.06.7.06.7.06.7.06.71.05.7.05.71.05.7.05.71.05.71.09 1.42.05.71.04.71.04.72.04.71.03.72.04.72.03.72.06 1.43.02.72.02.72.02.72.01.72.02.72.01.72.01.72.01.73.01.73.01.72v3.65l-.01.73v.73l-.01.73-.01.73-.01.74-.01.74-.02.74-.02.74-.02.74-.02.74-.03.74-.03.74-.03.75-.03.75-.04.74-.04.75-.04.74-.04.75-.04.75-.05.75-.05.75-.05.75-.05.75-.05.75-.06.75-.06.75-.06.75-.06.75-.07.75-.07.76-.07.76-.08.76-.08.76-.08.76-.08.76-.08.76-.09.76-.08.76-.09.76-.09.77-.09.76-.1.76-.1.77-.1.77-.1.76-.11.77-.1.77-.11.77-.11.77-.12.77-.12.77-.12.77-.12.77-.12.77-.12.77-.13.77-.13.78-.13.78-.14.77-.14.78-.14.78-.14.78-.15.78-.15.78-.15.78-.15.78-.16.78-.15.78-.17.78-.15.75-.01.03-.16.78-.17.78-.17.78-.17.78-.17.78-.17.78-.18.78-.18.79-.18.79-.19.79-.18.79-.19.79-.19.78-.2.79-.2.79-.2.79-.2.79-.21.79-.21.79-.21.79-.21.79-.22.79-.22.79-.22.79-.22.8-.22.79-.23.79-.24.79-.23.8-.24.79-.24.8-.24.8-.24.79-.25.8-.25.8-.26.8-.26.8-.26.8-.26.8-.26.8-.26.8-.27.8-.27.8-.27.8-.28.8-.28.8-.28.8-.29.8-.29.8-.29.8-.3.8-.29.81-.3.81-.3.8-.31.8-.3.8-.31.81-.31.81-.31.81-.31.81-.32.8-.32.81-.33.81-.33.8-.33.81-.33.81-.33.81-.34.8-.34.81-.34.81-.35.81-.25.58-.1.23-.35.81-.36.81-.36.81-.36.81-.36.82-.36.81-.37.81-.38.81-.38.81-.38.81-.39.81-.39.81-.39.81-.39.81-.39.81-.39.81-.39.81-.41.81-.41.81-.4.82-.41.82-.42.81-.42.82-.42.81-.42.82-.43.81-.43.81-.43.82-.44.82-.44.81-.44.81-.44.81-.44.81-.45.82-.45.81-.46.81-.46.81-.46.82-.46.82-.47.82-.47.81-.48.81-.47.81-.48.81-.49.82-.49.82-.49.82-.49.81-.5.81-.5.81-.5.82-.5.81-.51.82-.51.82-.52.81-.52.82-.52.81-.52.82-.53.82-.53.81-.54.81-.54.81-.54.81-.54.81-.55.81-.55.82-.55.81-.56.81-.07.1-.49.72-.56.81-.56.81-.57.81-.57.81-.57.81-.58.82-.58.81-.58.81-.58.81-.59.81-.59.82-.6.81-.6.82-.61.82-.61.81-.61.82-.61.82-.62.81-.62.81-.62.81-.63.81-.63.81-.63.81-.64.82-.64.81-.64.81-.65.81-.65.81-.66.81-.65.81-.66.81-.66.81-.66.81-.67.81-.68.81-.68.81-.68.81-.68.81-.69.81-.69.81-.69.8-.7.81-.7.81-.7.81-.71.81-.71.81-.72.8-.72.81-.72.81-.73.81-.73.81-.73.8-.73.8-.74.81-.74.81-.75.8-.75.81-.75.8-.75.81-.76.8-.76.8-.77.8-.11.12-.66.68-.77.8-.78.8-.78.8-.78.8-.78.8-.79.8-.79.8-.8.8-.8.8-.81.8-.81.8-.82.8-.82.8-.82.8-.82.79-.14.11-.15.09-.17.06-.17.03h-.1l-.18-.03-.17-.05-.16-.08-.14-.11-.12-.13-.1-.15-.08-.16-.05-.17-.01-.17.01-.17.05-.17.07-.16.38-.7.38-.69.37-.7.37-.69.37-.7.36-.7.36-.7.35-.7.35-.7.35-.71.35-.71.34-.7.34-.71.34-.71.33-.71.33-.71.33-.71.32-.71.33-.71.31-.71.31-.72.31-.71.3-.72.31-.71.3-.71.3-.71.29-.72.29-.71.29-.72.28-.72.28-.72.28-.72.28-.72.27-.72.28-.72.27-.72.26-.72.26-.72.26-.72.26-.72.25-.71.25-.72.25-.72.25-.72.24-.71.24-.72.23-.71.24-.72.23-.72.23-.72.23-.72.23-.72.22-.72.22-.71.22-.72.21-.71.21-.71.21-.72.2-.71.21-.71.2-.71.2-.71.19-.71.19-.71.19-.71.19-.71.18-.71.18-.71.18-.71.18-.7.17-.71.17-.71.18-.71.17-.7.16-.7.17-.7.16-.7.16-.7.16-.7.15-.7.15-.7.15-.69.15-.69.14-.69.29-1.38.27-1.37.26-1.37.08-.43.18-.94.25-1.36.24-1.35.24-1.34.23-1.34.21-1.33.21-1.32.2-1.31.19-1.3.18-1.3.18-1.29.17-1.28.16-1.27.15-1.26.15-1.26.14-1.24.14-1.24.13-1.23.12-1.21.12-1.21.12-1.2.11-1.18.1-1.18.1-1.16.09-1.15.08-1.13.07-1.12.07-1.11.07-1.1.06-1.08.06-1.07.05-1.05.05-1.04.04-1.03.04-1.01.04-1 .03-.98.03-.97.02-.96.02-.94.01-.92.01-.91.01-.9v-4.22l-.01-.79-.01-.78-.02-.75-.02-.74-.02-.72-.02-.7-.03-.68-.02-.66-.02-.64-.03-.63-.04-.6-.03-.58-.04-.56-.04-.54-.04-.52-.01-.1-.15.65-.17.69-.18.72-.19.75-.21.78-.22.81-.23.84-.24.87-.26.89-.27.92-.28.96-.3.98-.31 1.01-.33 1.02-.34 1.05-.18.53-.18.54-.19.55-.19.56-.2.56-.2.56-.21.57-.2.572-.21.58-.21.59-.22.59-.23.6-.22.6-.23.61-.24.61-.24.61-.24.62-.26.63-.25.63-.26.64-.27.64-.27.64-.28.64-.28.65-.29.66-.29.66-.3.66-.3.67-.3.67-.31.67-.32.68-.32.68-.12.25-.21.43-.34.68-.34.69-.34.69-.35.69-.35.7-.36.71-.37.7-.37.71-.37.71-.38.72-.39.72-.4.72-.4.72-.41.73-.42.73-.42.73-.43.73-.43.73-.44.73-.45.74-.45.74-.46.74-.47.74-.47.74-.48.75-.48.75-.49.75-.5.75-.5.75-.51.75-.52.75-.42.6-.42.6-.43.59-.44.59-.44.59-.44.58-.45.57-.45.57-.46.57-.46.56-.46.56-.46.55-.47.55-.47.55-.47.54-.48.54-.49.54-.49.53-.49.54-.49.52-.5.52-.5.52-.5.51-.5.51-.5.51-.51.5-.51.5-.51.49-.51.49-.52.49-.52.48-.51.48-.52.47-.52.47-.52.47-.52.46-.53.46-.52.453-.52.45-.52.45-.52.44-.52.44-.53.43-.52.43-.52.43-.52.42-.52.41-.52.41-.52.41-.52.4-.52.4-.52.39-.52.39-.51.38-.52.38-.51.37-.51.37-.51.37-.51.36-.5.35-.5.35-.5.35-.5.35-.5.34-.49.33-.5.33-.49.33-.49.32-.48.31-.48.31-.48.31-.47.3-.47.3-.47.29-.46.28-.46.28-.45.28-.45.27-.45.26-.44.26-.43.25-.43.25-.85.49-.83.47-.81.45-.79.43-.77.41-.74.38-.72.36-.69.35-.67.323-.63.3-.61.28-.58.26-.56.24-.52.22-.25.11-.24.1-.23.09-.23.09-.21.08-.22.08-.2.07-.2.06-.19.06-.18.05-.17.05-.16.04-.17.04-.16.03-.16.03-.15.03-.16.01-.22.01-.13-.02-.14-.03-.15-.05-.12-.05-.21-.14-.18-.18-.07-.11-.08-.14-.06-.14-.01-.02-.04-.14-.02-.15-.01-.12.01-.2.04-.15.04-.13.04-.11.04-.1.04-.1.05-.11.11-.2.12-.22.14-.23.16-.25.17-.27.18-.28.2-.31.22-.33.48-.71.54-.79.6-.87 1.36-1.94 1.55-2.21.83-1.19.86-1.25.89-1.3.93-1.35.95-1.4.48-.71.48-.72.49-.73.49-.75.5-.75.5-.76.5-.77.5-.77.5-.78.5-.79.51-.8.5-.8.5-.81.5-.81.49-.82.49-.82.5-.82.49-.83.48-.83.48-.84.48-.84.47-.83.46-.84.46-.84.45-.84.44-.84.39-.75.38-.75.37-.75.37-.75.36-.74.35-.74.34-.74.34-.74.33-.74.32-.74.32-.72.31-.72.3-.72.29-.72.29-.71.28-.71.27-.7.27-.69.26-.68.26-.68.25-.67.24-.67.23-.66.23-.65.22-.64.21-.63.21-.62.21-.61.19-.6.19-.59.18-.58.17-.57.17-.56.16-.54.15-.53.15-.51.15-.504.14-.49.13-.48.12-.46.23-.89.21-.82.19-.76.03-.13-.21.19-1.01.9-.55.49-.59.52-.62.54-.65.56-.68.58-.71.6-.37.3-.37.31-.38.31-.39.31-.39.32-.4.32-.4.32-.41.32-.42.32-.42.32-.43.33-.44.33-.44.33-.45.326-.46.33-.46.32-.46.32-.47.32-.48.32-.48.32-.49.32-.49.32-.5.32-.5.31-.51.3-.51.31-.52.3-.52.29-.53.3-.54.29-.54.29-.54.28-.55.28-.55.27-.55.27-.55.27-.55.26-.56.26-.56.25-.56.25-.55.24-.55.23-.55.23-.55.22-.55.23-.55.214-.54.21-.54.21-.54.2-.53.19-.53.19-.52.19-.52.19-.52.17-.51.18-.51.17-.5.16-.49.16-.49.15-.48.15-.47.14-.46.13-.46.13-.45.13-.44.12-.43.12-.42.11-.41.1-.39.1-.39.09-.37.09-.37.09-.35.08-.34.08-.33.07-.32.06-.31.06-.29.05-.28.05-.26.04-.25.04-.24.03-.23.03-.21.02-.21.01-.2.01h-.19l-.18-.01-.11-.01-.11-.02-.11-.02-.13-.03-.14-.04-.16-.07-.19-.11-.2-.16-.18-.23-.13-.25-.077-.24-.03-.22-.01-.19.02-.17.02-.14.03-.13.04-.12.04-.11.04-.1.05-.11.09-.19.11-.19.11-.2.13-.2.14-.21.15-.22.16-.23.17-.24.18-.25.2-.26.41-.55.46-.59.49-.64.53-.68 1.15-1.48.61-.8.64-.83.66-.87.68-.9.35-.46.35-.47.35-.48.35-.48.36-.49.36-.5.36-.51.36-.51.36-.52.37-.525.36-.53.36-.53.36-.54.36-.54.36-.55.35-.55.35-.56.35-.57.35-.57.22-.37.13-.2.34-.58.33-.58.34-.58.33-.59.32-.59.31-.59.31-.59.3-.6.47-.95.23-.46.22-.46.22-.45.21-.44.21-.44.2-.44.2-.43.19-.42.19-.42.18-.42.18-.41.17-.41.17-.41.17-.4.16-.4.15-.4.15-.39.14-.4.14-.39.13-.39.13-.39.124-.39.12-.39.12-.38.11-.38.1-.386.11-.38.09-.38.1-.39.09-.39.08-.39.08-.4.07-.39.07-.39.07-.4.06-.4.06-.41.06-.41.05-.41.05-.42.04-.42.04-.42.04-.43.03-.43.03-.44.02-.45.02-.45.02-.457.01-.46.01-.47v-.48l.004-.48v-.9l-.01-.5-.01-.51-.01-.52-.02-.53-.02-.53-.03-.55-.03-.56-.03-.57v-.22l.04-.22.07-.21.1-.2.13-.18.16-.155.18-.13.19-.1.33-.14.39-.17.54-.24.67-.31.38-.175.42-.19.44-.21.47-.22.49-.24.52-.25.54-.27.56-.29.58-.3.61-.32.63-.33.644-.35.66-.36.68-.38.69-.39.7-.41.71-.42.73-.43.74-.45.36-.23.37-.23.38-.23.38-.24.38-.24.38-.25.38-.25.38-.25.38-.25.39-.26.38-.26.38-.27.39-.27.38-.27.39-.28.38-.28.38-.28.38-.28.38-.29.38-.29.38-.3.38-.3.374-.3.38-.3.37-.31.37-.31.37-.31.37-.32.37-.32.37-.32.36-.33.36-.33.35-.33.35-.33.36-.34.35-.34.34-.34.34-.34.34-.35.33-.35.33-.35.32-.35.32-.36.31-.36.31-.36.31-.37.3-.37.29-.38.295-.37.28-.37.28-.38.28-.38.27-.38.27-.39.26-.39.26-.39.24-.39.24-.39.24-.4.23-.4.22-.39.22-.41.2-.41.1-.2.1-.21.1-.2.09-.2.09-.21.09-.2.09-.2.08-.2.09-.21.08-.21.08-.21.08-.21.07-.21.08-.22.17-.47.17-.48.18-.46.18-.46.18-.46.18-.45.18-.45.19-.44.19-.43.19-.43.19-.43.19-.42.19-.41.19-.41.2-.41.19-.41.2-.4.19-.4.393-.79.39-.77.4-.77.4-.76.4-.76.8-1.5.4-.75.4-.75.4-.75.4-.76.39-.77.393-.77.19-.39.2-.4.19-.4.19-.4.19-.4.19-.4.19-.41.19-.42.18-.43.19-.42.18-.43.18-.44.18-.44.18-.45.18-.45.17-.46.18-.47.17-.47.18-.48.17-.48.17-.49.17-.5.16-.5.16-.51.16-.52.16-.53.16-.54.15-.55.16-.56.16-.56.15-.58.15-.59.15-.59.15-.6.14-.61.14-.62.14-.63.13-.64.13-.66.13-.67.12-.68.12-.69.11-.7.12-.713.11-.72.11-.74.1-.75.1-.76.1-.78.1-.79.1-.8.09-.82.08-.84.085-.85.08-.86.07-.88.07-.9.07-.9.07-.92.06-.94.06-.95.05-.97.05-.99.04-1 .04-1.02.03-1.03.03-1.06.03-1.07.02-1.09.02-1.11.01-1.12v-1.15l.01-1.16v-1.18l-.01-1.2-.01-1.21-.02-1.23-.02-1.25-.03-1.28-.03-1.29-.04-1.31-.04-1.34-.05-1.358-.05-1.38-.01-.51-.01-.53-.01-.54v-1.09l.01-.56.01-.57.02-.58.02-.59.03-.6.03-.61.04-.61.04-.62.05-.63.05-.63.06-.64.06-.65.06-.66.07-.67.07-.67.07-.67.08-.68.08-.69.09-.69.09-.7.09-.7.1-.71.1-.71.1-.72.11-.72.11-.73.11-.73.12-.73.11-.73.12-.74.13-.74.13-.74.13-.75.26-1.5.27-1.5.28-1.51.29-1.51.29-1.51.3-1.51.3-1.51.31-1.51.31-1.5.31-1.49.32-1.48.32-1.47.32-1.45.32-1.44.32-1.42.32-1.4.32-1.38.31-1.36.32-1.33.31-1.31.3-1.27.3-1.25.3-1.21.29-1.18.29-1.15.54-2.17.5-2.01.47-1.84.43-1.63.38-1.43.31-1.19.26-.96.19-.7.16-.58.1-.27.13-.26.18-.22.21-.2.24-.16.18-.11.55-.32.4-.24.48-.29.55-.34.62-.38.68-.43.74-.47.79-.51.84-.55.9-.59.46-.31.47-.31.48-.32.5-.33.49-.34.51-.36.51-.36.52-.37.53-.38.53-.38.53-.39.55-.39.55-.4.55-.41.56-.42.55-.42.56-.43.56-.44.55-.44.56-.445.55-.45.56-.45.554-.456.55-.47.55-.47.55-.48.55-.48.54-.48.53-.48.53-.49.52-.49.51-.49.51-.49.5-.5.24-.25.25-.25.24-.25.24-.25.24-.25.24-.25.234-.25.23-.26.26-.28.25-.28.25-.28.24-.28.24-.28.23-.28.23-.28.23-.27.22-.28.23-.28.22-.27.21-.28.21-.27.2-.27.2-.27.2-.27.2-.27.19-.266.19-.27.18-.27.18-.27.18-.26.17-.26.17-.26.17-.26.16-.26.16-.26.16-.26.15-.25.16-.25.15-.25.14-.25.15-.25.14-.24.27-.5.25-.48.25-.48.24-.47.22-.46.21-.46.21-.45.2-.44.19-.43.17-.43.17-.42.16-.41.15-.4.14-.39.13-.39.12-.37.12-.37.1-.35.1-.35.04-.14.05-.2.09-.33.06-.21-.29-.35-.67-.8 1.44-1.16.03-.15.03-.2.03-.18.04-.35.03-.29.02-.23.01-.18.01-.11v-.11l.04-.34.05-.16.05-.17.15-.31.2-.27.25-.23.29-.19.32-.13.33-.08.34-.02.34.04.33.1.3.15.27.21.24.25 2.07-1.66.66.85zM507.66 444.213l.005.002.123.057.115.07.102.085.087.08.11.155.06.11.047.097.03.09.05.16.05.17.04.18.04.2.04.22.04.25.04.26.04.29.04.31.04.33.04.35.04.38.04.4.04.42.03.45.04.46.04.49.04.5.04.53.03.55.03.57.03.59.03.61.03.63.02.65.02.67.02.69.02.71.02.73.02.74.01.76.01.78.01.8v2.51l-.01.87v.88l-.01.9-.01.91-.02.94-.02.95-.03.96-.03.98-.04.99-.04 1.01-.04 1.02-.05 1.04-.05 1.05-.05 1.06-.06 1.08-.06 1.09-.07 1.1-.08 1.12-.08 1.13-.08 1.15-.1 1.16-.1 1.17-.1 1.18-.11 1.19-.11 1.2-.12 1.21-.13 1.22-.14 1.23-.14 1.24-.15 1.25-.15 1.26-.16 1.27-.17 1.29-.18 1.29-.18 1.3-.19 1.31-.2 1.31-.21 1.33-.21 1.33-.22 1.34-.23 1.35-.23 1.35-.24 1.36-.26 1.37-.18.95-.08.43-.27 1.38-.28 1.38-.29 1.39-.15.7-.15.69-.15.7-.15.7-.15.7-.16.71-.16.7-.16.7-.17.71-.17.7-.17.71-.18.71-.17.71-.18.71-.18.71-.18.71-.19.71-.19.71-.19.72-.19.71-.19.72-.2.72-.2.72-.2.72-.2.72-.2.72-.21.73-.22.72-.21.72-.21.72-.22.72-.23.72-.22.72-.23.73-.23.73-.23.72-.24.73-.24.72-.24.72-.24.72-.24.73-.25.72-.26.72-.26.72-.26.72-.27.73-.27.73-.26.72-.27.72-.28.73-.28.73-.28.73-.29.73-.29.72-.29.72-.29.72-.29.72-.3.72-.3.72-.3.72-.31.72-.31.72-.32.72-.31.72-.32.72-.32.72-.32.72-.33.71-.34.72-.33.72-.34.71-.35.71-.34.72-.35.71-.36.71-.2.4.08-.07.8-.8.79-.8.79-.8.78-.8.78-.8.78-.8.78-.79.77-.8.77-.8.65-.68.11-.12.76-.8.76-.8.75-.8.75-.8.74-.8.74-.81.74-.8.73-.81.73-.81.73-.8.73-.81.72-.8.72-.8.72-.8.71-.8.7-.81.71-.8.7-.81.69-.81.69-.81.69-.81.68-.81.69-.81.68-.81.68-.81.67-.81.67-.81.66-.81.67-.81.66-.81.65-.81.65-.81.65-.81.65-.81.64-.81.64-.81.63-.81.63-.82.63-.81.63-.81.62-.81.62-.81.62-.82.61-.81.61-.81.61-.81.6-.81.6-.82.59-.81.59-.81.59-.81.58-.82.58-.82.58-.81.58-.81.57-.81.57-.82.57-.82.56-.81.56-.81.56-.82.56-.81.48-.72.07-.1.55-.81.54-.81.54-.81.54-.81.54-.82.53-.82.52-.81.52-.82.52-.81.52-.82.51-.82.51-.81.5-.81.51-.82.5-.81.49-.82.49-.81.49-.82.49-.81.49-.81.48-.81.48-.82.48-.82.48-.82.46-.82.47-.81.46-.82.46-.81.45-.82.45-.81.45-.81.45-.81.44-.82.44-.81.44-.81.43-.81.43-.81.43-.82.43-.81.42-.81.42-.81.41-.81.41-.81.41-.81.4-.81.41-.81.4-.81.4-.81.4-.81.39-.81.39-.81.39-.81.39-.81.38-.81.37-.81.38-.81.37-.81.37-.81.37-.81.37-.81.36-.81.36-.8.36-.81.35-.8.35-.81.35-.8.35-.81.34-.8.09-.23.24-.58.33-.81.34-.8.33-.81.33-.8.32-.81.32-.8.32-.81.32-.8.31-.8.31-.8.31-.8.3-.8.3-.8.3-.8.3-.8.29-.8.3-.8.28-.8.28-.8.28-.8.28-.8.27-.8.27-.8.27-.79.27-.8.27-.79.26-.8.26-.8.26-.8.25-.79.26-.79.25-.79.24-.8.25-.79.24-.79.24-.79.24-.79.23-.79.23-.79.23-.79.22-.79.22-.79.22-.79.22-.79.21-.79.21-.79.21-.79.21-.78.2-.79.2-.79.2-.79.2-.79.19-.79.19-.79.19-.78.18-.78.19-.78.18-.78.18-.78.18-.78.17-.78.17-.78.17-.77.17-.78.16-.77.16-.78.16-.78.16-.78.16-.78.15-.78.15-.77v-.03l.14-.74.14-.77.14-.77.13-.77.14-.77.13-.77.13-.77.12-.77.13-.77.13-.77.12-.77.12-.76.11-.76.12-.77.11-.76.11-.77.1-.76.11-.76.1-.76.1-.76.09-.76.09-.76.09-.76.09-.76.09-.75.08-.76.08-.75.08-.75.08-.76.08-.75.08-.75.07-.75.07-.75.06-.75.06-.74.06-.75.06-.75.06-.75.06-.74.06-.75.05-.74.05-.74.04-.75.05-.74.05-.74.04-.74.04-.74.04-.74.04-.73.03-.74.03-.73.03-.73.02-.73.02-.73.02-.73.02-.73.02-.73.01-.73.02-.73.01-.73.01-.73.01-.72.01-.72v-1.43l-.01-.72v-.72l-.01-.73-.01-.72-.01-.72-.01-.71-.01-.72v-.19l-.01-.54-.02-.71-.03-.71-.02-.71-.03-.72-.03-.71-.03-.71-.04-.71-.03-.71-.04-.71-.04-.71-.04-.71-.04-.71-.04-.7-.04-.7-.05-.7-.05-.7-.05-.7-.06-.7-.06-.7-.06-.7-.06-.7-.06-.69-.07-.69-.06-.69-.07-.69-.07-.69-.07-.68-.07-.69-.08-.69-.08-.69-.08-.68-.08-.69-.08-.68-.09-.69-.09-.68-.09-.68-.09-.67-.09-.67-.1-.68-.1-.68-.1-.67-.1-.67-.1-.67-.1-.67-.1-.67-.11-.67-.11-.67-.11-.66-.11-.67-.11-.66-.12-.67-.12-.66-.12-.66-.12-.66-.12-.66-.12-.66-.12-.66-.13-.65-.13-.65-.13-.65-.14-.65-.13-.65-.13-.65-.14-.64-.14-.65-.14-.64-.14-.64-.14-.64-.29-1.28-.3-1.28-.31-1.27-.31-1.26-.32-1.26-.33-1.25-.33-1.24-.34-1.24-.35-1.24-.35-1.23-.36-1.22-.37-1.22-.37-1.22-.38-1.2-.38-1.2-.39-1.19-.39-1.19-.4-1.19-.41-1.18-.41-1.17-.42-1.17-.43-1.16-.43-1.16-.43-1.15-.44-1.15-.45-1.14-.44-1.13-.46-1.13-.46-1.12-.47-1.11-.48-1.11-.36-.83-.12-.28-.49-1.09-.49-1.09-.5-1.08-.5-1.08-.51-1.07-.51-1.07-.52-1.05-.52-1.05-.53-1.05-.53-1.04-.54-1.03-.54-1.03-.54-1.02-.54-1.01-.56-1-.56-1-.56-.98-.57-.98-.57-.98-.57-.97-.58-.96-.58-.95-.59-.95-.59-.94-.59-.93-.6-.93-.6-.92-.6-.91-.61-.91-.62-.9-.62-.89-.62-.88-.62-.87-.63-.87-.63-.86-.64-.85-.64-.85-.64-.84v.01l-.1.29-.16.44-.17.44-.17.46-.18.46-.2.47-.21.48-.22.49-.23.5-.24.5-.25.51-.26.51-.28.52-.29.53-.3.53-.16.27-.16.27-.16.27-.16.28-.17.27-.17.27-.17.27-.18.27-.18.28-.18.28-.19.28-.19.29-.19.28-.2.29-.2.28-.2.29-.21.29-.21.29-.21.29-.22.29-.22.29-.22.29-.23.29-.23.29-.24.3-.24.29-.25.29-.25.29-.26.3-.26.3-.26.3-.27.3-.27.3-.27.3-.25.27-.25.27-.25.27-.26.26-.25.26-.26.27-.26.27-.26.27-.53.52-.53.52-.55.52-.55.51-.56.51-.56.5-.56.5-.57.49-.57.49-.58.48-.57.48-.58.47-.58.47-.58.46-.58.45-.58.45-.57.45-.58.44-.57.43-.57.42-.56.42-.56.41-.56.41-.56.39-.55.39-.54.38-.53.38-.53.36-.52.35-.51.35-.51.34-.49.33-.48.32-.48.32-.92.6-.87.56-.82.52-.76.48-.7.44-.63.38-.57.34-.49.29-.41.24-.12.07-.14.55-.26.95-.32 1.19-.37 1.41-.43 1.63-.47 1.81-.51 1.99-.55 2.17-.28 1.14-.29 1.18-.3 1.21-.3 1.24-.31 1.27-.32 1.3-.32 1.32-.32 1.35-.32 1.37-.32 1.39-.33 1.41-.3 1.41-.33 1.44-.32 1.46-.32 1.46-.31 1.48-.31 1.48-.31 1.49-.31 1.49-.3 1.5-.29 1.5-.29 1.49-.28 1.49-.28 1.48-.27 1.48-.13.74-.12.73-.13.73-.12.73-.12.72-.12.72-.11.72-.11.71-.11.71-.1.71-.1.7-.09.7-.09.69-.09.69-.09.68-.08.67-.08.67-.08.66-.08.65-.06.65-.07.64-.06.64-.06.62-.05.62-.05.61-.04.6-.04.59-.03.58-.03.58-.03.56-.02.55-.02.55-.01.54v1.03l.01.5.01.5.02.48.04 1.38.05 1.37.04 1.35.03 1.33.03 1.3.02 1.29.02 1.26.01 1.25.01 1.22v2.4l-.01 1.17-.01 1.15-.01 1.14-.03 1.12-.02 1.1-.03 1.09-.03 1.07-.04 1.05-.05 1.04-.05 1.01-.05 1.01-.06.98-.06.97-.06.96-.07.94-.07.93-.08.91-.08.9-.08.88-.08.87-.09.86-.09.83-.1.83-.1.81-.11.8-.11.79-.11.77-.12.76-.12.75-.12.74-.13.73-.13.71-.13.7-.13.69-.14.67-.14.67-.14.66-.15.65-.15.64-.15.62-.15.61-.16.6-.16.59-.16.59-.16.58-.17.57-.17.56-.17.55-.17.54-.18.54-.17.53-.18.52-.18.51-.18.51-.19.5-.19.49-.19.48-.19.48-.19.47-.197.46-.19.46-.19.45-.2.45-.2.44-.2.44-.2.43-.2.43-.2.42-.2.42-.2.41-.2.41-.2.4-.2.4-.4.79-.41.78-.41.77-.41.77-.41.75-.41.75-.8 1.5-.4.75-.4.75-.39.75-.39.76-.38.76-.19.38-.19.39-.19.39-.19.39-.19.39-.18.4-.19.4-.18.41-.18.41-.18.41-.18.42-.18.42-.17.42-.17.43-.17.44-.17.44-.17.45-.17.46-.08.23-.09.23-.098.23-.09.23-.09.24-.1.23-.1.23-.11.23-.1.23-.1.23-.11.23-.11.23-.11.22-.11.23-.23.44-.24.44-.24.44-.25.44-.26.43-.27.43-.27.43-.28.42-.28.42-.29.42-.29.42-.3.41-.31.41-.31.41-.32.4-.32.4-.33.39-.33.39-.33.39-.34.39-.34.38-.35.38-.35.37-.35.37-.36.37-.36.37-.37.36-.36.36-.37.35-.38.36-.38.35-.38.34-.38.34-.39.34-.39.334-.39.33-.39.33-.39.33-.39.32-.39.32-.4.32-.4.31-.4.3-.4.3-.4.3-.4.3-.4.29-.4.29-.4.29-.4.28-.4.28-.4.27-.4.27-.4.27-.4.26-.39.26-.39.26-.4.25-.39.25-.39.25-.39.25-.38.24-.38.23-.76.46-.74.44-.74.43-.73.41-.71.4-.69.39-.68.37-.66.36-.64.34-.62.32-.6.31-.58.29-.56.28-.538.26-.51.25-.48.23-.46.21-.43.2-.4.19-.69.31-.38.16.01.14.03.56.02.55.02.55.02.54.01.53.01.52v1.02l-.01.51v.5l-.01.49-.01.48-.02.48-.02.48-.03.47-.03.46-.03.46-.04.46-.05.45-.05.45-.05.44-.06.45-.06.43-.07.44-.07.43-.08.43-.08.42-.08.42-.09.42-.09.42-.1.42-.1.42-.11.42-.11.42-.11.42-.12.42-.12.41-.13.41-.136.41-.14.41-.14.42-.15.42-.15.42-.16.42-.16.42-.17.42-.17.43-.18.43-.18.43-.19.43-.19.43-.19.44-.2.44-.202.44-.21.45-.22.45-.22.46-.22.46-.23.47-.24.47-.48.97-.32.61-.33.62-.33.615-.33.61-.35.61-.35.61-.35.59-.35.59-.13.21-.23.38-.36.58-.37.58-.37.58-.37.57-.37.57-.37.56-.37.55-.37.54-.37.54-.37.53-.37.53-.37.52-.37.51-.36.5-.36.5-.36.49-.36.48-.36.47-.35.47-.68.91-.68.87-.64.84-.62.8-1.16 1.48-.52.67-.49.63-.45.58-.4.53-.12.17.21-.04.29-.06.31-.06.32-.07.33-.07.35-.08.36-.09.37-.09.38-.1.39-.1.41-.11.41-.11.42-.12.44-.13.44-.13.45-.13.46-.14.47-.15.48-.15.48-.15.49-.16.49-.16.5-.17.5-.17.51-.18.515-.18.52-.19.52-.19.53-.2.53-.2.53-.2.53-.21.54-.21.54-.22.54-.22.54-.23.54-.23.54-.24.53-.24.53-.24.53-.24.53-.26.53-.26.53-.26.53-.26.53-.27.52-.27.52-.28.51-.28.5-.28.5-.29.49-.29.49-.3.48-.3.48-.3.48-.3.47-.31.46-.31.46-.31.45-.31.45-.32.45-.32.44-.31.44-.32.43-.31.42-.32.42-.31.41-.32.41-.31.4-.31.4-.316.39-.3.38-.3.38-.31.37-.31.37-.3.36-.29.69-.58.67-.57.64-.55.61-.53.58-.51.55-.49 1.01-.9.47-.4.43-.38.4-.34.37-.31.18-.14.17-.13.16-.12.16-.11.16-.11.15-.1.15-.09.16-.09.15-.07.11-.04.1-.04.11-.03.13-.03.15-.02h.09l.19.01.18.03.17.06.17.08.15.11.14.13.11.15.09.15.07.17.05.17.02.13-.01.21-.01.13-.02.12-.04.26-.06.33-.08.41-.11.48-.13.56-.15.64-.18.7-.19.78-.22.84-.24.9-.13.48-.14.49-.14.5-.15.51-.15.53-.16.54-.17.55-.18.57-.18.58-.19.59-.19.6-.2.61-.21.62-.22.63-.22.64-.22.65-.23.66-.24.67-.25.68-.25.68-.26.69-.27.7-.27.7-.28.71-.29.71-.29.72-.31.73-.31.73-.32.74-.32.74-.33.75-.34.75-.34.75-.35.76-.36.76-.36.76-.38.77-.38.76-.4.77-.39.76-.45.85-.46.85-.47.85-.47.85-.48.85-.48.84-.49.84-.49.84-.49.83-.5.83-.5.83-.51.82-.51.82-.5.81-.5.81-.51.8-.5.79-.51.79-.5.78-.51.77-.51.77-.49.76-.5.74-.49.74-.49.73-.48.72-.96 1.4-.93 1.36-.9 1.31-.87 1.25-.84 1.2-1.55 2.21-1.36 1.94-.6.86-.54.78-.35.51.13-.05.49-.21.526-.226.56-.25.58-.27.62-.29.65-.32.68-.34.7-.36.72-.37.75-.4.77-.42.8-.44.81-.46.84-.48.42-.24.433-.25.43-.26.43-.26.44-.27.45-.27.45-.27.46-.28.46-.28.46-.29.47-.3.47-.3.47-.31.48-.31.48-.31.48-.32.49-.33.49-.33.49-.33.5-.34.49-.35.5-.35.5-.35.5-.36.51-.36.51-.36.51-.37.5-.37.51-.37.51-.38.51-.39.51-.39.51-.39.52-.4.51-.4.52-.41.52-.41.52-.42.52-.42.51-.42.52-.43.51-.43.52-.435.51-.44.51-.44.51-.45.51-.45.51-.46.51-.46.51-.47.51-.47.51-.48.5-.47.5-.48.5-.48.5-.5.49-.49.5-.5.5-.5.49-.5.49-.51.49-.51.48-.52.48-.52.48-.52.47-.53.47-.53.47-.53.47-.54.46-.55.46-.54.45-.55.45-.55.45-.56.44-.56.43-.56.43-.562.43-.57.43-.57.42-.58.41-.58.41-.59.51-.74.5-.74.5-.73.49-.74.48-.73.48-.73.47-.73.47-.74.46-.73.45-.73.45-.73.44-.72.43-.73.43-.72.42-.71.42-.72.41-.72.41-.72.39-.71.4-.71.39-.71.38-.71.37-.7.37-.7.36-.69.36-.7.35-.69.35-.685.34-.68.33-.68.33-.67.2-.42.12-.25.32-.67.31-.67.31-.67.31-.66.3-.66.29-.65.29-.65.28-.64.28-.64.27-.64.27-.63.26-.63.26-.63.252-.62.25-.62.243-.617.24-.61.24-.6.23-.6.23-.59.22-.6.22-.58.21-.58.21-.57.2-.56.2-.57.2-.56.2-.55.19-.55.19-.54.18-.53.18-.53.34-1.04.33-1.01.31-.99.29-.96.28-.94.26-.91.25-.88.23-.86.23-.83.22-.8.2-.77.19-.74.17-.71.17-.68.15-.64.144-.61.14-.58.124-.54.22-.99.34-1.53.07-.29.06-.26.06-.22.05-.2.05-.17.04-.1.05-.11.09-.17.09-.09.13-.13.15-.1h.01l.13-.06.13-.04.13-.02.16-.01.16.02.16.04z"/></svg>